<?xml version="1.0" encoding="utf-8"?>
<!-- Generator: Adobe Illustrator 16.0.0, SVG Export Plug-In . SVG Version: 6.00 Build 0)  -->
<!DOCTYPE svg PUBLIC "-//W3C//DTD SVG 1.1//EN" "http://www.w3.org/Graphics/SVG/1.1/DTD/svg11.dtd">
<svg version="1.1" id="Calque_1" xmlns="http://www.w3.org/2000/svg" xmlns:xlink="http://www.w3.org/1999/xlink" x="0px" y="0px"
	 width="158.84px" height="32.94px" viewBox="0 0 158.84 32.94" enable-background="new 0 0 158.84 32.94" xml:space="preserve">
<path fill-rule="evenodd" clip-rule="evenodd" fill="#0C0C0C" d="M58.821,10.372c0,6.505-0.025,13.005,0.018,19.506
	c0.011,1.516,0.096,2.566-2.161,2.534c-2.093-0.031-2.282-0.806-2.27-2.462c0.065-9.01,0.003-18.023,0.072-27.031
	c0.007-0.945-0.906-2.828,1.319-2.561c1.858,0.219,4.514-1.483,5.387,1.722c1.276,4.685,2.553,9.362,3.85,14.041
	c0.224,0.807,0.542,1.584,1.376,2.279c0-5.248,0.071-10.495-0.039-15.742C66.339,0.92,66.65,0.205,68.69,0.216
	c2.039,0.016,2.032,0.953,2.025,2.395c-0.041,9.111-0.002,18.223-0.053,27.33c-0.004,0.897,0.726,2.565-1.282,2.325
	c-1.535-0.184-3.585,1.215-4.312-1.844c-1.609-6.769-3.728-13.42-5.638-20.116C59.227,10.329,59.023,10.353,58.821,10.372z"/>
<path fill-rule="evenodd" clip-rule="evenodd" fill="#0C0C0C" d="M154.473,18.811c0-5.401,0.033-10.799-0.021-16.197
	c-0.015-1.448,0.002-2.375,2.029-2.397c2.046-0.022,2.326,0.703,2.313,2.434c-0.084,9.106-0.021,18.215-0.068,27.319
	c-0.006,0.907,0.701,2.554-1.314,2.303c-1.545-0.189-3.567,1.163-4.291-1.882c-1.606-6.752-3.743-13.388-6.24-20.026
	c0,6.608-0.053,13.216,0.039,19.822c0.023,1.651-0.389,2.175-2.184,2.206c-1.959,0.033-2.398-0.552-2.379-2.369
	c0.094-8.906,0.005-17.813,0.092-26.719c0.012-1.093-1.092-3.192,1.57-2.974c2.045,0.169,4.656-1.251,5.443,2.456
	c1.152,5.436,2.939,10.744,4.455,16.107C154.102,18.863,154.288,18.836,154.473,18.811z"/>
<path fill-rule="evenodd" clip-rule="evenodd" fill="#0C0C0C" d="M138.817,17.429c-0.381,2.991,0.641,6.711-0.572,10.334
	c-1.161,3.476-4.105,5.41-7.975,5.155c-3.75-0.244-6.43-2.294-6.912-5.936c-0.908-6.844-0.826-13.759-0.088-20.603
	c0.503-4.661,3.5-6.61,8.344-6.358c4.148,0.217,6.986,3.064,7.177,7.446C138.925,10.562,138.817,13.665,138.817,17.429z
	 M133.813,16.626c-0.006,0-0.012,0-0.017,0c0-2.999,0.097-5.998-0.036-8.991c-0.081-1.805-0.851-3.418-3.125-3.287
	c-2.148,0.129-2.484,1.71-2.482,3.433c0.008,5.695-0.03,11.39,0.018,17.083c0.015,1.673-0.119,3.426,2.625,3.442
	c2.807,0.016,2.873-1.856,2.977-3.59C133.93,22.027,133.813,19.323,133.813,16.626z"/>
<path fill-rule="evenodd" clip-rule="evenodd" fill="#0C0C0C" d="M24.856,24.624c1.888-2.99,1.825-6.274,2.417-9.41
	c0.847-4.485,1.315-9.04,1.931-13.565c0.32-2.372,2.205-1.06,3.387-1.322c0.963-0.214,1.552,0.167,1.354,1.322
	c-1.643,9.602-3.342,19.198-4.8,28.823c-0.25,1.661-0.791,1.849-2.222,1.875c-5.825,0.099-5.668,0.116-6.443-5.449
	c-1.14-8.163-2.55-16.295-3.773-24.453c-0.106-0.691-1.504-2.191,0.642-2.083c1.48,0.073,3.779-1.218,4.21,1.572
	c0.867,5.599,1.696,11.205,2.52,16.812C24.368,20.697,24.599,22.665,24.856,24.624z"/>
<path fill-rule="evenodd" clip-rule="evenodd" fill="#0C0C0C" d="M43.512,32.319c-6.866,0-6.866,0-6.866-6.589
	c0-7.708,0.063-15.418-0.045-23.126c-0.025-1.829,0.432-2.448,2.384-2.354c3.3,0.159,6.617,0.148,9.917,0.004
	c1.905-0.081,1.908,0.885,1.877,2.208C50.75,3.7,50.964,4.988,48.971,4.663c-0.199-0.032-0.412-0.007-0.62-0.005
	C41.511,4.76,41.592,4.76,41.549,11.4c-0.013,1.943,0.488,2.756,2.548,2.458c0.808-0.115,1.657,0.047,2.476-0.03
	c1.544-0.15,2.445,0.043,2.397,1.979c-0.043,1.744-0.333,2.417-2.357,2.396C41.6,18.147,41.6,18.266,41.6,23.068
	c0,5.074,0,5.009,5.451,5.124c1.229,0.024,3.148-0.971,3.619,0.942c0.408,1.651,0.663,3.752-2.515,3.226
	C46.648,32.111,45.062,32.319,43.512,32.319z"/>
<path fill-rule="evenodd" clip-rule="evenodd" fill="#0C0C0C" d="M0.059,16.313c0-4.598,0.058-9.196-0.035-13.789
	C-0.004,1.01,0.347,0.386,2.052,0.446c3.401,0.124,6.811,0.131,10.21-0.002c1.813-0.069,1.967,0.753,1.941,2.153
	c-0.024,1.337-0.046,2.441-1.917,2.084c-0.101-0.018-0.206-0.003-0.311,0c-7.553,0.186-7.516,0.182-7.055,7.61
	c0.079,1.263,0.37,1.829,1.743,1.71c1.022-0.089,2.064,0.032,3.092-0.028c1.577-0.092,2.638-0.063,2.649,2.099
	c0.01,2.184-0.912,2.366-2.723,2.347c-4.723-0.052-4.724,0.015-4.724,4.724c0,5.025,0.002,4.952,5.352,5.087
	c1.254,0.029,3.015-0.99,3.802,0.771c0.908,2.031-0.09,3.302-2.39,3.314c-3.096,0.013-6.195-0.102-9.283,0.043
	c-1.832,0.082-2.507-0.308-2.434-2.256C0.173,25.512,0.059,20.909,0.059,16.313z"/>
<path fill-rule="evenodd" clip-rule="evenodd" fill="#0C0C0C" d="M113.178,13.901c1.148-4.027,2.277-8.056,3.455-12.074
	c0.367-1.255,3.514-2.208,4.468-1.394c0.785,0.674-0.026,1.285-0.202,1.871c-1.642,5.468-3.251,10.945-5.045,16.364
	c-1.295,3.918-0.82,7.902-0.813,11.863c0.002,1.843-0.954,1.968-2.29,1.766c-1.096-0.165-3.066,0.854-2.79-1.513
	c1.165-9.933-3.128-18.802-5.624-28.031c-0.179-0.658-1.807-2.109,0.021-2.297c1.472-0.147,3.892-1.487,4.677,1.251
	c1.159,4.059,2.225,8.145,3.328,12.217C112.634,13.919,112.907,13.91,113.178,13.901z"/>
<path fill-rule="evenodd" clip-rule="evenodd" fill="#0C0C0C" d="M78.816,18.271c0-3.501-0.151-7.011,0.054-10.501
	c0.136-2.349-0.33-3.649-3.077-3.114C73.501,5.1,73.031,3.998,73.182,2.01c0.097-1.246,0.356-1.764,1.746-1.739
	c4.234,0.068,8.472,0.098,12.703-0.011c1.786-0.046,1.729,0.903,1.672,2.072c-0.06,1.133,0.374,2.698-1.69,2.303
	c-3.691-0.706-4.059,1.083-3.965,4.081c0.219,7.099-0.031,14.207,0.129,21.31c0.05,2.203-0.932,2.258-2.705,2.361
	c-2.09,0.119-2.341-0.703-2.291-2.407C78.896,26.08,78.816,22.173,78.816,18.271z"/>
<path fill-rule="evenodd" clip-rule="evenodd" fill="#0C0C0C" d="M96.756,14.195c0,3.702,0.186,7.416-0.064,11.101
	c-0.169,2.521,0.822,3.154,3.139,2.866c1.016-0.123,2.065,0.031,3.094-0.034c1.576-0.098,2.632-0.076,2.609,2.091
	c-0.021,2.132-1.025,2.161-2.639,2.122c-3.094-0.075-6.195-0.074-9.29,0c-1.302,0.032-1.793-0.289-1.784-1.653
	c0.056-9.602,0.07-19.204-0.002-28.808c-0.018-2.087,1.382-1.554,2.499-1.567c1.132-0.014,2.534-0.494,2.472,1.582
	C96.673,5.993,96.756,10.094,96.756,14.195z"/>
<path fill-rule="evenodd" clip-rule="evenodd" fill="#F6F6F5" d="M133.813,16.626c0,2.697,0.117,5.401-0.041,8.09
	c-0.104,1.733-0.17,3.605-2.977,3.59c-2.744-0.017-2.61-1.77-2.625-3.442c-0.048-5.693-0.01-11.388-0.018-17.083
	c-0.002-1.723,0.334-3.304,2.482-3.433c2.274-0.131,3.044,1.482,3.125,3.287c0.133,2.993,0.036,5.992,0.036,8.991
	C133.801,16.626,133.807,16.626,133.813,16.626z"/>
</svg>
