<?xml version="1.0" encoding="utf-8"?>
<!-- Generator: Adobe Illustrator 16.0.0, SVG Export Plug-In . SVG Version: 6.00 Build 0)  -->
<!DOCTYPE svg PUBLIC "-//W3C//DTD SVG 1.1//EN" "http://www.w3.org/Graphics/SVG/1.1/DTD/svg11.dtd">
<svg version="1.1" id="Calque_1" xmlns="http://www.w3.org/2000/svg" xmlns:xlink="http://www.w3.org/1999/xlink" x="0px" y="0px"
	 width="158.76px" height="32.746px" viewBox="0 0 158.76 32.746" enable-background="new 0 0 158.76 32.746" xml:space="preserve">
<path fill-rule="evenodd" clip-rule="evenodd" fill="#302E26" d="M154.532,18.899c0-5.582-0.015-11.109,0.014-16.639
	c0.005-0.797-0.45-1.905,1.105-1.988c1.24-0.062,2.335,0.084,2.668,1.435c0.236,0.963,0.392,1.969,0.402,2.952
	c0.039,4.507,0.014,9.012,0.014,13.516c0,3.903,0.014,7.809-0.014,11.71c-0.007,1.011,0.43,2.499-1.482,2.208
	c-1.395-0.213-3.308,1.065-3.973-1.533c-1.5-5.857-3.248-11.657-4.906-17.473c-0.281-0.992-0.624-1.968-1.607-2.858
	c0,5.137,0,10.275,0,15.414c0,1.401-0.067,2.805,0.018,4.204c0.088,1.461-0.008,2.354-2.035,2.366
	c-2.05,0.009-2.334-0.726-2.321-2.443c0.072-8.985,0-17.977,0.048-26.964c0.007-0.984-0.783-2.774,1.433-2.487
	c1.88,0.241,4.49-1.315,5.343,1.88c1.4,5.255,2.882,10.491,4.328,15.735C153.663,18.284,153.538,18.754,154.532,18.899z"/>
<path fill-rule="evenodd" clip-rule="evenodd" fill="#302E26" d="M138.693,16.401c0,2.796,0.052,5.589-0.012,8.38
	c-0.105,4.665-2.981,7.719-7.394,7.95c-4.578,0.235-7.892-2.341-8.135-7.066c-0.314-6.168-0.337-12.375-0.031-18.544
	c0.245-4.94,3.385-7.32,8.348-7.107c4.414,0.19,7.164,3.211,7.233,8.006c0.04,2.794,0.008,5.587,0.008,8.382
	C138.704,16.401,138.699,16.401,138.693,16.401z M127.921,16.379c0,2.998-0.027,5.992,0.008,8.985
	c0.021,1.8,0.627,3.029,2.868,3.034c2.19,0.005,2.997-1.201,3.021-2.967c0.081-5.992,0.089-11.987,0.009-17.978
	c-0.025-1.837-0.805-3.366-3.107-3.316c-2.166,0.051-2.744,1.522-2.78,3.251C127.876,10.387,127.921,13.382,127.921,16.379z"/>
<path fill-rule="evenodd" clip-rule="evenodd" fill="#0C0C0C" d="M24.908,24.493c1.788-2.918,1.752-6.195,2.34-9.321
	c0.844-4.487,1.317-9.038,1.934-13.567c0.357-2.605,2.413-1.06,3.664-1.334c1.208-0.268,1.16,0.638,1.005,1.545
	c-1.622,9.508-3.321,18.999-4.71,28.535c-0.284,1.942-1.072,1.896-2.505,1.904c-5.574,0.039-5.396,0.042-6.18-5.397
	c-1.26-8.745-2.783-17.452-4.194-26.175c4.517-1.14,4.752-0.945,5.381,3.221C22.678,10.777,23.814,17.63,24.908,24.493z"/>
<path fill-rule="evenodd" clip-rule="evenodd" fill="#0C0C0C" d="M0.038,16.174c0-4.596,0.067-9.196-0.036-13.792
	c-0.036-1.585,0.467-2.067,2.086-2.016c3.4,0.107,6.811,0.127,10.21-0.005c1.888-0.073,1.84,0.886,1.889,2.204
	c0.057,1.467-0.235,2.335-1.977,2.033c-0.101-0.017-0.207-0.004-0.31,0c-7.564,0.163-7.52,0.159-7.004,7.666
	c0.091,1.327,0.506,1.751,1.803,1.652c1.024-0.078,2.068,0.054,3.092-0.031c1.671-0.136,2.637,0.067,2.582,2.162
	c-0.048,1.869-0.575,2.323-2.456,2.302c-4.978-0.053-4.978,0.045-4.978,4.763c0,4.976,0,4.905,5.408,5.024
	c1.248,0.03,3.014-0.93,3.749,0.835c0.878,2.105-0.066,3.249-2.45,3.259c-3.198,0.015-6.398-0.082-9.592,0.039
	c-1.642,0.064-2.083-0.45-2.051-2.004C0.101,25.569,0.038,20.874,0.038,16.174z"/>
<path fill-rule="evenodd" clip-rule="evenodd" fill="#0C0C0C" d="M36.625,24.675c0.433-7.048,0.731-14.096,0.631-21.154
	c-0.03-2.086,0.636-3.263,3.248-2.955c2.535,0.305,5.142,0.116,7.712,0.022c1.491-0.057,1.934,0.471,1.947,1.897
	c0.014,1.427-0.56,1.627-1.836,1.548c-1.637-0.105-3.304,0.155-4.935,0.001c-2.469-0.229-2.828,1.03-2.479,2.918
	c0.105,0.58,0.458,1.129,0.494,1.704c0.114,1.778-0.534,4.041,0.365,5.223c0.982,1.29,3.447,0.414,5.258,0.45
	c1.859,0.038,1.067,1.303,1.219,2.129c0.212,1.157-0.314,1.618-1.532,1.549c-1.701-0.101-3.812-0.956-4.991,0.235
	c-1.181,1.197-0.13,3.227-0.126,4.889c0.015,4.927,0.057,4.803,5.249,5.016c1.278,0.055,3.77-1.685,3.922,1.601
	c0.084,1.81-0.237,2.688-2.435,2.54c-3.08-0.208-6.195-0.197-9.276-0.003c-2.142,0.137-2.634-0.647-2.466-2.516
	C36.745,28.083,36.625,26.373,36.625,24.675z"/>
<path fill-rule="evenodd" clip-rule="evenodd" fill="#302E26" d="M105.337,1.312c1.604-0.561,2.278,0.256,2.969,1.796
	c1.421,3.172,1.643,6.761,3.691,9.704c0.264,0.374,0.16,1.035,0.92,0.902c0.678-0.119,0.548-0.692,0.711-1.139
	c1.169-3.23,1.477-6.686,3.461-9.734c1.074-1.654,2.103-1.822,4.064-1.771c-1.064,3.634-1.896,7.15-3.126,10.531
	c-2.165,5.958-3.826,11.964-3.119,18.349c0.226,2.034-0.761,2.198-2.489,2.25c-1.92,0.06-2.463-0.48-2.42-2.336
	c0.072-3.188-0.602-6.556-0.049-9.54C111.282,13.137,106.044,7.827,105.337,1.312z"/>
<path fill-rule="evenodd" clip-rule="evenodd" fill="#0C0C0C" d="M61.426,11.858c-0.249-0.441-0.48-0.889-0.75-1.315
	c-0.471-0.729-0.725-1.878-1.919-1.59c-1.124,0.267-0.525,1.338-0.636,2.049c-0.949,6.063-0.407,12.127,0.012,18.188
	c0.072,1.046,0.055,1.979-1.303,2.296c-1.413,0.329-2.271,0.334-2.256-1.548c0.081-9.692,0.037-19.389,0.037-29.056
	c0.302-0.08,0.478-0.138,0.658-0.17c4.043-0.71,5.102,1.475,5.435,4.861c0.21,2.146,1.143,4.221,1.752,6.329
	C62.111,11.887,61.769,11.872,61.426,11.858z"/>
<path fill-rule="evenodd" clip-rule="evenodd" fill="#302E26" d="M61.426,11.858c0.343,0.014,0.685,0.029,1.028,0.045
	c1.289,2.895,1.547,6.201,3.757,8.728c0.387,0.446,0.614,1.068,1.295,0.942c0-6.239-0.034-12.455,0.044-18.668
	c0.009-0.76-1.013-2.174,0.875-2.282c1.773-0.1,1.201,1.419,1.287,2.187c0.346,3.069-0.029,6.145-0.159,9.222
	c-0.24,5.656,0.146,11.339,0.215,17.009c0.01,0.847,0.907,2.306-0.663,2.386c-1.149,0.061-3.01,0.709-3.487-1.387
	C64.241,23.972,62.826,17.917,61.426,11.858z"/>
<path fill-rule="evenodd" clip-rule="evenodd" fill="#302E26" d="M79.653,22.135c0.202-5.551,0.971-11.09,0.405-16.66
	c-0.057-0.555,0.158-1.171,0.377-1.706c0.75-1.823-0.748-2.317-1.743-1.931c-0.827,0.323-2.068,0.015-2.621,1.114
	c-0.398,0.793-1.296,0.771-1.862,0.359c-0.619-0.444-0.367-1.301-0.282-1.977c0.107-0.866,0.9-0.767,1.439-0.662
	c3.68,0.704,7.395,0.297,11.088,0.32c1.496,0.009,2.004,0.421,1.905,1.873c-0.113,1.681-1.301,0.981-2.197,1.209
	c-1.342,0.345-2.385-2.423-3.545-0.429c-0.595,1.018-0.268,2.528-0.391,3.814c-0.682,7.159,0.619,14.313,0.088,21.478
	c-0.102,1.375,0.061,2.733-1.947,2.579c-1.974-0.146-0.995-1.653-1.005-2.525C79.337,26.709,79.54,24.419,79.653,22.135z"/>
<path fill-rule="evenodd" clip-rule="evenodd" fill="#302E26" d="M93.746,0.618c1.437,0.562,1.603,1.441,1.492,2.52
	c-0.802,7.86,0,15.744-0.397,23.611c-0.103,2.005,0.838,2.522,2.762,2.59c2.144,0.077,4.03-0.676,6.018-1.137
	c0.973-0.221,2.023-0.334,1.757,1.103c-0.185,0.987,0.964,2.645-1.156,2.82c-3.515,0.284-6.959-0.237-10.386-0.987
	c-1.49-0.326-1.273-1.354-1.241-2.317c0.249-7.354,0.802-14.7,0.422-22.071C92.913,4.803,93.464,2.824,93.746,0.618z"/>
<path fill-rule="evenodd" clip-rule="evenodd" fill="#F6F6F5" d="M127.921,16.379c0-2.997-0.045-5.992,0.019-8.99
	c0.036-1.729,0.614-3.2,2.78-3.251c2.303-0.05,3.082,1.479,3.107,3.316c0.08,5.99,0.072,11.985-0.009,17.978
	c-0.024,1.766-0.831,2.972-3.021,2.967c-2.241-0.005-2.847-1.234-2.868-3.034C127.894,22.372,127.921,19.377,127.921,16.379z"/>
</svg>
