<?xml version="1.0" encoding="utf-8"?>
<!-- Generator: Adobe Illustrator 16.0.0, SVG Export Plug-In . SVG Version: 6.00 Build 0)  -->
<!DOCTYPE svg PUBLIC "-//W3C//DTD SVG 1.1//EN" "http://www.w3.org/Graphics/SVG/1.1/DTD/svg11.dtd">
<svg version="1.1" id="Calque_1" xmlns="http://www.w3.org/2000/svg" xmlns:xlink="http://www.w3.org/1999/xlink" x="0px" y="0px"
	 width="158.807px" height="32.749px" viewBox="0 0 158.807 32.749" enable-background="new 0 0 158.807 32.749"
	 xml:space="preserve">
<path fill-rule="evenodd" clip-rule="evenodd" fill="#EA2E26" d="M146.769,10.266c0,6.368,0,12.736,0,19.107
	c0,1.452,0.452,2.871-2.175,2.861c-2.638-0.008-2.142-1.467-2.146-2.9c-0.012-8.777-0.042-17.554,0.014-26.326
	c0.004-1.063-0.856-2.979,1.545-2.708c1.879,0.211,4.474-1.289,5.253,1.982c1.286,5.361,2.79,10.671,5.273,15.809
	c0-5.197-0.021-10.398,0.027-15.594c0.008-0.85-0.602-2.113,1.155-2.245c1.457-0.111,2.44,0.36,2.739,1.778
	c0.182,0.873,0.278,1.781,0.28,2.67c0.019,8.298,0.026,16.596-0.019,24.893c-0.005,1.034,0.654,2.708-1.498,2.511
	c-1.507-0.144-3.355,0.921-4.032-1.861c-1.635-6.711-3.731-13.313-5.643-19.956C147.287,10.28,147.023,10.271,146.769,10.266z"/>
<path fill-rule="evenodd" clip-rule="evenodd" fill="#EA2E26" d="M138.707,16.339c0,2.805,0.048,5.607-0.013,8.411
	c-0.103,4.686-2.991,7.76-7.411,7.985c-4.682,0.234-7.979-2.505-8.194-7.429c-0.261-5.993-0.285-12.018,0-18.011
	c0.238-5.015,3.3-7.455,8.254-7.288c4.483,0.149,7.277,3.123,7.371,7.921c0.054,2.804,0.008,5.607,0.008,8.41
	C138.718,16.339,138.714,16.339,138.707,16.339z M133.882,16.682c0-2.891,0.036-5.785-0.016-8.678
	c-0.035-1.898-0.419-3.729-2.891-3.85c-2.547-0.128-3.049,1.682-3.066,3.595c-0.058,5.787-0.049,11.574,0.002,17.36
	c0.017,1.818,0.459,3.309,2.953,3.274c2.433-0.037,2.938-1.51,2.994-3.321C133.946,22.271,133.882,19.476,133.882,16.682z"/>
<path fill-rule="evenodd" clip-rule="evenodd" fill="#0C0C0C" d="M24.853,24.564c1.874-3.037,1.824-6.32,2.41-9.463
	c0.841-4.488,1.299-9.041,1.936-13.567C29.525-0.81,31.42,0.5,32.606,0.24c0.99-0.221,1.514,0.212,1.319,1.349
	c-1.645,9.702-3.318,19.398-4.814,29.124c-0.223,1.427-0.762,1.491-1.915,1.544c-6.003,0.255-5.885,0.267-6.754-5.77
	c-1.157-8.061-2.534-16.096-3.758-24.153c-0.107-0.705-1.465-2.191,0.68-2.063c1.481,0.09,3.764-1.205,4.189,1.602
	c0.85,5.602,1.688,11.208,2.516,16.813C24.357,20.642,24.59,22.604,24.853,24.564z"/>
<path fill-rule="evenodd" clip-rule="evenodd" fill="#0C0C0C" d="M6.902,32.232c-6.858,0-6.858,0-6.858-6.571
	c0-7.595,0.061-15.19-0.043-22.783c-0.023-1.891,0.396-2.646,2.514-2.529C5.806,0.529,9.118,0.497,12.41,0.36
	c2.035-0.083,1.705,1.108,1.768,2.308c0.065,1.271-0.08,2.208-1.76,1.93c-0.201-0.033-0.412-0.019-0.618-0.001
	C9.58,4.777,6.196,3.628,5.396,5.063c-1.13,2.022-0.356,5.024-0.464,7.599c-0.044,1.184,0.656,1.268,1.572,1.243
	c1.029-0.028,2.063,0.051,3.09-0.017c1.709-0.114,2.786-0.035,2.808,2.258c0.019,2.442-1.311,2.167-2.896,2.167
	c-4.562-0.009-4.562,0.013-4.562,4.303c0,5.463,0.002,5.396,5.826,5.527c1.131,0.029,3.059-1.178,3.376,1.214
	c0.256,1.887,0.075,3.333-2.609,2.915C10.03,32.041,8.451,32.232,6.902,32.232z"/>
<path fill-rule="evenodd" clip-rule="evenodd" fill="#0C0C0C" d="M36.634,24.623c0.457-6.946,0.716-13.893,0.626-20.852
	c-0.028-2.124,0.397-3.591,3.302-3.208c2.524,0.338,5.14,0.128,7.714,0.02c1.558-0.065,1.854,0.592,1.893,1.945
	c0.047,1.502-0.688,1.553-1.885,1.494c-1.64-0.076-3.303,0.154-4.935,0.01c-2.516-0.221-2.759,1.121-2.416,2.963
	c0.106,0.581,0.445,1.13,0.485,1.705c0.121,1.774-0.516,4.053,0.396,5.204c0.989,1.25,3.458,0.389,5.273,0.422
	c1.61,0.029,1.119,1.085,1.167,1.877c0.054,0.88,0.235,1.794-1.269,1.813c-1.84,0.026-4.274-1.282-5.351,0.518
	c-0.787,1.315-0.063,3.464-0.054,5.243c0.03,4.276,0.02,4.276,4.401,4.276c0.826,0,1.657,0.071,2.473-0.013
	c1.627-0.173,2.398,0.21,2.359,2.053c-0.035,1.65-0.404,2.255-2.211,2.178c-3.293-0.14-6.602-0.107-9.897-0.012
	c-1.535,0.047-2.246-0.276-2.108-1.943C36.755,28.431,36.634,26.521,36.634,24.623z"/>
<path fill-rule="evenodd" clip-rule="evenodd" fill="#EA2E26" d="M105.418,1.292c1.453-0.45,2.148,0.207,2.835,1.635
	c1.465,3.067,1.536,6.615,3.611,9.441c0.317,0.44,0.048,1.352,0.929,1.317c1.101-0.044,0.696-1.038,0.915-1.623
	c1.162-3.13,1.504-6.502,3.487-9.417c0.914-1.346,1.93-1.956,3.194-1.5c1.418,0.515,0.282,1.69,0.037,2.495
	c-1.489,4.938-3.009,9.868-4.631,14.768c-1.197,3.612-0.909,7.308-0.849,10.98c0.03,1.869-0.139,2.854-2.563,2.849
	c-2.35-0.003-2.361-1.041-2.38-2.709c-0.029-3.188-0.695-6.592-0.119-9.522C111.274,12.906,105.918,7.823,105.418,1.292z"/>
<path fill-rule="evenodd" clip-rule="evenodd" fill="#0C0C0C" d="M61.433,11.853c-0.249-0.438-0.477-0.887-0.749-1.313
	c-0.469-0.73-0.728-1.882-1.921-1.59c-1.123,0.267-0.522,1.336-0.635,2.048c-0.947,6.062-0.406,12.127,0.011,18.189
	c0.073,1.044,0.054,1.978-1.302,2.295c-1.413,0.328-2.271,0.332-2.256-1.551c0.078-9.689,0.036-19.384,0.036-29.054
	c0.302-0.079,0.479-0.136,0.656-0.169C59.318,0,60.376,2.183,60.708,5.571c0.213,2.141,1.145,4.22,1.754,6.329
	C62.119,11.884,61.776,11.866,61.433,11.853z"/>
<path fill-rule="evenodd" clip-rule="evenodd" fill="#302E26" d="M61.433,11.853c0.344,0.014,0.687,0.031,1.029,0.048
	c1.29,2.891,1.547,6.2,3.755,8.728c0.39,0.445,0.616,1.067,1.297,0.941c0-6.239-0.033-12.456,0.046-18.667
	c0.011-0.76-1.015-2.173,0.874-2.283c1.772-0.099,1.202,1.419,1.288,2.188c0.347,3.069-0.03,6.145-0.159,9.222
	c-0.239,5.656,0.144,11.336,0.216,17.006c0.01,0.849,0.907,2.308-0.665,2.388c-1.148,0.061-3.011,0.71-3.486-1.388
	C64.248,23.969,62.834,17.913,61.433,11.853z"/>
<path fill-rule="evenodd" clip-rule="evenodd" fill="#302E26" d="M79.653,22.156c0.21-5.548,0.97-11.086,0.415-16.656
	c-0.054-0.557,0.157-1.165,0.36-1.71c0.778-2.089-0.777-2.291-1.985-1.86c-0.8,0.285-2.069-0.024-2.56,1.225
	c-0.229,0.585-1.188,0.527-1.652,0.175c-0.621-0.475-0.375-1.301-0.304-1.975c0.092-0.873,0.876-0.791,1.421-0.685
	c3.681,0.7,7.394,0.296,11.09,0.322c1.462,0.01,2.026,0.362,1.933,1.846C88.27,4.51,87.088,3.83,86.2,4.083
	c-1.385,0.399-2.087-2.206-3.4-0.694c-1.062,1.222-0.423,2.885-0.563,4.348c-0.688,7.155,0.619,14.31,0.098,21.477
	c-0.099,1.376-0.218,2.375-1.934,2.321c-1.853-0.059-1.055-1.406-1.049-2.219C79.371,26.928,79.543,24.542,79.653,22.156z"/>
<path fill-rule="evenodd" clip-rule="evenodd" fill="#EA2E26" d="M93.929,0.711c1.288,0.466,1.431,1.384,1.318,2.442
	c-0.814,7.868,0.007,15.765-0.39,23.642c-0.09,1.783,0.663,2.536,2.53,2.515c1.772-0.023,3.469-0.182,5.14-0.836
	c0.803-0.312,1.906-0.847,2.596-0.122c0.717,0.748,0.354,1.929,0.239,2.886c-0.162,1.368-1.406,0.819-2.23,0.898
	c-2.907,0.275-5.728-0.361-8.568-0.822c-1.281-0.216-2.134-0.67-1.999-2.095c0.856-9.231,0.043-18.518,1.037-27.743
	C93.63,1.228,93.804,0.995,93.929,0.711z"/>
<path fill-rule="evenodd" clip-rule="evenodd" fill="#F6F6F5" d="M133.882,16.682c0,2.794,0.064,5.59-0.023,8.381
	c-0.057,1.812-0.562,3.284-2.994,3.321c-2.494,0.034-2.937-1.456-2.953-3.274c-0.051-5.786-0.06-11.573-0.002-17.36
	c0.018-1.913,0.52-3.723,3.066-3.595c2.472,0.12,2.855,1.951,2.891,3.85C133.918,10.896,133.882,13.791,133.882,16.682z"/>
</svg>
