<?xml version="1.0" encoding="utf-8"?>
<!-- Generator: Adobe Illustrator 16.0.0, SVG Export Plug-In . SVG Version: 6.00 Build 0)  -->
<!DOCTYPE svg PUBLIC "-//W3C//DTD SVG 1.1//EN" "http://www.w3.org/Graphics/SVG/1.1/DTD/svg11.dtd">
<svg version="1.1" id="Calque_1" xmlns="http://www.w3.org/2000/svg" xmlns:xlink="http://www.w3.org/1999/xlink" x="0px" y="0px"
	 width="74.705px" height="32.313px" viewBox="0 0 74.705 32.313" enable-background="new 0 0 74.705 32.313" xml:space="preserve">
<path fill-rule="evenodd" clip-rule="evenodd" fill="#0C0C0C" d="M0.058,16.243c0-4.596,0.06-9.194-0.033-13.788
	c-0.029-1.53,0.355-2.121,2.04-2.063c3.4,0.118,6.814,0.13,10.208-0.001c1.832-0.074,1.943,0.781,1.933,2.161
	c-0.012,1.361-0.085,2.425-1.933,2.075c-0.097-0.018-0.208-0.002-0.307-0.002c-7.56,0.181-7.522,0.18-7.046,7.627
	c0.08,1.275,0.401,1.809,1.756,1.695c1.026-0.088,2.063,0.034,3.092-0.029c1.597-0.102,2.624-0.036,2.639,2.112
	c0.016,2.202-0.946,2.35-2.738,2.331c-4.709-0.053-4.711,0.012-4.711,4.436c0,5.316,0.002,5.256,5.677,5.365
	c1.156,0.023,2.789-0.923,3.492,0.787c0.851,2.076-0.099,3.3-2.42,3.31c-3.093,0.014-6.193-0.105-9.279,0.043
	c-1.855,0.091-2.492-0.343-2.422-2.268C0.169,25.44,0.058,20.845,0.058,16.243z"/>
<path fill-rule="evenodd" clip-rule="evenodd" fill="#302E26" d="M22.726,11.304c0.747,4.396,1.492,8.789,2.242,13.194
	c1.117,0.052,1.025-0.725,1.121-1.387c1.019-7.17,2.055-14.337,3.059-21.506c0.365-2.576,2.392-1.246,3.643-1.375
	c1.783-0.184,1.099,1.017,0.931,2.016c-1.565,9.302-3.178,18.6-4.508,27.933c-0.28,1.948-0.998,2.129-2.649,2.127
	c-5.484-0.007-5.454,0.042-6.077-5.486c-0.354-3.153-1.369-6.224-1.322-9.429C19.938,15.133,20.834,12.943,22.726,11.304z"/>
<path fill-rule="evenodd" clip-rule="evenodd" fill="#EA2E26" d="M66.723,13.905c0.546-1.977,1.144-3.942,1.627-5.934
	c0.498-2.071,1.389-3.987,2.195-5.939c0.688-1.667,2.226-1.65,3.355-1.363c1.545,0.384,0.428,1.759,0.217,2.535
	c-0.861,3.197-1.854,6.369-2.95,9.496c-2.026,5.788-3.337,11.669-2.702,17.822c0.238,2.301-1.204,1.994-2.675,2.092
	c-1.667,0.105-2.376-0.312-2.333-2.138c0.124-5.172,0.371-10.402-0.755-15.466c-1.039-4.654-2.726-9.17-4.145-13.801
	c1.595-0.423,2.338-0.078,3.182,1.436C63.73,6.204,64.246,10.26,66.723,13.905z"/>
<path fill-rule="evenodd" clip-rule="evenodd" fill="#EA2E26" d="M54.619,28.586c0.825-0.029,1.666,0.026,2.47-0.109
	c1.284-0.214,2.044,0.067,1.834,1.508c-0.155,1.044,0.664,2.624-1.503,2.604c-3.133-0.035-6.245-0.09-9.361-0.648
	c-1.68-0.298-2.068-1.094-1.995-2.434c0.446-8.389,0.477-16.787,0.438-25.187c-0.003-0.606-0.013-1.226,0.126-1.81
	c0.162-0.709,0.163-1.786,1.175-1.741c1.067,0.053,1.11,1.05,0.999,1.881c-0.882,6.763-0.097,13.549-0.283,20.32
	C48.334,29.825,49.367,30.773,54.619,28.586z"/>
<path fill-rule="evenodd" clip-rule="evenodd" fill="#0C0C0C" d="M22.726,11.304c-1.892,1.64-2.788,3.829-3.562,6.087
	c-0.92-5.321-1.808-10.646-2.793-15.954c-0.197-1.058,0.25-1.336,1.065-1.169c1.416,0.289,3.616-1.097,4.056,1.367
	C22.066,4.829,22.329,8.078,22.726,11.304z"/>
<path fill-rule="evenodd" clip-rule="evenodd" fill="#FCECAF" d="M54.619,28.586c-5.252,2.188-6.285,1.239-6.101-5.616
	c0.797,0.093,1.515-0.163,2.412-1.009C50.456,25.498,50.417,28.35,54.619,28.586z"/>
<path fill-rule="evenodd" clip-rule="evenodd" fill="#302E26" d="M36.688,28.282c0.816,0.733,2.008,1.307,2.212,2.11
	c0.205,0.802-0.91,1.44-1.945,1.351c-1.021-0.087-1.685-0.598-1.66-1.702C35.314,29.096,36.06,28.744,36.688,28.282z"/>
</svg>
