<?xml version="1.0" encoding="utf-8"?>
<!-- Generator: Adobe Illustrator 16.0.0, SVG Export Plug-In . SVG Version: 6.00 Build 0)  -->
<!DOCTYPE svg PUBLIC "-//W3C//DTD SVG 1.1//EN" "http://www.w3.org/Graphics/SVG/1.1/DTD/svg11.dtd">
<svg version="1.1" id="Calque_1" xmlns="http://www.w3.org/2000/svg" xmlns:xlink="http://www.w3.org/1999/xlink" x="0px" y="0px"
	 width="121.355px" height="146.118px" viewBox="0 0 121.355 146.118" enable-background="new 0 0 121.355 146.118"
	 xml:space="preserve">
<path fill-rule="evenodd" clip-rule="evenodd" fill="#2550FC" d="M116.684,66.53c0.29,0.921,1.501,2.189-0.851,2.106
	c0.071-0.77,0.479-1.565-0.189-2.271c-0.71,0.317-0.897,0.879-1.052,1.625c-0.756,3.62-1.637,7.214-2.445,10.824
	c-1.166,5.207-2.1,10.393-5.461,14.967c-2.545,3.463-5.557,6.728-7.029,10.871l0.077-0.018c-0.378,0.09-0.608,0.287-0.55,0.701
	c-0.089,0.117-0.108,0.24-0.058,0.377c-0.651,0.259-0.581,0.889-0.765,1.388c-0.344,0.398-0.687,0.797-1.029,1.195
	c-0.031-0.831-0.078-1.66-0.09-2.491c-0.019-1.427-0.748-0.558-1.265-0.38c-0.345-1.488-1.101-0.53-1.358-0.089
	c-2.107,3.578-4.213,7.161-6.294,10.754c-2.597,4.478-5.409,8.409-10.351,10.888c-3.824,1.92-7.443,4.4-10.111,7.867l-0.178-0.018
	l-0.141,0.108c-1.928-0.556-2.969,1.016-4.371,1.715c-0.342,0.001-0.844-0.21-0.689,0.474l-0.014-0.084
	c-0.678-0.214-0.998,0.18-1.242,0.695c-0.59-0.101-1.282,0.197-1.74-0.418c6.589-6.491,13.179-12.979,19.771-19.471
	c1.066,0.525,0.423-0.413,0.594-0.653c0.176-0.265,0.352-0.524,0.528-0.789c0.149-0.146,0.302-0.293,0.452-0.44
	c0.213-0.204,0.428-0.41,0.641-0.612c0.208-0.209,0.418-0.414,0.625-0.619c0.208-0.201,0.414-0.398,0.621-0.599
	c0.205-0.199,0.413-0.4,0.619-0.602c0.209-0.207,0.416-0.411,0.625-0.619c0.207-0.199,0.414-0.4,0.619-0.601
	c0.132-0.321,1.021-0.395,0.412-0.911c-0.283-0.244-0.678,0.043-0.801,0.446c-0.209,0.199-0.416,0.401-0.622,0.602
	c-0.207,0.2-0.416,0.398-0.622,0.6c-0.207,0.2-0.414,0.4-0.621,0.602c-0.207,0.2-0.414,0.398-0.619,0.598
	c-0.209,0.202-0.414,0.4-0.624,0.599c-0.212,0.197-0.424,0.392-0.636,0.588c-0.207,0.194-0.416,0.393-0.621,0.592
	c-0.33,0.231-0.688,0.432-0.984,0.696c-8.657,7.687-16.852,15.832-25.151,23.871c-1.216,1.179-1.766,1.701-2.472-0.53
	c-0.841-2.661-1.841-5.398-4.101-7.425c1.538,4.138,2.607,8.434,4.981,12.234c-0.194,1.004-0.392,1.987-1.421,0.436
	c-1.244-1.882-2.932-3.323-4.819-4.565c1.128-1.092,0.28-1.998-0.298-2.924c-3.566-5.735-7.064-11.511-10.749-17.176
	c-0.913-1.404-0.881-2.44-0.159-3.825c2.979-5.701,5.88-11.441,8.777-17.182c0.511-1.015,1.146-1.77,2.194-2.369
	c6.923-3.963,13.784-8.027,20.697-12.011c1.188-0.685,2.124-1.402,2.684-2.723c4.004-9.407,8.088-18.783,12.135-28.174
	c0.306-0.711,0.982-1.472,0.434-2.252c-1.986-2.828-4.049-5.604-6.291-8.685c-0.591,1.584,0.379,2.197,0.578,3.027
	c0.828,3.463,3.738,6.498,2.139,10.464c-3.293,8.161-6.407,16.393-10.514,24.223c-0.438,0.831-1,1.541-1.837,1.966
	c-7.229,3.674-13.685,8.535-20.63,12.637c-1.185,0.699-2.055,1.527-2.696,2.735c-3.308,6.212-6.641,12.413-10.082,18.557
	c-0.678,1.212-0.61,2.146-0.135,3.339c1.676,4.233,4.547,7.795,6.871,11.663c0.611,1.022,1.485,1.935,1.172,3.262
	c-3.988-2.938-6.305-7.2-9.259-10.951c-0.186-0.559-0.656-0.5-1.106-0.482c-0.068-0.182-0.137-0.362-0.214-0.542
	c0.461-2.61-1.428-4.476-2.283-6.662c-0.974-2.492-2.755-4.882-1.908-7.667c1.301-4.271,3.021-8.444,5.404-12.247
	c5.431-8.676,13.616-15.791,15.785-26.308c0.54-0.08,0.978-0.317,1.175-0.833c2.049-5.367,4.618-10.527,4.357-16.563
	c-0.163-3.763-1.022-7.477-0.736-11.255c0.048-0.652-0.18-1.174-0.895-1.38c-0.104-0.592-0.28-1.182-0.298-1.776
	c-0.029-0.965-0.562-2.17,0.378-2.815c0.983-0.675,1.934,0.261,2.831,0.689c2.402,1.149,4.708,2.547,7.207,3.429
	c1.929,0.676,4.098,1.908,6.169,0.622c4.79-2.973,5.694-5.47,4.281-10.844c-0.05-0.193-0.168-0.379-0.179-0.573
	c-0.382-6.046-3.796-9.208-9.849-10.345c-2.26-0.424-4.063-0.46-6.093,0.698c-5.822,3.325-11.523,6.996-17.704,9.543
	c-6.585,2.716-11.344,7.016-15.336,12.465c-0.775,1.06-1.572,2.114-2.474,3.069c-0.882,0.936-1.705,2.107-3.333,1.777
	c0.361-0.478,0.719-0.956,1.077-1.433c0.247-0.305,0.5-0.604,0.082-0.965c0.146,0.011,0.292,0.022,0.437,0.032
	c0-0.085-0.004-0.171-0.007-0.256c-0.131,0.095-0.262,0.191-0.391,0.288c-0.25,0.154-0.5,0.312-0.749,0.468
	c-1.954-0.505-0.415-1.394-0.022-1.635c1.903-1.169,2.632-3.257,4.139-4.698c2.791-2.664,3.323-6.28,4.5-9.628
	c0.198-0.562,0.402-1.261-0.079-1.711c-0.562-0.524-1.128,0.143-1.674,0.293c-2.179,0.604-3.295,2.181-3.87,4.758
	c-1.018-2.176-0.233-3.486,0.753-4.705c0.571-0.702,1.317-1.268,1.953-1.924c2.009-2.077,1.866-2.619-0.864-3.527
	c-0.36-0.12-0.666-0.394-1.083-0.65c4.3-3.243,9.355-5.093,13.905-8.957c-4.191,0.43-7.76,0.794-11.335,1.159
	c3.309-2.295,7.257-2.834,10.959-3.974c6.171-1.903,12.495-3.354,18.618-5.383c2.931-0.974,5.713,0.317,8.54-0.321
	c-0.051-2-2.817-1.542-3.193-3.579c6.756,1.513,13.524,2.38,19.858,4.953c2.264,0.919,2.974,2.908,3.402,4.981
	c0.43,2.07,1.231,2.751,3.586,2.058c4.865-1.429,8.954,0.909,13.668,3.242c-2.691,0.688-4.805,0.282-6.866,0.445
	c-0.728,0.057-1.869-0.477-2.061,0.655c-0.171,1.015,0.969,1.14,1.684,1.442c1.028,0.436,2.146,0.7,3.141,1.198
	c2.278,1.144,4.882,1.646,5.807,4.737c0.802,2.683,3.571,4.354,5.565,6.267c5.031,4.829,8.453,11.506,15.801,13.991
	c-3.342-1.406-6.682-2.813-10.707-4.507c3.949,11.169,10.984,21.046,7.926,32.919c-2.271-1.748,1.52-4.726-1.076-6.595
	c-0.303-0.19-0.801-0.593-0.87-0.53C116.168,65.651,116.494,66.103,116.684,66.53z M89.846,107.716c0.207-0.198,0.415-0.4,0.621-0.6
	c0.209-0.199,0.414-0.402,0.62-0.6c0.207-0.203,0.414-0.401,0.622-0.602c0.205-0.201,0.41-0.4,0.619-0.601
	c0.748-0.204,1.786-0.143,1.439-1.438c-0.774,0.248-1.138,0.813-1.486,1.394c-0.207,0.202-0.412,0.398-0.62,0.599
	c-0.207,0.201-0.413,0.401-0.619,0.604c-0.207,0.199-0.413,0.399-0.62,0.601c-0.206,0.2-0.412,0.4-0.617,0.604
	c-0.041,0.09-0.082,0.183-0.125,0.274C89.735,107.87,89.791,107.794,89.846,107.716z M86.753,45.777
	c-0.228-0.571-0.601-0.671-1.11-0.324c0.262,0.242,0.522,0.484,0.783,0.726c4.777,3.253,8.852,6.912,10.638,12.682
	C98.346,62.998,97.191,70.906,94,73.97c-6.089,5.85-12.393,11.498-18.239,17.561c-4.404,4.567-9.255,8.223-15.632,9.355
	c-7.107,1.263-10.841,5.766-14.77,11.267c-4.525,6.334-5.508,12.076-2.032,18.739c1.071,2.052,1.612,4.416,3.718,6.904
	c0.167-2.747-0.865-4.208-1.426-5.756c-1.261-3.476-4.018-7.009-3.698-10.29c0.319-3.274,3.958-6.128,5.586-9.426
	c2.582-5.219,6.503-8.044,12.434-9.115c3.305-0.597,7.016-1.04,9.735-3.401c8.755-7.621,17.334-15.429,26.193-22.934
	c3.637-3.077,4.646-7.291,6.303-11.24c1.035-2.471-1.237-4.466-1.989-6.647c-1.046-3.032-2.202-6.423-4.429-8.573
	C93.451,48.19,89.81,47.269,86.753,45.777z M74.77,43.012c-0.061-0.036-0.141-0.113-0.177-0.096
	c-0.077,0.033-0.132,0.116-0.196,0.181c0.123,0.038,0.244,0.074,0.367,0.112C74.764,43.143,74.764,43.077,74.77,43.012z"/>
<path fill-rule="evenodd" clip-rule="evenodd" fill="#FBD7FE" d="M46.573,70.438c-2.169,10.517-10.354,17.632-15.785,26.308
	c-2.383,3.803-4.104,7.977-5.404,12.247c-0.847,2.785,0.934,5.175,1.908,7.667c0.855,2.187,2.744,4.052,2.283,6.662
	c-0.209-0.017-0.418-0.03-0.626-0.049c-0.048-1.082-0.6-1.689-1.749-1.73l-0.04-0.039c-0.059-1.117-0.662-1.709-1.821-1.764
	l-0.04-0.039c0.003-0.776-0.394-1.168-1.198-1.162l-0.042-0.044c0.03-0.487-0.089-0.906-0.583-1.139l-0.055-0.057
	c-0.217-0.553-0.613-0.936-1.183-1.147l-0.056-0.056c-0.211-0.562-0.606-0.938-1.183-1.146l-0.057-0.051
	c-0.475-0.949-1.261-1.623-2.119-2.233c-3.156-2.348-4.031-5.042-2.231-8.779c1.945-4.037,3.313-8.341,4.911-12.536
	c0.365-0.961,0.675-1.849,1.964-2.029c1.928-0.264,3.832-0.883,5.76-0.935c3.07-0.087,4.888-1.563,5.998-4.155
	c0.47,0.056,0.736-0.088,0.622-0.602c0.528,0.081,0.708-0.147,0.593-0.633c0.29,0.097,0.55,0.159,0.41-0.297
	c-0.125,0.115-0.247,0.231-0.371,0.345c-0.196,0.215-0.391,0.422-0.584,0.638c-0.208,0.201-0.415,0.401-0.621,0.602
	c-2.985,2.938-6.9,3.534-10.842,4.302c-1.749,0.341-3.701,0.134-5.292,1.237c-1.409,0.979-2.583,3.215-4.031,2.905
	c-1.546-0.33-2.709-2.304-4.064-3.533c-0.364-0.33-0.816-0.57-1.23-0.853c-0.265-0.251-0.531-0.504-0.794-0.757
	c-0.337-3.248-0.768-6.491-0.983-9.745c-0.237-3.593-1.83-6.621-3.81-9.533l0.037,0.064c-0.298-1.498,0.038-2.644,1.51-3.529
	c1.386-0.836,2.588-1.962,3.86-2.975c1.343-1.07,1.166-1.977-0.348-2.711c-1.868-0.902-3.74-1.806-5.729-2.765
	c2.074-2.125,4.769-3.009,6.304-5.205l-0.065,0.051c1.136-0.249,2.035-0.803,2.545-1.854l-0.064,0.053
	c0.835-0.139,1.521-0.493,1.926-1.252l-0.062,0.055c0.429-0.069,0.658-0.31,0.674-0.736c0.42-0.385,0.84-0.77,1.26-1.155
	c1.628,0.33,2.452-0.842,3.333-1.777c0.902-0.955,1.699-2.01,2.474-3.069c3.993-5.449,8.751-9.749,15.336-12.465
	c6.181-2.547,11.882-6.219,17.704-9.543c2.03-1.158,3.833-1.122,6.093-0.698c6.053,1.137,9.467,4.299,9.849,10.345
	c0.011,0.194,0.129,0.38,0.179,0.573c1.413,5.374,0.509,7.871-4.281,10.844c-2.071,1.286-4.24,0.054-6.169-0.622
	c-2.499-0.882-4.804-2.279-7.207-3.429c-0.897-0.429-1.848-1.364-2.831-0.689c-0.94,0.645-0.407,1.85-0.378,2.815
	c0.019,0.594,0.194,1.184,0.298,1.776c-0.094,1.188-0.314,2.381-0.262,3.563C50.61,53.004,50.186,61.925,46.573,70.438z
	 M42.923,42.839c-5.014,0.438-11.008-2.932-14.417,3.696C33.622,46.361,38.979,47.576,42.923,42.839z M27.928,75.75
	c-6.089-0.465-11.288-0.863-16.483-1.262C16.589,77.529,22.276,77.969,27.928,75.75z"/>
<path fill-rule="evenodd" clip-rule="evenodd" fill="#F6F6F5" d="M40.153,135.297c0.313-1.327-0.561-2.239-1.172-3.262
	c-2.324-3.868-5.194-7.43-6.871-11.663c-0.475-1.193-0.543-2.127,0.135-3.339c3.441-6.144,6.774-12.345,10.082-18.557
	c0.641-1.208,1.511-2.036,2.696-2.735c6.946-4.102,13.401-8.963,20.63-12.637c0.837-0.425,1.399-1.135,1.837-1.966
	c4.106-7.83,7.221-16.062,10.514-24.223c1.6-3.966-1.311-7.001-2.139-10.464c-0.199-0.83-1.169-1.443-0.578-3.027
	c2.242,3.081,4.305,5.856,6.291,8.685c0.549,0.78-0.128,1.541-0.434,2.252c-4.047,9.391-8.131,18.767-12.135,28.174
	c-0.56,1.32-1.496,2.038-2.684,2.723c-6.913,3.983-13.774,8.048-20.697,12.011c-1.048,0.6-1.683,1.354-2.194,2.369
	c-2.896,5.74-5.797,11.48-8.777,17.182c-0.723,1.385-0.754,2.421,0.159,3.825c3.685,5.665,7.182,11.44,10.749,17.176
	c0.578,0.926,1.426,1.832,0.298,2.924C43.525,139.358,42.69,136.49,40.153,135.297z"/>
<path fill-rule="evenodd" clip-rule="evenodd" fill="#2550FC" d="M35.224,84.23c-1.109,2.592-2.928,4.068-5.998,4.155
	c-1.928,0.052-3.832,0.671-5.76,0.935c-1.289,0.181-1.599,1.068-1.964,2.029c-1.599,4.195-2.966,8.499-4.911,12.536
	c-1.8,3.737-0.925,6.432,2.227,8.777c-1.167,0.853-0.284,1.509,0.224,2.2c0.02,0.856,0.398,1.748-0.552,2.885
	c-3.667-4.373-7.117-8.444-5.708-14.696c0.477-2.116,0.858-4.176,1.899-6.095c0.804-1.484,0.445-2.716-0.733-3.922
	c-1.454-1.497-3.236-2.739-4.137-4.693c0.416,0.282,0.868,0.522,1.232,0.853c1.355,1.229,2.519,3.203,4.064,3.533
	c1.447,0.31,2.622-1.927,4.031-2.905c1.59-1.104,3.542-0.896,5.292-1.237c3.942-0.768,7.857-1.363,10.842-4.302L35.224,84.23z"/>
<path fill-rule="evenodd" clip-rule="evenodd" fill="#2550FC" d="M9.859,51.187c-1.535,2.196-4.23,3.08-6.304,5.205
	c1.989,0.959,3.861,1.862,5.729,2.765c1.514,0.734,1.691,1.641,0.348,2.711c-1.272,1.013-2.474,2.139-3.86,2.975
	c-1.472,0.886-1.808,2.031-1.51,3.529c-2.141-2.483-2.92-5.59-4.104-8.502c-0.497-1.224,0.248-2.585,1.115-3.188
	C4.06,54.75,6.536,52.33,9.859,51.187z"/>
<path fill-rule="evenodd" clip-rule="evenodd" fill="#F6F6F5" d="M79.26,117.848c-6.592,6.491-13.182,12.979-19.768,19.468
	c-0.587,1.072-1.584,1.755-2.518,2.497c-0.323,0.308-0.648,0.61-0.972,0.916c-0.064,0.141-0.163,0.255-0.294,0.347
	c-0.191,0.278-0.382,0.556-0.573,0.832l-0.058,0.064c-0.37,0.005-0.565,0.175-0.562,0.544l-0.06,0.06
	c-0.368,0.003-0.553,0.187-0.562,0.541l-0.056,0.056c-0.368,0.007-0.555,0.193-0.566,0.547l-0.054,0.053
	c-0.188,0.181-0.376,0.364-0.563,0.549l-0.058,0.055c-0.361,0.01-0.573,0.162-0.557,0.535l0.065-0.036
	c-2.375-3.801-3.444-8.097-4.982-12.234c2.26,2.026,3.26,4.764,4.101,7.425c0.706,2.231,1.256,1.709,2.472,0.53
	c8.299-8.039,16.494-16.185,25.151-23.871c0.297-0.265,0.654-0.465,0.984-0.696c0.184,0.126,0.368,0.252,0.552,0.378
	c-0.177,0.265-0.353,0.524-0.528,0.789C79.654,117.413,79.457,117.632,79.26,117.848z"/>
<path fill-rule="evenodd" clip-rule="evenodd" fill="#AEFAFD" d="M67.863,134.846c2.668-3.467,6.287-5.947,10.111-7.867
	c4.941-2.479,7.754-6.41,10.351-10.888c2.081-3.593,4.187-7.176,6.294-10.754c0.258-0.441,1.014-1.399,1.358,0.089
	c-3.367,7.072-7.212,13.988-12.14,20.051c-2.578,3.163-7.254,4.766-11.065,6.937C71.198,133.311,69.828,134.666,67.863,134.846z"/>
<path fill-rule="evenodd" clip-rule="evenodd" fill="#F6F6F5" d="M99.656,104.653c1.473-4.144,4.484-7.408,7.029-10.871
	c3.361-4.574,4.295-9.76,5.461-14.967c0.809-3.61,1.689-7.204,2.445-10.824c0.154-0.746,0.342-1.308,1.052-1.625
	c0.669,0.705,0.261,1.501,0.189,2.271c0-0.003,0.067-0.029,0.067-0.029c-0.988,1.239-0.854,2.665-0.705,4.092
	c-0.097,0.633-0.197,1.269-0.293,1.901c-1.062,0.4-0.644,1.349-0.803,2.071c-0.936,4.262-1.112,8.662-2.5,12.84
	c-0.265,0.277-0.528,0.554-0.79,0.828c-0.579,0.557-1.014,1.188-1.109,1.997c-0.224,0.24-0.446,0.48-0.669,0.722
	c-0.268,0.267-0.535,0.534-0.805,0.798c-0.145,0.333-0.289,0.664-0.436,0.999c-0.279,0.271-0.561,0.537-0.84,0.805
	c-0.131,0.327-0.261,0.656-0.392,0.989c-0.521,0.342-0.751,0.798-0.592,1.406l-0.03,0.044c-0.816-0.018-1.236,0.35-1.195,1.162
	l-0.047,0.053c-0.826,0.308-1.246,0.878-1.194,1.748l-0.046,0.053c-0.883,0.274-1.163,0.938-1.201,1.758l-0.033,0.038
	c-0.9,0.268-1.179,0.931-1.206,1.76l-0.037,0.042C100.536,104.691,100.096,104.673,99.656,104.653z"/>
<path fill-rule="evenodd" clip-rule="evenodd" fill="#2550FC" d="M4.226,68.307c1.979,2.912,3.573,5.94,3.81,9.533
	c0.215,3.254,0.646,6.497,0.983,9.745c-1.104-1.797-1.825-3.702-1.582-5.828c0.434-3.806-0.697-7.263-2.424-10.597
	C4.547,70.257,4.144,69.348,4.226,68.307z"/>
<path fill-rule="evenodd" clip-rule="evenodd" fill="#AEFAFD" d="M99.656,104.653c0.439,0.02,0.88,0.038,1.321,0.06
	c-1.13,3.92-4.14,6.674-6.546,9.844c0.883-2.145,0.029-5.004,2.9-6.26c0.343-0.398,0.686-0.797,1.031-1.195
	c0.668-0.25,0.785-0.779,0.763-1.388c-0.051-0.137-0.031-0.26,0.058-0.377c0.183-0.236,0.366-0.468,0.55-0.701L99.656,104.653z"/>
<path fill-rule="evenodd" clip-rule="evenodd" fill="#2550FC" d="M111.6,89.512c1.388-4.178,1.564-8.578,2.5-12.84
	c0.159-0.723-0.259-1.671,0.803-2.071c-0.699,4.526-1.412,9.049-2.078,13.575C112.709,88.947,112.592,89.568,111.6,89.512z"/>
<path fill-rule="evenodd" clip-rule="evenodd" fill="#AEFAFD" d="M56.974,139.813c0.934-0.742,1.931-1.425,2.518-2.497
	c0.455,0.618,1.146,0.32,1.737,0.421c0.154,2.811-2.448,2.248-3.951,3.027C57.177,140.445,57.075,140.131,56.974,139.813z"/>
<path fill-rule="evenodd" clip-rule="evenodd" fill="#AEFAFD" d="M63.174,136.651c1.402-0.699,2.443-2.271,4.371-1.715
	c-1.47,1.203-2.508,3.386-5.074,2.104c0,0,0.014,0.084,0.014,0.081C62.714,136.969,62.942,136.808,63.174,136.651z"/>
<path fill-rule="evenodd" clip-rule="evenodd" fill="#AEFAFD" d="M19.042,114.863c-0.508-0.691-1.392-1.348-0.224-2.2
	c0.863,0.612,1.649,1.286,2.124,2.235C20.31,114.884,19.676,114.876,19.042,114.863z"/>
<path fill-rule="evenodd" clip-rule="evenodd" fill="#2550FC" d="M115.195,72.699c-0.148-1.427-0.283-2.853,0.705-4.092
	C115.665,69.972,115.432,71.335,115.195,72.699z"/>
<path fill-rule="evenodd" clip-rule="evenodd" fill="#2550FC" d="M12.339,49.383c-0.51,1.052-1.409,1.605-2.545,1.854
	C10.095,49.915,11.235,49.676,12.339,49.383z"/>
<path fill-rule="evenodd" clip-rule="evenodd" fill="#AEFAFD" d="M27.199,121.542c1.149,0.041,1.701,0.648,1.749,1.73
	C28.213,122.84,27.521,122.365,27.199,121.542z"/>
<path fill-rule="evenodd" clip-rule="evenodd" fill="#AEFAFD" d="M25.338,119.739c1.159,0.055,1.762,0.646,1.821,1.764
	C26.325,121.137,25.727,120.54,25.338,119.739z"/>
<path fill-rule="evenodd" clip-rule="evenodd" fill="#AEFAFD" d="M101.015,104.671c0.027-0.829,0.306-1.492,1.206-1.76
	C102.349,103.838,102.227,104.605,101.015,104.671z"/>
<path fill-rule="evenodd" clip-rule="evenodd" fill="#AEFAFD" d="M103.501,101.063c-0.052-0.87,0.368-1.44,1.194-1.748
	C104.767,100.198,104.838,101.082,103.501,101.063z"/>
<path fill-rule="evenodd" clip-rule="evenodd" fill="#2550FC" d="M14.201,48.184c-0.405,0.759-1.091,1.113-1.926,1.252
	C12.486,48.397,13.367,48.322,14.201,48.184z"/>
<path fill-rule="evenodd" clip-rule="evenodd" fill="#AEFAFD" d="M102.254,102.873c0.038-0.82,0.318-1.483,1.201-1.758
	C103.596,102.047,103.477,102.816,102.254,102.873z"/>
<path fill-rule="evenodd" clip-rule="evenodd" fill="#AEFAFD" d="M104.742,99.262c-0.041-0.813,0.379-1.18,1.195-1.162
	C105.862,98.798,105.687,99.4,104.742,99.262z"/>
<path fill-rule="evenodd" clip-rule="evenodd" fill="#AEFAFD" d="M29.788,123.863c0.45-0.018,0.92-0.076,1.106,0.482
	c-0.135,0.362-0.417,0.679-0.772,0.446C29.897,124.643,29.891,124.182,29.788,123.863z"/>
<path fill-rule="evenodd" clip-rule="evenodd" fill="#AEFAFD" d="M109.7,92.337c0.096-0.809,0.53-1.44,1.109-1.997
	C111.013,91.307,110.75,92.025,109.7,92.337z"/>
<path fill-rule="evenodd" clip-rule="evenodd" fill="#AEFAFD" d="M22.238,116.151c0.569,0.212,0.965,0.595,1.183,1.147
	C22.575,117.351,22.182,116.967,22.238,116.151z"/>
<path fill-rule="evenodd" clip-rule="evenodd" fill="#AEFAFD" d="M24.101,118.538c0.804-0.006,1.201,0.386,1.198,1.162
	C24.716,119.491,24.316,119.103,24.101,118.538z"/>
<path fill-rule="evenodd" clip-rule="evenodd" fill="#AEFAFD" d="M20.999,114.949c0.577,0.208,0.972,0.585,1.183,1.146
	C21.341,116.145,20.939,115.771,20.999,114.949z"/>
<path fill-rule="evenodd" clip-rule="evenodd" fill="#AEFAFD" d="M105.968,98.056c-0.159-0.608,0.071-1.064,0.592-1.406
	C106.695,97.249,106.649,97.775,105.968,98.056z"/>
<path fill-rule="evenodd" clip-rule="evenodd" fill="#2550FC" d="M56.974,139.813c0.102,0.318,0.204,0.633,0.304,0.951
	c-0.442,0.512-0.885,1.054-1.276-0.035C56.326,140.423,56.65,140.12,56.974,139.813z"/>
<path fill-rule="evenodd" clip-rule="evenodd" fill="#AEFAFD" d="M23.476,117.355c0.494,0.232,0.613,0.651,0.583,1.139
	C23.528,118.276,23.399,117.862,23.476,117.355z"/>
<path fill-rule="evenodd" clip-rule="evenodd" fill="#AEFAFD" d="M106.951,95.66c0.279-0.268,0.561-0.534,0.84-0.805
	C107.791,95.396,107.547,95.7,106.951,95.66z"/>
<path fill-rule="evenodd" clip-rule="evenodd" fill="#2550FC" d="M14.813,47.502c-0.016,0.427-0.245,0.667-0.674,0.736
	C14.056,47.729,14.369,47.559,14.813,47.502z"/>
<path fill-rule="evenodd" clip-rule="evenodd" fill="#AEFAFD" d="M108.227,93.856c0.27-0.264,0.537-0.531,0.805-0.798
	C109.037,93.579,108.795,93.874,108.227,93.856z"/>
<path fill-rule="evenodd" clip-rule="evenodd" fill="#AEFAFD" d="M55.134,141.907c0.191-0.276,0.382-0.554,0.573-0.832
	C55.81,141.541,55.667,141.853,55.134,141.907z"/>
<path fill-rule="evenodd" clip-rule="evenodd" fill="#AEFAFD" d="M54.515,142.516c-0.003-0.369,0.191-0.539,0.562-0.544
	C55.109,142.366,54.921,142.546,54.515,142.516z"/>
<path fill-rule="evenodd" clip-rule="evenodd" fill="#AEFAFD" d="M53.893,143.116c0.008-0.354,0.193-0.538,0.562-0.541
	C54.481,142.96,54.289,143.139,53.893,143.116z"/>
<path fill-rule="evenodd" clip-rule="evenodd" fill="#AEFAFD" d="M53.271,143.719c0.011-0.354,0.198-0.54,0.566-0.547
	C53.858,143.558,53.67,143.738,53.271,143.719z"/>
<path fill-rule="evenodd" clip-rule="evenodd" fill="#AEFAFD" d="M52.654,144.32c0.188-0.185,0.376-0.368,0.563-0.549
	C53.232,144.15,53.06,144.349,52.654,144.32z"/>
<path fill-rule="evenodd" clip-rule="evenodd" fill="#AEFAFD" d="M52.039,144.91c-0.016-0.373,0.196-0.525,0.557-0.535
	C52.626,144.765,52.431,144.934,52.039,144.91z"/>
<path fill-rule="evenodd" clip-rule="evenodd" fill="#F6F6F5" d="M86.753,45.777c3.057,1.491,6.698,2.413,9.001,4.636
	c2.227,2.15,3.383,5.541,4.429,8.573c0.752,2.182,3.024,4.177,1.989,6.647c-1.656,3.949-2.666,8.163-6.303,11.24
	c-8.859,7.505-17.438,15.313-26.193,22.934c-2.719,2.361-6.43,2.805-9.735,3.401c-5.93,1.071-9.852,3.896-12.434,9.115
	c-1.629,3.298-5.267,6.151-5.586,9.426c-0.319,3.281,2.438,6.814,3.698,10.29c0.562,1.548,1.593,3.009,1.426,5.756
	c-2.106-2.488-2.647-4.853-3.718-6.904c-3.477-6.663-2.494-12.405,2.032-18.739c3.929-5.501,7.663-10.004,14.77-11.267
	c6.377-1.133,11.228-4.788,15.632-9.355C81.607,85.468,87.911,79.819,94,73.97c3.191-3.063,4.346-10.972,3.063-15.109
	c-1.786-5.77-5.86-9.429-10.638-12.682C86.541,46.047,86.65,45.914,86.753,45.777z"/>
<path fill-rule="evenodd" clip-rule="evenodd" fill="#244FFC" d="M46.573,70.438c3.613-8.513,4.037-17.434,3.64-26.468
	c-0.052-1.183,0.168-2.375,0.262-3.563c0.715,0.206,0.943,0.728,0.895,1.38c-0.286,3.778,0.573,7.492,0.736,11.255
	c0.26,6.036-2.308,11.196-4.357,16.563C47.551,70.12,47.113,70.357,46.573,70.438z"/>
<path fill-rule="evenodd" clip-rule="evenodd" fill="#244FFC" d="M92.281,105.27c0.349-0.581,0.712-1.146,1.486-1.394
	c0.347,1.296-0.691,1.234-1.439,1.438L92.281,105.27z"/>
<path fill-rule="evenodd" clip-rule="evenodd" fill="#F6F6F5" d="M99.126,105.714c0.022,0.608-0.095,1.138-0.763,1.388
	C98.545,106.603,98.475,105.973,99.126,105.714z"/>
<path fill-rule="evenodd" clip-rule="evenodd" fill="#F6F6F5" d="M84.195,111.849c0.123-0.403,0.518-0.69,0.801-0.446
	c0.608,0.517-0.28,0.59-0.412,0.911C84.474,112.145,84.344,111.99,84.195,111.849z"/>
<path fill-rule="evenodd" clip-rule="evenodd" fill="#244FFC" d="M79.26,117.848c0.197-0.216,0.395-0.435,0.594-0.653
	C79.683,117.435,80.326,118.373,79.26,117.848z"/>
<path fill-rule="evenodd" clip-rule="evenodd" fill="#F6F6F5" d="M86.426,46.179c-0.261-0.241-0.521-0.483-0.783-0.726
	c0.51-0.347,0.883-0.247,1.11,0.324C86.65,45.914,86.541,46.047,86.426,46.179z"/>
<path fill-rule="evenodd" clip-rule="evenodd" fill="#FEFEFE" d="M17.232,43.948c0.418,0.361,0.165,0.661-0.082,0.966
	c-0.208-0.146-0.418-0.288-0.628-0.433c0.25-0.156,0.499-0.313,0.749-0.468L17.232,43.948z"/>
<path fill-rule="evenodd" clip-rule="evenodd" fill="#FEFEFE" d="M17.271,44.014c0.129-0.097,0.26-0.193,0.391-0.288
	c0.003,0.085,0.006,0.171,0.007,0.256c-0.145-0.01-0.291-0.021-0.437-0.032C17.232,43.948,17.271,44.014,17.271,44.014z"/>
<path fill-rule="evenodd" clip-rule="evenodd" fill="#F6F6F5" d="M99.733,104.636c-0.184,0.233-0.367,0.465-0.55,0.701
	C99.125,104.923,99.355,104.726,99.733,104.636z"/>
<path fill-rule="evenodd" clip-rule="evenodd" fill="#F6F6F5" d="M74.767,43.012c-0.003,0.065-0.003,0.131-0.003,0.197
	c-0.123-0.038-0.244-0.074-0.367-0.112c0.064-0.064,0.119-0.147,0.196-0.181C74.629,42.898,74.709,42.976,74.767,43.012z"/>
<path fill-rule="evenodd" clip-rule="evenodd" fill="#244FFC" d="M92.328,105.314c-0.209,0.2-0.414,0.399-0.619,0.601l-0.048-0.047
	c0.208-0.2,0.413-0.396,0.62-0.599L92.328,105.314z"/>
<path fill-rule="evenodd" clip-rule="evenodd" fill="#244FFC" d="M91.709,105.915c-0.208,0.2-0.415,0.398-0.622,0.6l-0.046-0.043
	c0.207-0.202,0.413-0.402,0.62-0.604L91.709,105.915z"/>
<path fill-rule="evenodd" clip-rule="evenodd" fill="#244FFC" d="M90.422,107.072c0.207-0.201,0.413-0.401,0.62-0.601
	c-0.001,0,0.045,0.043,0.045,0.043c-0.206,0.199-0.411,0.402-0.62,0.602L90.422,107.072z"/>
<path fill-rule="evenodd" clip-rule="evenodd" fill="#244FFC" d="M89.805,107.674c0.205-0.201,0.411-0.401,0.617-0.602l0.045,0.044
	c-0.206,0.199-0.414,0.401-0.621,0.6L89.805,107.674z"/>
<path fill-rule="evenodd" clip-rule="evenodd" fill="#244FFC" d="M89.846,107.716c-0.055,0.078-0.11,0.154-0.166,0.235
	c0.043-0.092,0.084-0.185,0.125-0.274C89.805,107.674,89.846,107.716,89.846,107.716z"/>
<path fill-rule="evenodd" clip-rule="evenodd" fill="#F6F6F5" d="M84.584,112.313c-0.205,0.2-0.412,0.401-0.619,0.601
	c-0.131-0.152-0.26-0.308-0.392-0.464c0.206-0.2,0.413-0.402,0.622-0.602C84.344,111.99,84.474,112.145,84.584,112.313z"/>
<path fill-rule="evenodd" clip-rule="evenodd" fill="#F6F6F5" d="M83.965,112.914c-0.209,0.208-0.416,0.412-0.625,0.619
	c-0.129-0.161-0.258-0.323-0.389-0.483c0.206-0.201,0.415-0.399,0.622-0.6C83.705,112.606,83.834,112.762,83.965,112.914z"/>
<path fill-rule="evenodd" clip-rule="evenodd" fill="#F6F6F5" d="M83.34,113.533c-0.206,0.201-0.414,0.402-0.619,0.602
	c-0.131-0.161-0.26-0.323-0.391-0.483c0.207-0.201,0.414-0.401,0.621-0.602C83.082,113.21,83.211,113.372,83.34,113.533z"/>
<path fill-rule="evenodd" clip-rule="evenodd" fill="#F6F6F5" d="M82.721,114.135c-0.207,0.2-0.413,0.397-0.621,0.599
	c-0.129-0.16-0.259-0.324-0.389-0.484c0.205-0.199,0.412-0.397,0.619-0.598C82.461,113.812,82.59,113.974,82.721,114.135z"/>
<path fill-rule="evenodd" clip-rule="evenodd" fill="#F6F6F5" d="M82.1,114.733c-0.207,0.205-0.417,0.41-0.625,0.616
	c-0.129-0.165-0.26-0.333-0.388-0.502c0.21-0.198,0.415-0.396,0.624-0.599C81.841,114.409,81.971,114.573,82.1,114.733z"/>
<path fill-rule="evenodd" clip-rule="evenodd" fill="#F6F6F5" d="M80.451,115.436c0.212-0.196,0.424-0.391,0.636-0.588
	c0.128,0.169,0.259,0.337,0.388,0.502c-0.213,0.205-0.428,0.411-0.641,0.615C80.707,115.789,80.578,115.611,80.451,115.436z"/>
<path fill-rule="evenodd" clip-rule="evenodd" fill="#F6F6F5" d="M80.834,115.965c-0.15,0.147-0.303,0.295-0.452,0.44
	c-0.184-0.126-0.368-0.252-0.552-0.378c0.205-0.199,0.414-0.397,0.621-0.592C80.578,115.611,80.707,115.789,80.834,115.965z"/>
<path fill-rule="evenodd" clip-rule="evenodd" fill="#FEFEFE" d="M63.174,136.651c-0.231,0.156-0.46,0.317-0.689,0.471
	C62.33,136.441,62.832,136.652,63.174,136.651z"/>
<path fill-rule="evenodd" clip-rule="evenodd" fill="#2550FC" d="M42.923,42.839c-3.945,4.737-9.302,3.522-14.417,3.696
	C31.915,39.907,37.91,43.276,42.923,42.839z"/>
<path fill-rule="evenodd" clip-rule="evenodd" fill="#2550FC" d="M27.928,75.75c-5.652,2.219-11.339,1.779-16.483-1.262
	C16.64,74.887,21.838,75.285,27.928,75.75z"/>
<path fill-rule="evenodd" clip-rule="evenodd" fill="#2550FC" d="M35.846,83.629c0.115,0.514-0.151,0.657-0.622,0.602l0.048,0.053
	c0.206-0.2,0.414-0.4,0.621-0.602L35.846,83.629z"/>
<path fill-rule="evenodd" clip-rule="evenodd" fill="#2550FC" d="M36.437,82.994c0.117,0.487-0.063,0.716-0.591,0.635l0.048,0.053
	c0.193-0.216,0.388-0.423,0.584-0.638L36.437,82.994z"/>
<path fill-rule="evenodd" clip-rule="evenodd" fill="#2550FC" d="M36.478,83.044c0.124-0.113,0.246-0.229,0.371-0.345
	c0.14,0.456-0.12,0.394-0.41,0.297C36.437,82.994,36.478,83.044,36.478,83.044z"/>
</svg>
