<?xml version="1.0" encoding="utf-8"?>
<!-- Generator: Adobe Illustrator 16.0.0, SVG Export Plug-In . SVG Version: 6.00 Build 0)  -->
<!DOCTYPE svg PUBLIC "-//W3C//DTD SVG 1.1//EN" "http://www.w3.org/Graphics/SVG/1.1/DTD/svg11.dtd">
<svg version="1.1" id="Calque_1" xmlns="http://www.w3.org/2000/svg" xmlns:xlink="http://www.w3.org/1999/xlink" x="0px" y="0px"
	 width="102.098px" height="147.144px" viewBox="0 0 102.098 147.144" enable-background="new 0 0 102.098 147.144"
	 xml:space="preserve">
<path fill-rule="evenodd" clip-rule="evenodd" fill="#02CF2B" d="M14.715,27.591c5.432-8.994,10.825-18.007,16.67-26.764
	c0.815-1.216,1.534-0.767,2.249-0.649c14.28,2.359,28.556,4.771,42.828,7.184c1.655,0.28,2.926,1.002,3.885,2.501
	c6.128,9.579,12.305,19.125,18.563,28.622c1.775,2.696,1.741,5.698,2.016,8.639c0.483,5.174,0.766,10.366,1.101,15.552
	c0.052,0.792,0.184,1.696-0.125,2.378c-4.415,9.752-7.675,19.96-12.426,29.58c-0.114,0.235-0.349,0.418-0.767,0.9
	c-0.26-3.387,1.568-6.225,0.713-9.467c-12.959,20.276-26.449,40.225-38.636,61.075c-1.757-3.61-3.647-7.507-5.542-11.401
	c-0.073-0.18-0.146-0.358-0.22-0.536c-0.182-0.362-0.36-0.723-0.541-1.082c-0.006-3.886-1.732-7.205-3.682-10.451
	c0.209-0.835-0.183-1.552-0.454-2.309c-4.047-11.382-7.846-22.856-12.238-34.11c-1.714-4.397-1.854-8.066,0.169-12.389
	c1.684-3.588,3.622-6.448,7.141-8.527c4.127-2.438,7.968-5.329,11.958-7.988c0.875-0.584,1.491-1.209,1.809-2.27
	c2.648-8.878,5.094-17.804,7.071-26.846c0.141-0.633,0.434-1.313-0.6-1.714c-1.692-0.661-0.884-1.565,0.059-2.107
	c4.396-2.521,4.633-5.957,2.58-10.026c-0.396-0.788-0.473-1.723-0.73-2.581c-0.688-2.291-6.876-5.974-8.891-4.827
	c-5.845,3.328-12.589,4.645-18.328,8.173c-5.542,3.402-9.606,8.428-14.829,12.157C15.251,28.071,14.983,27.831,14.715,27.591z"/>
<path fill-rule="evenodd" clip-rule="evenodd" fill="#AEFAFD" d="M15.517,28.31c5.223-3.729,9.287-8.755,14.829-12.157
	c5.739-3.528,12.483-4.845,18.328-8.173c2.015-1.147,8.202,2.536,8.891,4.827c0.258,0.858,0.334,1.793,0.73,2.581
	c2.053,4.07,1.815,7.506-2.58,10.026c-0.942,0.542-1.751,1.446-0.059,2.107c1.033,0.401,0.74,1.081,0.6,1.714
	c-1.978,9.042-4.423,17.968-7.071,26.846c-0.317,1.061-0.934,1.686-1.809,2.27c-3.99,2.66-7.831,5.55-11.958,7.988
	c-3.519,2.079-5.457,4.939-7.141,8.527c-2.022,4.322-1.883,7.991-0.169,12.389c4.393,11.254,8.191,22.729,12.238,34.11
	c0.271,0.757,0.663,1.474,0.454,2.309c-0.915-0.597-1.123-1.63-1.548-2.497c-3.835-7.825-7.538-15.71-11.456-23.495
	c-2.192-4.354-3.912-8.95-6.804-12.962l0.036,0.06c-0.09-1.978-0.883-1.179-1.78-0.466c-1.471,1.166-2.292,3.111-4.423,3.49
	c-0.866-1.376,1.12-2.214,0.707-3.505c0.944-3.491,0.776-7.046,1.159-11.161c-1.844,1.251-3.128,2.155-5.007,1.868
	c1.078-1.917,2.037-3.632,2.999-5.346c0.555-0.988,1.222-1.762,2.53-1.87c0.593-0.05,1.237-0.568,1.026-1.23
	c-0.228-0.712-1.04-0.5-1.572-0.373c-2.06,0.488-3.912,1.667-6.109,1.69C8.413,62.199,6.308,56.507,4.084,50.86
	c-0.337-0.853-0.316-1.506,0.028-2.253c1.041-1.353,2.024-2.752,3.141-4.047c1.686-1.962,1.641-2.83-1.338-3.219
	c-1.308-0.171-3.615,0.711-4.118-1.71l-0.045,0.038c0.199-0.033,0.399-0.067,0.598-0.101c1.484-0.953,2.95-1.923,3.779-3.535
	l-0.028,0.025c0.469,0.04,0.691-0.167,0.65-0.625l-0.029,0.036c2.045-0.993,3.816-2.292,5.001-4.24l-0.04,0.039
	C13.233,30.613,14.469,29.578,15.517,28.31z M36.23,31.535c-0.019-0.276-0.033-0.55-0.051-0.824c-3.841,0-7.683-0.032-11.524,0.017
	c-1.236,0.016-2.386,0.634-2.218,1.925c0.166,1.244,1.409,1.739,2.614,1.409C28.735,33.053,32.363,31.858,36.23,31.535z
	 M47.143,23.178c-0.698-3.87,2.867-0.875,3.479-3.146c-3.13,1.492-5.493-1.18-8.939-1.069
	C43.401,20.962,45.151,21.906,47.143,23.178z M49.859,24.365c-0.934-0.906-1.251-1.718-2.396-1.323
	C47.708,23.897,48.159,24.414,49.859,24.365z"/>
<path fill-rule="evenodd" clip-rule="evenodd" fill="#2ADD71" d="M20.993,84.719c2.892,4.012,4.611,8.608,6.804,12.962
	c3.918,7.785,7.621,15.67,11.456,23.495c0.425,0.867,0.633,1.9,1.548,2.497c1.949,3.246,3.676,6.565,3.682,10.451
	c-4.014-8.229-8.054-16.448-12.041-24.691c-3.525-7.29-6.998-14.601-10.466-21.916C21.557,86.627,21.316,85.654,20.993,84.719z"/>
<path fill-rule="evenodd" clip-rule="evenodd" fill="#02CF2B" d="M1.797,39.631c0.503,2.421,2.811,1.539,4.118,1.71
	c2.979,0.389,3.023,1.257,1.338,3.219c-1.116,1.294-2.1,2.694-3.141,4.047c-0.531,0.028-1.061,0.057-1.593,0.085
	c-0.766-2.134-1.523-4.271-2.297-6.402C-0.322,40.8,0.109,39.87,1.797,39.631z"/>
<path fill-rule="evenodd" clip-rule="evenodd" fill="#2ADD71" d="M14.685,69.659c-0.962,1.714-1.921,3.429-2.999,5.346
	c1.879,0.287,3.163-0.616,5.007-1.868c-0.383,4.115-0.215,7.669-1.159,11.161c-1.354-1.164-0.56-2.54-0.418-3.858
	c0.175-1.664,0.319-3.333,0.482-5.051c-1.554-0.02-2.543,0.796-3.679,1.199c-0.596,0.209-1.185,0.531-1.712,0.049
	c-0.557-0.511-0.269-1.091,0.12-1.591c1.348-1.729,2.124-3.843,3.805-5.349l0.276-0.057L14.685,69.659z"/>
<path fill-rule="evenodd" clip-rule="evenodd" fill="#2ADD71" d="M2.52,48.692c0.532-0.028,1.062-0.057,1.593-0.085
	c-0.345,0.748-0.365,1.401-0.028,2.253c2.224,5.646,4.329,11.338,6.476,17.016c-0.239,0.212-0.479,0.423-0.72,0.635
	C7.047,62.026,4.825,55.344,2.52,48.692z"/>
<path fill-rule="evenodd" clip-rule="evenodd" fill="#02CF2B" d="M9.84,68.511c0.24-0.212,0.48-0.423,0.72-0.635
	c2.197-0.023,4.05-1.202,6.109-1.69c0.532-0.126,1.345-0.339,1.572,0.373c0.211,0.662-0.434,1.18-1.026,1.23
	c-1.309,0.108-1.976,0.882-2.53,1.87l-0.276-0.019l-0.276,0.057c0.203-0.922-0.238-1.103-1.129-1.216
	C11.926,68.347,10.885,69.44,9.84,68.511z"/>
<path fill-rule="evenodd" clip-rule="evenodd" fill="#2ADD71" d="M14.826,87.803c2.131-0.379,2.952-2.324,4.423-3.49
	c0.897-0.713,1.69-1.512,1.78,0.466c-2.506,0.353-3.369,2.7-5.123,3.966C13.899,90.193,15.33,87.959,14.826,87.803z"/>
<path fill-rule="evenodd" clip-rule="evenodd" fill="#2ADD71" d="M11.723,31.229c-1.185,1.948-2.956,3.248-5.001,4.24
	C7.856,33.465,9.543,32.075,11.723,31.229z"/>
<path fill-rule="evenodd" clip-rule="evenodd" fill="#2ADD71" d="M15.517,28.31c-1.048,1.269-2.283,2.303-3.834,2.958
	c0.427-1.678,2.19-2.321,3.032-3.677C14.983,27.831,15.251,28.071,15.517,28.31z"/>
<path fill-rule="evenodd" clip-rule="evenodd" fill="#2ADD71" d="M6.129,36.033C5.3,37.645,3.834,38.615,2.35,39.568
	c0.017-0.256,0.033-0.509,0.046-0.763C3.523,37.734,4.264,36.173,6.129,36.033z"/>
<path fill-rule="evenodd" clip-rule="evenodd" fill="#02CF2B" d="M2.396,38.805c-0.013,0.254-0.029,0.507-0.046,0.763
	c-0.198,0.034-0.398,0.068-0.598,0.101C1.466,39.03,2.038,38.992,2.396,38.805z"/>
<path fill-rule="evenodd" clip-rule="evenodd" fill="#2ADD71" d="M6.751,35.434c0.041,0.458-0.182,0.665-0.65,0.625
	C5.872,35.414,6.11,35.227,6.751,35.434z"/>
<path fill-rule="evenodd" clip-rule="evenodd" fill="#2ADD71" d="M45.023,135.206c0.074,0.178,0.146,0.356,0.22,0.536
	C45.17,135.563,45.098,135.384,45.023,135.206z"/>
<path fill-rule="evenodd" clip-rule="evenodd" fill="#02CF2B" d="M36.23,31.535c-3.867,0.323-7.495,1.518-11.179,2.528
	c-1.205,0.33-2.448-0.165-2.614-1.409c-0.168-1.291,0.981-1.91,2.218-1.925c3.842-0.049,7.684-0.017,11.524-0.017
	C36.197,30.985,36.212,31.259,36.23,31.535z"/>
<path fill-rule="evenodd" clip-rule="evenodd" fill="#02CF2B" d="M47.143,23.178c-1.991-1.272-3.741-2.216-5.461-4.215
	c3.446-0.11,5.81,2.562,8.939,1.069C50.01,22.303,46.444,19.309,47.143,23.178z"/>
<path fill-rule="evenodd" clip-rule="evenodd" fill="#02CF2B" d="M49.859,24.365c-1.7,0.049-2.151-0.468-2.396-1.323
	C48.608,22.647,48.926,23.459,49.859,24.365z"/>
</svg>
