<?xml version="1.0" encoding="utf-8"?>
<!-- Generator: Adobe Illustrator 16.0.0, SVG Export Plug-In . SVG Version: 6.00 Build 0)  -->
<!DOCTYPE svg PUBLIC "-//W3C//DTD SVG 1.1//EN" "http://www.w3.org/Graphics/SVG/1.1/DTD/svg11.dtd">
<svg version="1.1" id="Calque_1" xmlns="http://www.w3.org/2000/svg" xmlns:xlink="http://www.w3.org/1999/xlink" x="0px" y="0px"
	 width="158.761px" height="146.27px" viewBox="0 0 158.761 146.27" enable-background="new 0 0 158.761 146.27"
	 xml:space="preserve">
<path fill-rule="evenodd" clip-rule="evenodd" fill="#E81E05" d="M35.974,45.656c0.174-0.307,0.348-0.612,0.521-0.92
	c0.063-0.236,0.251-0.616,0.167-0.685c-0.367-0.305-0.652-0.094-0.834,0.279c-1.812-0.021-0.966-0.924-0.375-1.37
	c2.229-1.673,3.396-4.177,5.248-6.109c2.787-2.906,2.748-6.675,4.253-10.452c-3.343,0.631-5.448,1.889-6.105,5.239
	c-1.341-1.961-0.191-3.095,0.312-4.258c0.224-0.515,0.834-0.87,1.264-1.302c3.392-3.411,3.39-3.411-1.131-5.126
	c4.443-3.164,9.486-5.235,14.245-8.988c-4.233,0.445-7.861,0.824-11.943,1.252c2.104-2.179,4.71-2.165,6.907-2.84
	c8.005-2.455,16.129-4.546,24.142-6.979c2.65-0.805,5.088,0.731,7.741,0.021c-0.528-1.886-2.67-1.88-4.051-3.324
	c2.658-0.424,4.849,0.692,7.111,1.1c3.985,0.716,7.878,1.786,11.78,2.86c3.121,0.858,4.494,2.82,5.125,5.549
	c0.438,1.898,0.896,2.892,3.428,2.178c4.91-1.379,9.154,0.834,13.848,3.286c-2.799,0.832-5.113,0.289-7.363,0.487
	c-0.559,0.049-1.355-0.306-1.598,0.452c-0.305,0.954,0.619,1.131,1.236,1.391c1.591,0.664,3.264,1.161,4.799,1.925
	c1.858,0.927,3.498,1.747,4.664,3.96c1.615,3.071,4.543,5.502,6.959,8.167c2.506,2.765,5.068,5.478,7.604,8.215
	c0.003,0.38,0.007,0.757,0.013,1.137c-1.129-0.373-2.258-0.743-3.965-1.306c1.936,4.709,3.563,9.074,5.512,13.301
	c1.83,3.969,3.281,7.942,2.844,12.373c-0.168,1.713-0.553,1.956-1.896,1.089c-1.458-0.944-2.145-0.777-2.527,0.886
	c-1.52,6.563-2.83,13.173-4.457,19.713c-0.986,3.963-3.959,6.953-6.201,10.277c-0.546,0.813-1.596-0.097-2.396-0.252
	c-4-0.77-4.989-0.283-5.801,3.597c-0.506,2.43-0.977,4.802-2.578,6.868c-0.883-2.751-1.994-5.434-2.549-8.219
	c-0.359-1.811-1.172-1.944-2.709-1.883c-5.358,0.202-5.352,0.157-3.588,5.146c1.023,2.898,2.041,5.801,3.018,8.716
	c1.531,4.56-1.111,10.897-5.475,13.298c-1.734,0.952-2.711,0.542-2.936-1.388c-0.093-0.797-0.221-1.607-0.146-2.394
	c0.627-6.643-0.572-13.288,0.016-19.918c0.245-2.768-0.385-4.258-3.598-3.548c-0.449,0.1-0.938,0.013-2.161,0.013
	c3.123-2.807,5.729-5.165,8.354-7.501c4.931-4.394,9.795-8.863,14.84-13.131c3.669-3.104,4.643-7.489,6.205-11.55
	c0.914-2.377-1.606-4.23-2.246-6.462c-0.717-2.506-2.209-4.802-3.381-7.183c-0.213-0.437-0.397-1.022-0.775-1.222
	c-3.336-1.764-6.711-3.455-10.487-5.377c0.92,2.369,2.822,3.05,4.236,4.179c8.013,6.391,9.519,14,5.983,22.694
	c-0.28,0.692-1.035,1.22-1.617,1.775c-7.89,7.505-15.789,15.001-23.682,22.5c-0.809,0.769-1.532,1.488-2.871,1.461
	c-6.462-0.128-12.925-0.146-19.386-0.222c-0.26-0.004-0.521-0.162-1.263-0.411c5.164-2.985,9.88-5.96,14.829-8.507
	c4.721-2.432,7.891-5.63,9.708-10.735c2.741-7.705,6.371-15.117,9.708-22.617c0.82-1.844,0.845-3.34-0.632-4.912
	c-1.896-2.015-2.935-4.744-6.111-6.953c1.124,3.114,1.757,5.506,2.839,7.691c1.089,2.198,1.256,4.252,0.342,6.483
	c-3.217,7.845-6.221,15.781-10.141,23.341c-0.515,0.993-1.115,1.844-2.199,2.386c-6.781,3.388-12.906,7.791-19.221,11.883
	c-2.775,1.796-5.564,2.883-8.788,2.398c-3.271-0.49-4.144,0.754-3.842,3.713c0.282,2.78-0.045,5.625,0.309,8.391
	c0.371,2.895,0.219,5.537-1.606,7.959c-1.435,1.903,0.195,3.466,0.911,4.932c0.887,1.816,1.151,3.535,0.753,5.758
	c-0.93-1.127-1.705-2.064-2.479-3.004c-1.325-2.453-2.938-4.801-2.927-7.727c3.904-0.093,1.374-2.922,1.912-4.412
	c0.516-1.425-0.559-1.768-1.919-1.771c-1.053-0.001-2.254,0.512-3.174-0.466c-0.254-2.457,1.206-4.434,1.967-6.608
	c0.47-0.137,0.994-0.477,1.402-0.376c1.661,0.407,3.575,0.918,3.905-1.311c0.285-1.919,1.286-4.461-1.829-5.477
	c0.584-0.822,1.191-1.631,1.749-2.469c5.305-7.977,12.565-14.874,14.377-24.774c0.754-4.12,3.203-7.873,3.326-12.099
	c0.19-6.599,0.061-13.206-0.057-19.811c-0.04-2.319,0.785-2.632,2.732-1.62c2.451,1.273,4.873,2.65,7.448,3.633
	c2.022,0.773,4.301,2.048,6.455,0.796c4.594-2.672,5.675-5.536,4.429-10.506c-0.048-0.194-0.098-0.388-0.148-0.583
	c-2.096-8.148-2.109-8.103-10.454-10.752c-1.801-0.572-3.225-0.527-4.926,0.439c-7.853,4.468-15.725,8.927-23.984,12.674
	c-2.021,0.918-3.551,2.267-4.994,3.885c-2.958,3.313-5.219,7.197-8.726,10.059C36.791,45.656,36.382,45.656,35.974,45.656z
	 M104.204,110.992c-0.295,0.241-0.53,0.377-0.666,0.581c-0.047,0.066,0.205,0.443,0.236,0.431c0.262-0.082,0.528-0.196,0.727-0.37
	C104.548,111.591,104.343,111.283,104.204,110.992z M94.085,42.849c-0.064-0.035-0.153-0.118-0.191-0.101
	c-0.086,0.038-0.144,0.129-0.213,0.195c0.133,0.041,0.266,0.08,0.4,0.118C94.081,42.992,94.081,42.92,94.085,42.849z"/>
<path fill-rule="evenodd" clip-rule="evenodd" fill="#FCECAF" d="M37.199,45.656c3.506-2.862,5.768-6.746,8.726-10.059
	c1.443-1.618,2.973-2.966,4.994-3.885c8.26-3.747,16.131-8.207,23.984-12.674c1.701-0.966,3.125-1.011,4.926-0.439
	c8.345,2.649,8.358,2.604,10.454,10.752c0.051,0.195,0.101,0.388,0.148,0.583c1.246,4.97,0.165,7.833-4.429,10.506
	c-2.153,1.252-4.433-0.023-6.455-0.796c-2.575-0.983-4.997-2.36-7.448-3.633c-1.948-1.012-2.772-0.699-2.732,1.62
	c0.117,6.605,0.247,13.212,0.057,19.811c-0.123,4.226-2.571,7.979-3.326,12.099c-1.812,9.9-9.072,16.798-14.377,24.774
	c-0.557,0.838-1.165,1.646-1.749,2.469c-3.639-0.021-7.28-0.006-10.88-0.646c0.672-2.104,1.346-4.202,2.021-6.308
	c2.405-0.873,4.912-1.496,7.451-1.547c3.1-0.057,4.816-1.658,6.042-4.113c0.437,0.069,0.648-0.126,0.679-0.541
	c0.449-0.078,0.672-0.29,0.473-0.751c0.148-0.006,0.295-0.008,0.444-0.013c-0.035-0.104-0.068-0.209-0.105-0.314
	c-0.093,0.123-0.188,0.247-0.283,0.372c-0.216,0.19-0.434,0.381-0.65,0.572c-0.205,0.2-0.412,0.403-0.618,0.603
	c-2.629,2.556-5.942,3.545-9.522,4.018c-1.396,0.184-2.751,0.648-4.125,0.985c-3.073-0.126-4.336,2.378-6.197,4.006
	c-2.104-1.405-3.203-3.956-5.812-4.789c-2.555-0.575-0.458-2.263-0.853-3.354c-0.418-0.904-0.468-1.801-0.411-2.822
	c0.293-5.194-0.942-10.016-4.216-14.246c-0.147-1.405,0.401-2.397,1.659-3.188c1.284-0.808,2.404-1.858,3.619-2.774
	c1.595-1.203,1.521-2.12-0.32-3.062c-1.863-0.953-4.023-1.407-5.516-3.002c2.226-1.454,4.642-2.683,6.283-4.851l-0.054,0.044
	c1.176-0.188,2.103-0.695,2.527-1.847l-0.047,0.039c1.198-0.157,2.102-0.693,2.532-1.84l-0.049,0.039
	c0.923,0,1.608-0.348,1.912-1.242l-0.053,0.04C36.449,46.284,36.944,46.217,37.199,45.656z M62.316,42.699
	c-5.091,0.434-11.099-3.046-14.496,3.698C52.941,46.218,58.334,47.361,62.316,42.699z M46.342,76.296
	c0.024-0.269,0.048-0.539,0.074-0.808c-5.224-0.411-10.447-0.821-15.672-1.231C35.655,78.131,41.009,77.104,46.342,76.296z
	 M57.277,81.867l0.102-0.215l-0.122-0.023L57.277,81.867z"/>
<path fill-rule="evenodd" clip-rule="evenodd" fill="#302E26" d="M154.554,116.826c0-5.391-0.021-10.782,0.021-16.173
	c0.008-0.948-0.613-2.306,1.377-2.346c1.559-0.032,2.293,0.652,2.563,2.005c0.119,0.587,0.236,1.184,0.236,1.776
	c0.014,8.711,0.007,17.419,0.005,26.128c0,1.001,0.173,2.24-1.463,1.938c-1.388-0.257-3.324,1.083-3.995-1.506
	c-1.518-5.853-3.255-11.654-4.91-17.475c-0.284-0.995-0.615-1.979-1.609-2.879c0,4.123,0,8.249,0,12.373
	c0,2.402-0.051,4.807,0.016,7.206c0.038,1.42,0.076,2.405-2.004,2.396c-1.994-0.007-2.372-0.638-2.356-2.408
	c0.08-8.987,0.002-17.977,0.056-26.963c0.006-0.969-0.829-2.792,1.395-2.514c1.877,0.235,4.51-1.366,5.363,1.844
	c1.427,5.352,2.91,10.688,4.381,16.03c0.068,0.243,0.238,0.459,0.359,0.687C154.176,116.907,154.365,116.868,154.554,116.826z"/>
<path fill-rule="evenodd" clip-rule="evenodd" fill="#302E26" d="M138.716,114.296c0,2.902,0.066,5.802-0.015,8.701
	c-0.132,4.633-3.122,7.657-7.574,7.794c-4.483,0.136-7.737-2.359-7.919-6.97c-0.292-7.43-0.109-14.883,0.053-22.321
	c0.025-1.18,0.881-2.384,2.627-2.384c0.781,0,1.55-0.506,2.34-0.723c5.793-1.59,10.359,1.657,10.496,7.501
	c0.065,2.799,0.012,5.603,0.012,8.401C138.728,114.296,138.722,114.296,138.716,114.296z M127.94,114.467
	c0,2.997-0.023,5.995,0.006,8.993c0.019,1.826,0.679,3.006,2.898,3.006c2.201,0,2.979-1.234,3.002-2.989
	c0.076-5.999,0.084-11.997,0.004-17.993c-0.025-1.854-0.83-3.358-3.137-3.287c-2.171,0.065-2.726,1.545-2.762,3.274
	C127.89,108.469,127.936,111.468,127.94,114.467z"/>
<path fill-rule="evenodd" clip-rule="evenodd" fill="#0C0C0C" d="M32.302,111.602c-1.639,4.389-1.873,9.046-2.557,13.595
	C29,130.148,27,131.625,22.01,130.323c-1.12-0.293-0.788-0.962-0.886-1.572c-1.627-10.077-3.245-20.155-4.866-30.235
	c4.779-0.562,4.762-0.561,5.43,3.682c1.075,6.818,2.175,13.636,3.322,20.812c1.705-1.703,1.283-3.641,1.566-5.26
	c1.042-5.956,1.871-11.955,2.591-17.96c0.331-2.752,2.796-0.813,3.799-1.91c1.796,0.353,1.094,1.603,0.939,2.586
	C33.322,104.171,32.437,107.834,32.302,111.602z"/>
<path fill-rule="evenodd" clip-rule="evenodd" fill="#0C0C0C" d="M0.061,114.448c0-4.597,0.067-9.195-0.036-13.791
	c-0.036-1.625,0.321-2.315,2.178-2.235c3.397,0.141,6.81,0.137,10.208,0.001c2.011-0.081,1.736,1.075,1.783,2.293
	c0.048,1.248-0.04,2.218-1.744,1.954c-0.403-0.063-0.826-0.043-1.236-0.006c-2.017,0.178-5.264-0.868-5.803,0.41
	c-0.975,2.317-0.382,5.257-0.433,7.938c-0.02,1.085,0.829,0.934,1.526,0.944c1.133,0.02,2.281,0.108,3.4-0.018
	c1.835-0.205,2.467,0.327,2.494,2.254c0.029,2.036-0.828,2.217-2.547,2.205c-4.889-0.029-4.889,0.038-4.889,4.865
	c0,4.885,0,4.885,5.191,4.885c0.824,0,1.655,0.063,2.475-0.009c1.886-0.168,1.498,1.11,1.552,2.162
	c0.062,1.178,0.098,2.103-1.674,2.033c-3.297-0.135-6.606-0.143-9.901,0.001c-1.928,0.084-2.681-0.332-2.598-2.397
	C0.184,123.448,0.061,118.947,0.061,114.448z"/>
<path fill-rule="evenodd" clip-rule="evenodd" fill="#E81E05" d="M78.148,128.821c-0.74,3.585,2.408,1.726,3.721,2.423
	c-3.551,3.343-7.06,6.643-10.675,10.047c-0.845-2.645-2.143-5.44-3.569-8.178c-0.928-1.777,0.572-1.659,1.437-1.515
	c2.83,0.474,2.905-1.098,2.884-3.118c-0.071-6.687-0.03-13.376-0.023-20.06c0.003-2.476,2.386-4.542,4.846-4.294
	c1.163,0.119,0.805,0.984,0.88,1.565c0.669,5.268,0.468,10.552,0.123,15.824c-0.164,2.492-0.457,4.961,0.377,7.395L78.148,128.821z"
	/>
<path fill-rule="evenodd" clip-rule="evenodd" fill="#0C0C0C" d="M36.648,122.727c0.382-6.96,0.748-13.92,0.628-20.893
	c-0.036-2.124,0.396-3.597,3.311-3.204c2.528,0.342,5.151,0.13,7.725,0.017c1.6-0.067,1.82,0.656,1.869,1.973
	c0.061,1.55-0.764,1.512-1.915,1.464c-1.544-0.061-3.111,0.188-4.635,0.023c-2.556-0.276-3.124,0.894-2.676,3.007
	c0.143,0.673,0.41,1.329,0.488,2.008c0.187,1.668-0.729,3.792,0.38,4.908c1.125,1.133,3.326,0.351,5.049,0.362
	c2.295,0.009,1.22,1.61,1.38,2.566c0.233,1.392-0.726,1.4-1.754,1.185c-0.404-0.084-0.802-0.205-1.209-0.247
	c-3.944-0.387-4.167-0.229-3.709,3.734c0.246,2.127-1.088,4.975,0.749,6.192c1.494,0.987,4.207,0.4,6.359,0.256
	c1.953-0.13,2.084,0.764,2.13,2.296c0.051,1.647-0.566,2.002-2.121,1.95c-3.302-0.1-6.615-0.135-9.916,0.012
	c-1.84,0.083-2.285-0.571-2.164-2.206C36.753,126.337,36.648,124.53,36.648,122.727z"/>
<path fill-rule="evenodd" clip-rule="evenodd" fill="#302E26" d="M104.611,99.31c2.368-0.665,3.317-0.036,4.13,2.032
	c1.427,3.626,2.004,7.572,4.213,11.458c0.86-2.88,2.006-5.245,2.158-7.666c0.137-2.147,2.084-3.105,2.441-5.012
	c0.154-0.813,1.596-1.017,2.426-0.691c0.888,0.354,0.256,1.279,0.101,1.863c-1.175,4.462-2.208,8.975-3.724,13.329
	c-1.453,4.173-1.518,8.392-1.448,12.672c0.026,1.598,0.371,2.981-2.348,3.021c-2.907,0.043-2.462-1.489-2.499-3.173
	c-0.117-5.433,0.529-10.949-1.081-16.247C107.796,107.003,106.118,103.252,104.611,99.31z"/>
<path fill-rule="evenodd" clip-rule="evenodd" fill="#E81E05" d="M91.036,102.291c0,6.568-0.016,13.138,0.016,19.707
	c0.006,1.466-1.316,1.916-2.064,2.799c-1.227,1.454-2.55,2.834-3.833,4.241c-0.235-0.126-0.472-0.251-0.708-0.379
	c0-7.836,0.02-15.671-0.016-23.509c-0.006-1.656,1.064-1.35,2.097-1.285C88.149,103.966,89.774,104.037,91.036,102.291z"/>
<path fill-rule="evenodd" clip-rule="evenodd" fill="#0C0C0C" d="M60.869,109.333c-0.486-0.769-0.973-1.543-1.457-2.313
	c-0.596-0.303-1.016-0.221-1.143,0.494c-0.573,6.686-0.537,13.372,0.036,20.052c0.146,1.71-0.48,2.211-2.21,2.269
	c-1.941,0.063-1.55-1.095-1.55-2.129c-0.006-9.597-0.003-19.192-0.003-28.748c4.124-0.604,5.678,0.828,5.893,4.768
	c0.106,1.955,1.347,4.094,2.016,6.168C61.923,109.707,61.396,109.519,60.869,109.333z"/>
<path fill-rule="evenodd" clip-rule="evenodd" fill="#302E26" d="M60.869,109.333c0.527,0.187,1.054,0.374,1.582,0.561
	c1.333,2.882,1.525,6.224,3.755,8.752c0.387,0.439,0.585,1.09,1.326,0.985c0-6.229-0.035-12.443,0.043-18.658
	c0.01-0.756-1.016-2.175,0.872-2.284c1.778-0.106,1.204,1.416,1.292,2.187c0.348,3.077-0.033,6.157-0.162,9.24
	c-0.235,5.67,0.16,11.364,0.223,17.048c0.01,0.911,0.966,2.405-0.872,2.581c-1.515,0.147-3.282,0.481-3.788-1.854
	C63.798,121.69,62.303,115.519,60.869,109.333z"/>
<path fill-rule="evenodd" clip-rule="evenodd" fill="#302E26" d="M78.148,128.821l0.001,0.09c1.605-0.188,1.177-1.438,1.188-2.327
	c0.089-7.258,1.295-14.474,0.793-21.752c-0.061-0.869-0.283-1.755,0.104-2.662c0.226-0.527,1.08-1.188,0.183-1.775
	c-0.72-0.466-1.445-1.035-2.477-0.228c-0.62,0.483-1.777,0.158-2.229,1.213c-0.08,0.182-1.064,0.241-1.409,0.024
	c-0.705-0.441-0.379-1.266-0.374-1.935c0.007-0.659,0.554-0.83,1.077-0.743c3.993,0.668,8.02,0.306,12.03,0.343
	c1.479,0.013,1.303,0.887,1.332,1.799c0.031,1.071-0.502,1.432-1.525,1.289c-0.205-0.029-0.452-0.121-0.607-0.046
	c-1.354,0.654-2.082-2.152-3.403-0.676c-1.089,1.216-0.423,2.884-0.581,4.344c-0.745,6.866,0.654,13.727,0.084,20.606
	C82.038,129.953,81.671,130.281,78.148,128.821z"/>
<path fill-rule="evenodd" clip-rule="evenodd" fill="#302E26" d="M93.691,98.615c1.437,0.639,1.712,1.43,1.595,2.394
	c-0.886,7.358-0.076,14.743-0.368,22.115c-0.165,4.172,2.958,5.865,6.647,3.487c1.293-0.831,2.363-0.795,3.373-0.342
	c1.099,0.5,0.347,1.78,0.479,2.704c0.126,0.884-0.38,1.193-1.276,1.243c-3.525,0.204-6.962-0.295-10.388-1.03
	c-1.114-0.243-1.226-1.017-1.154-1.805C93.448,117.885,92.608,108.319,93.691,98.615z"/>
<path fill-rule="evenodd" clip-rule="evenodd" fill="#E81E05" d="M32.302,111.602c0.135-3.768,1.02-7.431,1.604-11.138
	c0.155-0.983,0.857-2.233-0.939-2.586c0.839-1.04,1.893-2.006,1.304-3.542c1.368-0.006,0.662-0.697,0.433-1.232
	c1.86-1.628,3.124-4.132,6.196-4.006c0.07,0.242,0.143,0.487,0.214,0.729c-0.675,2.105-1.349,4.203-2.021,6.308
	c-2.556,0.787-3.538,2.39-3.485,5.058c0.063,3.071-1.254,6.104-0.071,9.263c0.375,1-0.109,2.301-0.223,3.776
	C34.054,113.313,33.875,111.646,32.302,111.602z"/>
<path fill-rule="evenodd" clip-rule="evenodd" fill="#E81E05" d="M22.855,55.867c1.492,1.595,3.652,2.049,5.516,3.002
	c1.841,0.941,1.916,1.858,0.32,3.062c-1.215,0.916-2.335,1.967-3.619,2.774c-1.258,0.79-1.807,1.782-1.659,3.188
	c-0.141-0.044-0.281-0.055-0.425-0.026c-1.155-2.483-2.443-4.921-3.417-7.469c-0.752-1.969-0.09-3.646,2.018-4.578
	C22.011,55.833,22.434,55.85,22.855,55.867z"/>
<path fill-rule="evenodd" clip-rule="evenodd" fill="#EA2E26" d="M61.411,136.345c0.916,0.076,1.255,1.421,2.935,0.829
	c-2.554-4.537-6.46-8.766-4.318-14.185c1.686,3.598,2.312,8.009,4.52,11.82c0.666,1.153,0.654,3.074,2.908,2.601
	c0.152-0.033,0.463,0.117,0.518,0.252c1.153,2.816,2.279,5.642,3.157,8.607c-2.921-3.672-6.964-6.151-9.981-9.623
	C61.234,136.543,61.321,136.442,61.411,136.345z M64.569,138.392c0.071,0.129,0.146,0.258,0.22,0.39
	c0.07-0.066,0.206-0.149,0.195-0.198c-0.034-0.141-0.127-0.271-0.195-0.402C64.72,138.247,64.652,138.313,64.569,138.392z"/>
<path fill-rule="evenodd" clip-rule="evenodd" fill="#EA2E26" d="M79.011,137.617c3.556-4.239,7.706-7.924,12.041-12.254
	c-0.086,2.836,0.301,5.005-1.899,6.862c-1.089,0.914,0.378,0.395,0.712,0.499l-0.036-0.064c-0.642,1.955-2.869,1.889-4.155,3.051
	c-0.793,0.714-1.828,1.177-2.756,1.754c0.055-0.669-0.147-1.385-0.863-0.654C81.127,137.754,80.079,137.56,79.011,137.617z"/>
<path fill-rule="evenodd" clip-rule="evenodd" fill="#EA2E26" d="M22.988,67.866c0.144-0.028,0.285-0.018,0.425,0.026
	c3.274,4.23,4.51,9.052,4.216,14.246c-0.058,1.021-0.008,1.918,0.411,2.822c-0.095-0.913-1.234-1.334-1.148-2.348
	C27.357,77.262,24.722,72.675,22.988,67.866z"/>
<path fill-rule="evenodd" clip-rule="evenodd" fill="#FCECAF" d="M47.708,117.202c-0.011,2.926,1.602,5.273,2.927,7.727
	c-2.559,0.07-3.169-2.237-4.563-3.561c-1.069-1.015-2.36-1.874-3.149-3.505C44.598,117.567,46.289,118.057,47.708,117.202z"/>
<path fill-rule="evenodd" clip-rule="evenodd" fill="#EA2E26" d="M131.396,89.417c0.775-4.397,1.551-8.794,2.326-13.19
	C133.761,80.757,132.743,85.113,131.396,89.417z"/>
<path fill-rule="evenodd" clip-rule="evenodd" fill="#FCECAF" d="M79.011,137.617c1.067-0.057,2.116,0.138,3.042-0.807
	c0.716-0.73,0.918-0.015,0.863,0.654c-2.354,1.86-5.043,3.172-7.744,4.469c-0.109-0.104-0.212-0.209-0.313-0.32
	C75.808,139.854,77.06,138.395,79.011,137.617z"/>
<path fill-rule="evenodd" clip-rule="evenodd" fill="#EA2E26" d="M65.12,97.381c0,2.164,0.048,4.014-0.038,5.854
	c-0.019,0.403-0.457,1.039-0.808,1.114c-0.561,0.122-0.787-0.509-0.909-0.987C62.817,101.217,61.968,98.985,65.12,97.381z"/>
<path fill-rule="evenodd" clip-rule="evenodd" fill="#FCECAF" d="M46.494,103.945c-0.761,2.175-2.221,4.151-1.967,6.608
	c-2.29-1.631-1.049-3.919-0.903-5.84C43.724,103.396,45.476,104.117,46.494,103.945z"/>
<path fill-rule="evenodd" clip-rule="evenodd" fill="#EA2E26" d="M22.855,55.867c-0.421-0.017-0.844-0.033-1.267-0.048
	c2.368-1.822,4.509-3.975,7.549-4.803C27.497,53.184,25.082,54.413,22.855,55.867z"/>
<path fill-rule="evenodd" clip-rule="evenodd" fill="#EA2E26" d="M34.704,93.104c0.229,0.535,0.935,1.227-0.433,1.232
	c-1.653-2.121-3.968-3.692-5.378-6.021C31.501,89.148,32.6,91.699,34.704,93.104z"/>
<path fill-rule="evenodd" clip-rule="evenodd" fill="#EA2E26" d="M59.809,135.466c-1.185-1.077-2.389-2.128-3.544-3.233
	c-0.434-0.415-1.383-0.875-0.395-1.572c0.692-0.493,1.396-0.631,1.923,0.436c0.688,1.394,1.587,2.691,2.394,4.034
	C60.058,135.24,59.933,135.352,59.809,135.466z"/>
<path fill-rule="evenodd" clip-rule="evenodd" fill="#EA2E26" d="M133.94,40.8c-0.006-0.38-0.01-0.757-0.013-1.137
	c2.364,1.287,4.729,2.572,7.096,3.857C138.476,43.069,136.108,42.176,133.94,40.8z"/>
<path fill-rule="evenodd" clip-rule="evenodd" fill="#EA2E26" d="M31.611,49.213c-0.424,1.151-1.351,1.658-2.527,1.847
	C29.289,49.625,30.384,49.335,31.611,49.213z"/>
<path fill-rule="evenodd" clip-rule="evenodd" fill="#EA2E26" d="M34.095,47.413c-0.43,1.146-1.333,1.683-2.532,1.84
	C31.923,48.014,32.933,47.613,34.095,47.413z"/>
<path fill-rule="evenodd" clip-rule="evenodd" fill="#EA2E26" d="M35.958,46.209c-0.303,0.895-0.989,1.242-1.912,1.242
	C34.322,46.517,34.939,46.074,35.958,46.209z"/>
<path fill-rule="evenodd" clip-rule="evenodd" fill="#EA2E26" d="M89.864,132.724c0.346-0.133,0.692-0.265,1.039-0.396
	c-0.014,0.113-0.001,0.321-0.039,0.331c-0.34,0.08-0.691,0.416-1.035,0.005C89.828,132.66,89.864,132.724,89.864,132.724z"/>
<path fill-rule="evenodd" clip-rule="evenodd" fill="#302E26" d="M58.269,107.514c0.127-0.715,0.547-0.797,1.143-0.494
	C59.029,107.184,58.65,107.346,58.269,107.514z"/>
<path fill-rule="evenodd" clip-rule="evenodd" fill="#EA2E26" d="M37.199,45.656c-0.255,0.562-0.75,0.628-1.294,0.594
	c-0.04-0.138-0.103-0.274-0.109-0.416c-0.002-0.056,0.116-0.116,0.179-0.178C36.382,45.656,36.791,45.656,37.199,45.656z"/>
<path fill-rule="evenodd" clip-rule="evenodd" fill="#EA2E26" d="M60.436,136.078c-0.209-0.204-0.417-0.407-0.627-0.613
	c0.124-0.112,0.249-0.225,0.377-0.334c0.385,0.028,0.589,0.231,0.623,0.602C60.68,135.844,60.556,135.959,60.436,136.078z"/>
<path fill-rule="evenodd" clip-rule="evenodd" fill="#EA2E26" d="M60.809,135.732c0.2,0.203,0.401,0.406,0.602,0.613
	c-0.089,0.097-0.176,0.198-0.262,0.302c-0.237-0.19-0.475-0.381-0.712-0.569C60.556,135.959,60.68,135.844,60.809,135.732z"/>
<path fill-rule="evenodd" clip-rule="evenodd" fill="#FCECAF" d="M74.241,142.218c0.207-0.202,0.414-0.403,0.62-0.605
	c0.101,0.111,0.204,0.217,0.313,0.32c-0.214,0.194-0.426,0.39-0.642,0.583C74.433,142.419,74.335,142.322,74.241,142.218z"/>
<path fill-rule="evenodd" clip-rule="evenodd" fill="#FCECAF" d="M73.625,142.828c0.206-0.204,0.411-0.407,0.617-0.609
	c0.094,0.104,0.191,0.201,0.29,0.298c-0.207,0.197-0.416,0.399-0.626,0.595C73.81,143.019,73.717,142.923,73.625,142.828z"/>
<path fill-rule="evenodd" clip-rule="evenodd" fill="#FCECAF" d="M73.905,143.111c-0.209,0.199-0.421,0.398-0.631,0.597
	c-0.087-0.087-0.176-0.176-0.264-0.265c0.205-0.202,0.41-0.408,0.616-0.611C73.717,142.923,73.81,143.019,73.905,143.111z"/>
<path fill-rule="evenodd" clip-rule="evenodd" fill="#FCECAF" d="M73.274,143.708c-0.168,0.189-0.32,0.518-0.587,0.12
	c-0.026-0.043,0.208-0.249,0.323-0.38C73.099,143.532,73.187,143.621,73.274,143.708z"/>
<path fill-rule="evenodd" clip-rule="evenodd" fill="#FEFEFE" d="M104.204,110.992c0.139,0.291,0.344,0.6,0.297,0.642
	c-0.198,0.174-0.465,0.288-0.727,0.37c-0.031,0.013-0.283-0.364-0.236-0.431C103.674,111.369,103.909,111.233,104.204,110.992z"/>
<path fill-rule="evenodd" clip-rule="evenodd" fill="#FEFEFE" d="M35.828,44.331c0.182-0.373,0.468-0.584,0.834-0.279
	c0.084,0.068-0.104,0.448-0.167,0.685C36.272,44.602,36.051,44.466,35.828,44.331z"/>
<path fill-rule="evenodd" clip-rule="evenodd" fill="#FEFEFE" d="M94.083,42.849c-0.002,0.071-0.002,0.143-0.002,0.213
	c-0.135-0.038-0.268-0.077-0.4-0.118c0.069-0.066,0.127-0.157,0.213-0.195C93.932,42.731,94.021,42.814,94.083,42.849z"/>
<path fill-rule="evenodd" clip-rule="evenodd" fill="#E81E05" d="M62.316,42.699c-3.981,4.662-9.375,3.52-14.496,3.698
	C51.217,39.653,57.225,43.132,62.316,42.699z"/>
<path fill-rule="evenodd" clip-rule="evenodd" fill="#EA2E26" d="M46.342,76.296c-5.333,0.808-10.688,1.835-15.598-2.039
	c5.226,0.41,10.448,0.82,15.672,1.231C46.39,75.757,46.366,76.028,46.342,76.296z"/>
<path fill-rule="evenodd" clip-rule="evenodd" fill="#EA2E26" d="M41.114,89.828c-0.071-0.242-0.144-0.487-0.214-0.729
	c1.375-0.337,2.729-0.802,4.125-0.985c3.581-0.473,6.893-1.462,9.522-4.018l0.061,0.073c-1.228,2.454-2.944,4.056-6.044,4.112
	C46.026,88.332,43.519,88.955,41.114,89.828z"/>
<polygon fill-rule="evenodd" clip-rule="evenodd" fill="#EA2E26" points="57.277,81.867 57.257,81.628 57.379,81.652 "/>
<path fill-rule="evenodd" clip-rule="evenodd" fill="#EA2E26" d="M55.815,82.92c0.096-0.125,0.19-0.249,0.283-0.372
	c0.037,0.105,0.07,0.21,0.105,0.314c-0.149,0.005-0.296,0.007-0.444,0.013L55.815,82.92z"/>
<path fill-rule="evenodd" clip-rule="evenodd" fill="#EA2E26" d="M54.548,84.095c0.206-0.199,0.413-0.402,0.618-0.603l0.124,0.136
	c-0.034,0.413-0.246,0.608-0.682,0.539C54.609,84.168,54.548,84.095,54.548,84.095z"/>
<path fill-rule="evenodd" clip-rule="evenodd" fill="#EA2E26" d="M55.759,82.875c0.199,0.461-0.024,0.673-0.473,0.751
	c0.003,0.002-0.121-0.134-0.121-0.134c0.216-0.191,0.434-0.382,0.65-0.572L55.759,82.875z"/>
<path fill-rule="evenodd" clip-rule="evenodd" fill="#F6F6F5" d="M127.937,114.467c-0.001-2.999-0.047-5.998,0.016-8.996
	c0.036-1.729,0.591-3.209,2.762-3.274c2.307-0.071,3.111,1.434,3.137,3.287c0.08,5.996,0.072,11.994-0.004,17.993
	c-0.023,1.755-0.801,2.989-3.002,2.989c-2.22,0-2.88-1.18-2.898-3.006C127.917,120.462,127.94,117.464,127.937,114.467z"/>
<path fill-rule="evenodd" clip-rule="evenodd" fill="#FEFEFE" d="M64.569,138.392c0.083-0.079,0.151-0.146,0.22-0.211
	c0.068,0.132,0.161,0.262,0.195,0.402c0.011,0.049-0.125,0.132-0.195,0.198C64.715,138.65,64.64,138.521,64.569,138.392z"/>
</svg>
