<?xml version="1.0" encoding="utf-8"?>
<!-- Generator: Adobe Illustrator 16.0.0, SVG Export Plug-In . SVG Version: 6.00 Build 0)  -->
<!DOCTYPE svg PUBLIC "-//W3C//DTD SVG 1.1//EN" "http://www.w3.org/Graphics/SVG/1.1/DTD/svg11.dtd">
<svg version="1.1" id="Calque_1" xmlns="http://www.w3.org/2000/svg" xmlns:xlink="http://www.w3.org/1999/xlink" x="0px" y="0px"
	 width="121.584px" height="146.351px" viewBox="0 0 121.584 146.351" enable-background="new 0 0 121.584 146.351"
	 xml:space="preserve">
<path fill-rule="evenodd" clip-rule="evenodd" fill="#FEA202" d="M84.307,122.663c-0.677,0.184-0.557,0.768-0.659,1.241
	c-3.154,1.405-6.122,3.097-8.724,5.351l0.061-0.01c-0.949-0.006-1.506,0.57-1.987,1.256c-0.164-0.048-0.323-0.026-0.467,0.067
	c-0.967,0.836-2.509,0.986-3.011,2.376c-0.653,0.465-1.306,0.928-1.957,1.394c-2.637-0.258-4.409,1.607-5.84,3.056
	c-1.823,1.844-3.568,3.717-6.574,4.519l0.052,0.051c1.324-1.378,2.628-2.774,3.976-4.133c6.678-6.744,13.371-13.476,20.059-20.211
	c0.146-0.145,0.295-0.292,0.444-0.437c0.211-0.202,0.425-0.406,0.64-0.612c0.208-0.201,0.415-0.405,0.62-0.604
	c0.209-0.202,0.417-0.405,0.627-0.609c0.208-0.204,0.416-0.41,0.623-0.615c0.207-0.199,0.413-0.397,0.622-0.602
	c0.206-0.199,0.41-0.398,0.62-0.601c0.207-0.206,0.416-0.41,0.621-0.616c0.209-0.201,0.416-0.401,0.619-0.602
	c0.146-0.311,1.022-0.388,0.409-0.907c-0.282-0.241-0.676,0.046-0.802,0.447c-0.208,0.2-0.414,0.401-0.62,0.601
	c-0.208,0.198-0.414,0.4-0.622,0.6c-0.21,0.197-0.412,0.399-0.621,0.601c-0.207,0.199-0.412,0.399-0.62,0.599
	c-0.207,0.201-0.417,0.399-0.622,0.601c-0.213,0.195-0.427,0.389-0.637,0.584c-0.21,0.197-0.416,0.397-0.626,0.598
	c-0.214,0.191-0.427,0.385-0.64,0.578c-0.209,0.198-0.41,0.396-0.619,0.597c-9.303,7.663-17.413,16.533-26.545,24.85
	c-1.382-3.28-2.23-6.525-4.318-9.183c-0.188-0.116-0.371-0.234-0.56-0.354c0.024,0.229,0.045,0.46,0.064,0.688
	c1.377,3.593,2.796,7.172,4.101,10.791c0.267,0.741,0.808,0.761,1.338,0.971l-0.051-0.033c-0.631,0.256-0.646,2.713-1.984,0.461
	c-1.525-2.566-4.608-3.819-6.027-6.503l-0.053,0.056c2.24,0.335,1.241-0.705,0.71-1.561c-3.446-5.573-6.825-11.191-10.378-16.701
	c-0.893-1.379-0.962-2.418-0.221-3.826c2.986-5.702,5.895-11.439,8.771-17.193c0.566-1.133,1.343-1.891,2.459-2.53
	c6.925-3.974,13.79-8.037,20.709-12.015c1.122-0.645,1.906-1.39,2.416-2.576c4.023-9.404,8.109-18.783,12.166-28.176
	c0.31-0.716,0.949-1.472,0.419-2.259c-1.938-2.88-3.865-5.773-6.529-8.669c-0.223,1.603,0.714,2.328,0.918,3.251
	c0.755,3.384,3.608,6.33,2.04,10.2c-3.312,8.16-6.406,16.407-10.528,24.233c-0.489,0.929-1.135,1.706-2.101,2.122
	c-3.795,1.644-6.887,4.408-10.536,6.237c-8.354,4.186-14.583,10.14-17.85,18.826c-0.596,1.583-1.358,3.206-2.439,4.498
	c-3.975,4.746-2.721,9.104,0.698,13.424c0.438,0.554,0.867,1.137,1.164,1.768c1.095,2.335,3.261,4.107,3.767,6.748l0.05-0.046
	c-2.884-1.224-4.647-3.569-6.353-5.966c-1.015-1.43-1.469-3.22-2.962-4.346c-0.198-0.607-0.727-0.513-1.204-0.53l0.006,0.004
	c0.269-3.005-1.681-5.286-2.814-7.809c-1.086-2.418-2.363-4.887-1.485-7.447c1.387-4.044,2.756-8.235,5.043-11.817
	c3.511-5.495,7.805-10.52,11.736-15.764c0.597-0.797,1.204-1.649,1.532-2.566c3.948-11.046,7.764-22.115,6.422-34.111
	c-0.243-2.179,0.005-4.404-0.11-6.6c-0.115-2.282,0.803-2.676,2.764-1.677c2.458,1.261,4.878,2.623,7.439,3.661
	c1.928,0.783,4.169,1.837,6.158,0.828c4.466-2.265,5.825-5.744,4.606-10.521c-0.05-0.193-0.153-0.374-0.202-0.567
	c-1.938-8.15-1.945-8.125-10.11-10.672c-1.868-0.581-3.417-0.572-5.213,0.506c-4.282,2.567-8.627,5.095-13.163,7.204
	c-8.405,3.905-16.407,8.153-21.421,16.251c-0.965,1.562-2.123,3.245-4.282,3.654c-0.363-0.676,0.345-1.006,0.511-1.51
	c0.254-0.298,0.494-0.597,0.099-0.958c0.341,0.246,0.455,0.127,0.412-0.241c-0.123,0.103-0.247,0.203-0.373,0.305
	c-0.25,0.154-0.502,0.308-0.75,0.463c-1.963-0.422-0.575-1.285-0.091-1.605c2.027-1.335,2.821-3.631,4.485-5.197
	c2.774-2.614,3.011-6.225,4.241-9.443c0.157-0.414,0.145-1.085-0.104-1.401c-0.39-0.491-0.875,0.08-1.336,0.199
	c-2.3,0.587-3.48,2.22-4.275,4.591c-1.14-1.886-0.165-3.092,0.591-4.285c0.315-0.5,0.844-0.87,1.275-1.305
	c3.206-3.215,3.201-3.246-1.112-4.91c4.282-3.353,9.397-5.207,13.959-9.005c-4.172,0.435-7.769,0.808-11.365,1.183
	c3.474-2.352,7.503-2.933,11.311-4.099c6.37-1.95,12.837-3.607,19.175-5.641c2.655-0.849,5.09,0.714,7.723,0.021
	C60.896,1.74,58.38,1.971,57.736,0c7.097,1.434,14.017,2.456,20.479,5.131c2.003,0.827,2.519,2.972,2.958,4.937
	c0.369,1.668,1.013,2.584,3.156,1.953c5.06-1.488,9.273,0.804,13.423,3.683c-1.987,0-3.98-0.066-5.964,0.032
	c-0.811,0.038-2.104-0.609-2.342,0.645c-0.178,0.939,1.021,1.062,1.749,1.37c1.776,0.75,3.601,1.409,5.321,2.263
	c1.456,0.721,2.866,1.205,3.42,3.304c0.651,2.478,3.343,3.915,5.154,5.799c5.106,5.318,8.928,12.028,16.493,14.925
	c-3.407-1.41-6.813-2.825-10.951-4.542c2.631,6.265,4.865,11.922,7.388,17.46c1.323,2.905,1.095,5.885,0.998,8.835
	c-0.065,1.95-0.931,0.06-1.438,0.006c-0.298-0.188-0.795-0.592-0.865-0.53c-0.456,0.395-0.137,0.843,0.059,1.27
	c0.219,0.761,0.409,1.531,0.674,2.281c0.165,0.471,0.452,0.972,1.056,0.913c0.836-0.076,1.177-0.604,1.127-1.742
	c-1.229,1.122,0.04,2.51-0.854,3.348c0.228-1.634-1.501-1.554-2.475-3.193c-0.82,5.138-1.501,9.505-2.22,13.864
	c-0.358,2.16-0.905,4.297-1.129,6.465c-0.133,1.271-1.341,1.409-1.859,2.216c0.365-1.024,1.025-1.892,1.211-3.04
	c0.92-5.611,2.121-11.182,2.889-16.809c0.196-1.436,1.427-2.856,0.565-4.461c-0.712,0.336-0.93,0.803-1.068,1.455
	c-0.78,3.738-1.544,7.481-2.495,11.181c-0.902,3.508-1.013,7.278-2.738,10.493c-1.716,3.197-4.084,6.063-6.124,9.1
	c-1.817,2.705-3.967,5.242-4.737,8.496c-0.132,0.103-0.265,0.203-0.399,0.304c0.16,0.017,0.315,0.035,0.473,0.05
	c0.369,0.016,0.737,0.029,1.105,0.046c-0.189,0.267-0.377,0.531-0.563,0.799c-0.834,0.004-1.669,0.013-2.503,0.018
	c0.603-1.047,0.74-2.166,0.533-3.687c-1.531,1.745-3.349,2.9-4.245,4.869c-1.145,0.427-1.646,1.449-2.165,2.372
	c-1.579,2.793-3.062,5.64-4.58,8.465c-0.429,0.624-0.854,1.25-1.281,1.876C84.573,122.12,84.393,122.322,84.307,122.663z
	 M74.428,42.79c0.115,0.182,0.229,0.364,0.345,0.545c0.048-0.072,0.098-0.146,0.146-0.221c-0.181-0.088-0.36-0.178-0.542-0.269
	c-0.043-0.274-0.086-0.547-0.128-0.821c-0.091,0.042-0.249,0.067-0.264,0.129C73.893,42.508,74.058,42.72,74.428,42.79z
	 M86.84,45.784c-0.229-0.563-0.595-0.669-1.104-0.32c0.26,0.241,0.519,0.481,0.778,0.722c4.771,3.261,8.85,6.925,10.64,12.693
	c1.283,4.14,0.117,12.055-3.092,15.126C86.193,81.53,78.283,89.013,70.44,96.569c-1.206,1.167-2.579,1.867-4.141,2.375
	c-4.1,1.326-8.164,2.752-12.292,3.985c-2.092,0.628-3.566,1.696-4.668,3.564c-2.044,3.469-4.083,6.983-6.551,10.165
	c-2.192,2.828-2.509,5.519-1.253,8.72c1.748,4.45,2.804,9.192,6.187,12.942c-0.945-3.44-1.938-6.904-3.636-10.01
	c-2.6-4.757-2.212-8.729,1.432-12.881c2.555-2.914,3.684-7.318,6.673-9.465c3.118-2.24,7.742-2.458,11.626-3.785
	c1.996-0.683,4.197-0.72,5.945-2.281c8.654-7.736,17.309-15.476,26.177-22.978c3.641-3.08,4.656-7.299,6.317-11.245
	c1.04-2.473-1.21-4.484-1.975-6.667c-1.062-3.031-2.207-6.428-4.436-8.582C93.543,48.203,89.896,47.276,86.84,45.784z
	 M47.962,139.094c-0.032,0.064-0.105,0.142-0.088,0.185c0.094,0.27,0.227,0.275,0.345,0.017c0.021-0.047-0.035-0.144-0.08-0.189
	C48.105,139.077,48.022,139.101,47.962,139.094z"/>
<path fill-rule="evenodd" clip-rule="evenodd" fill="#FEFEBD" d="M16.709,46.432c2.159-0.409,3.316-2.093,4.282-3.654
	c5.014-8.099,13.016-12.347,21.421-16.251c4.536-2.109,8.881-4.637,13.163-7.204c1.796-1.078,3.345-1.086,5.213-0.506
	c8.165,2.547,8.173,2.521,10.11,10.672c0.049,0.193,0.152,0.374,0.202,0.567c1.219,4.777-0.141,8.256-4.606,10.521
	c-1.989,1.009-4.23-0.044-6.158-0.828c-2.562-1.039-4.981-2.4-7.439-3.661c-1.961-0.999-2.879-0.604-2.764,1.677
	c0.115,2.196-0.133,4.421,0.11,6.6c1.342,11.996-2.474,23.065-6.422,34.111c-0.328,0.917-0.936,1.77-1.532,2.566
	c-3.932,5.244-8.226,10.269-11.736,15.764c-2.288,3.582-3.656,7.773-5.043,11.817c-0.878,2.561,0.399,5.029,1.485,7.447
	c1.133,2.522,3.083,4.804,2.814,7.809c-0.639-0.04-1.161-0.197-1.08-0.979c0.001,0-0.139-0.095-0.139-0.095l-0.101-0.092
	c-0.248-1.172-1.263-1.797-2.029-2.573c-2.989-3.037-6.008-6.045-9.052-9.031c-1.657-1.622-2.341-3.278-1.312-5.599
	c1.614-3.645,3.368-7.317,4.275-11.152c1.083-4.583,4.355-5.818,8.255-5.799c4.633,0.026,6.469-3.067,8.636-6.016
	c0.521,0.017,0.917-0.142,0.995-0.703c0.011-0.081-0.064-0.169-0.099-0.256c-0.316,0.297-0.633,0.593-0.951,0.89
	c-2.893,1.565-4.619,4.646-8.389,5.215c-4.544,0.688-9.523,0.688-12.867,4.675c-0.233,0.281-0.742,0.574-1.065,0.174
	c-1.851-2.278-5.007-3.424-5.675-6.767c-0.911-4.563-0.316-9.357-2.559-13.732c-2.695-5.254-2.577-5.312,2.104-9.215
	c0.389-0.329,0.763-0.675,1.156-0.997c1.341-1.092,1.126-1.975-0.373-2.7c-1.893-0.919-3.784-1.84-5.841-2.838
	c2.045-1.961,4.727-2.874,6.229-5.101l-0.058,0.044c1.207-0.149,2.019-0.81,2.534-1.849l-0.054,0.041
	c0.936,0.018,1.548-0.438,1.922-1.238l-0.06,0.047c0.391-0.059,0.657-0.233,0.67-0.652l-0.051,0.042
	c0.953,0.041,1.56-0.422,1.917-1.242L16.709,46.432z M28.22,46.682c5.458-0.138,11.023,0.873,15.27-3.828
	C38.065,42.825,32.087,39.886,28.22,46.682z M10.897,74.215c3.628,3.564,11.794,4.365,17.535,1.415
	C22.137,75.123,16.654,74.68,10.897,74.215z"/>
<path fill-rule="evenodd" clip-rule="evenodd" fill="#FEA202" d="M37.263,82.544c-2.167,2.948-4.003,6.042-8.636,6.016
	c-3.9-0.02-7.172,1.216-8.255,5.799c-0.908,3.835-2.662,7.508-4.275,11.152c-1.03,2.32-0.345,3.977,1.312,5.599
	c3.044,2.986,6.063,5.994,9.052,9.031c0.767,0.776,1.782,1.401,2.029,2.573c-2.912-2.713-5.823-5.427-8.937-8.326
	c-0.699,2.02,0.964,3.175,0.972,4.674c-0.153,0.113-0.294,0.238-0.428,0.373c-3.519-3.403-6.285-7.258-7.653-11.951
	c0.08-0.152,0.053-0.286-0.081-0.401c-0.327-2.022,1.016-3.9,0.547-5.934c0.748-0.724,0.893-1.577,0.596-2.529l0.047-0.034
	c0.981-0.044,0.372-0.735,0.494-1.128c1.325-1.825,1.22-3.152-0.753-4.761c-3.41-2.781-6.218-6.076-5.83-10.9
	c0.409-5.087-2.095-9.437-3.922-13.945c-0.938-2.316-1.938-4.614-3.081-6.84c-0.832-1.616-0.485-3.268,0.637-4.133
	c2.76-2.123,5.322-4.628,8.833-5.689c-1.502,2.227-4.184,3.14-6.229,5.101c2.057,0.998,3.948,1.919,5.841,2.838
	c1.499,0.726,1.714,1.608,0.373,2.7c-0.394,0.322-0.767,0.668-1.156,0.997c-4.681,3.903-4.799,3.961-2.104,9.215
	c2.243,4.375,1.648,9.169,2.559,13.732c0.667,3.343,3.824,4.488,5.675,6.767c0.323,0.4,0.832,0.107,1.065-0.174
	c3.344-3.986,8.323-3.986,12.867-4.675c3.77-0.568,5.497-3.649,8.389-5.215L37.263,82.544z"/>
<path fill-rule="evenodd" clip-rule="evenodd" fill="#F6F6F5" d="M99.774,107.505c-0.368-0.017-0.736-0.03-1.105-0.046
	c0.042-0.128,0.017-0.248-0.073-0.354c0.771-3.254,2.92-5.791,4.737-8.496c2.04-3.036,4.408-5.902,6.124-9.1
	c1.726-3.215,1.836-6.985,2.738-10.493c0.951-3.699,1.715-7.442,2.495-11.181c0.139-0.652,0.356-1.119,1.068-1.455
	c0.861,1.604-0.369,3.025-0.565,4.461c-0.768,5.627-1.969,11.197-2.889,16.809c-0.186,1.148-0.846,2.016-1.211,3.04
	c-0.021,0.199-0.048,0.397-0.07,0.601c-0.821,0.118-1.405,0.438-1.255,1.385l-0.017,0.02c-0.399-0.004-0.569,0.211-0.594,0.573
	l-0.03,0.037c-0.663,0.163-0.737,0.612-0.596,1.162l-0.028,0.033c-0.399-0.008-0.561,0.219-0.586,0.572l-0.033,0.034
	c-0.839,0.151-1.139,0.726-1.223,1.472l-0.005,0.02c-0.543,0.357-0.853,0.804-0.605,1.467l-0.029,0.044
	c-1.283,0.018-1.439,0.769-1.207,1.763l-0.034,0.041c-0.938-0.127-1.226,0.367-1.198,1.166l-0.035,0.041
	c-1.376,0.845-2.119,2.095-2.479,3.594c-0.41,0.305-0.823,0.61-1.234,0.912c0.005,0.59,0.006,1.179,0.008,1.765L99.774,107.505z"/>
<path fill-rule="evenodd" clip-rule="evenodd" fill="#FCECAF" d="M86.251,120.341c1.519-2.825,3.001-5.672,4.58-8.465
	c0.52-0.923,1.021-1.945,2.165-2.372c0.999,0.58,0.319,1.202-0.004,1.747c-1.563,2.673-3.193,5.309-4.735,7.993
	C87.785,120.063,87.099,120.286,86.251,120.341z"/>
<path fill-rule="evenodd" clip-rule="evenodd" fill="#FCECAF" d="M96.708,108.322c0.834-0.005,1.669-0.014,2.503-0.018
	c-1.216,2.351-2.687,4.525-4.818,6.318C94.894,112.417,95.071,110.132,96.708,108.322z"/>
<path fill-rule="evenodd" clip-rule="evenodd" fill="#F6F6F5" d="M74.924,129.254c2.602-2.254,5.569-3.945,8.724-5.351
	c0.232,0.122,0.465,0.247,0.698,0.372c-0.514,0.395-1.167,0.674-1.223,1.436l-0.053,0.043c-1.351,0.041-2.446,0.508-3.051,1.766
	l-0.047,0.033c-0.89-0.03-1.637,0.146-1.813,1.165l-0.052,0.04c-0.396-0.013-0.626,0.135-0.575,0.556l-0.047,0.037
	C76.632,129.32,75.776,129.285,74.924,129.254z"/>
<path fill-rule="evenodd" clip-rule="evenodd" fill="#FCECAF" d="M12.363,107.083c0.134,0.115,0.16,0.249,0.081,0.401
	c-0.271,1.128,0.458,2.339-0.693,4.093c-0.51-3.728-1.608-6.784-0.072-9.964c0.083,0.065,0.164,0.132,0.247,0.198
	C11.992,103.573,11.272,105.397,12.363,107.083z"/>
<path fill-rule="evenodd" clip-rule="evenodd" fill="#FCECAF" d="M67.563,134.337c0.651-0.466,1.304-0.929,1.957-1.394
	c0.731-0.292,1.466-0.578,2.197-0.87c0.136,0.178,0.271,0.355,0.409,0.529C70.746,133.535,69.757,135.419,67.563,134.337z"/>
<path fill-rule="evenodd" clip-rule="evenodd" fill="#FCECAF" d="M101.068,104.714c0.36-1.499,1.104-2.749,2.479-3.594
	C103.683,102.942,102.79,104.096,101.068,104.714z"/>
<path fill-rule="evenodd" clip-rule="evenodd" fill="#FCECAF" d="M72.53,130.568c0.144-0.094,0.303-0.115,0.467-0.067
	c0.587-0.078,1.173-0.159,1.758-0.237c0.161,0.179,0.323,0.359,0.486,0.538c-0.869,0.879-1.822,1.617-3.115,1.801
	c-0.138-0.173-0.273-0.351-0.409-0.527C72.152,131.659,72.667,131.279,72.53,130.568z"/>
<path fill-rule="evenodd" clip-rule="evenodd" fill="#FCECAF" d="M13.505,98.62c0.297,0.952,0.152,1.806-0.596,2.529
	c-0.329,0.219-0.656,0.443-0.985,0.662c-0.083-0.066-0.164-0.133-0.247-0.198C12.079,100.495,12.066,99.139,13.505,98.62z"/>
<path fill-rule="evenodd" clip-rule="evenodd" fill="#FCECAF" d="M80.02,127.52c0.604-1.258,1.7-1.725,3.051-1.766
	C82.712,127.406,81.464,127.626,80.02,127.52z"/>
<path fill-rule="evenodd" clip-rule="evenodd" fill="#FEA202" d="M12.405,49.384c-0.515,1.039-1.327,1.699-2.534,1.849
	C10.131,49.861,11.22,49.562,12.405,49.384z"/>
<path fill-rule="evenodd" clip-rule="evenodd" fill="#FCECAF" d="M74.924,129.254c0.853,0.03,1.708,0.065,2.563,0.097
	c-0.347,1.068-1.338,1.199-2.25,1.45c-0.158-0.179-0.32-0.359-0.479-0.536c0.076-0.341,0.15-0.679,0.228-1.021L74.924,129.254z"/>
<path fill-rule="evenodd" clip-rule="evenodd" fill="#FCECAF" d="M78.16,128.718c0.176-1.02,0.923-1.195,1.813-1.165
	C79.949,128.788,79.179,128.931,78.16,128.718z"/>
<path fill-rule="evenodd" clip-rule="evenodd" fill="#FEA202" d="M16.75,46.381c-0.357,0.82-0.964,1.283-1.917,1.242
	C15.128,46.711,15.777,46.31,16.75,46.381z"/>
<path fill-rule="evenodd" clip-rule="evenodd" fill="#FCECAF" d="M104.815,99.873c-0.232-0.994-0.076-1.745,1.207-1.763
	C106.049,98.975,105.733,99.618,104.815,99.873z"/>
<path fill-rule="evenodd" clip-rule="evenodd" fill="#FEA202" d="M14.273,48.187c-0.374,0.801-0.986,1.256-1.922,1.238
	C12.559,48.38,13.297,48.112,14.273,48.187z"/>
<path fill-rule="evenodd" clip-rule="evenodd" fill="#FCECAF" d="M103.583,101.08c-0.027-0.799,0.261-1.293,1.198-1.166
	C104.782,100.69,104.596,101.284,103.583,101.08z"/>
<path fill-rule="evenodd" clip-rule="evenodd" fill="#FEFEBD" d="M29.803,123.875c0.477,0.018,1.006-0.077,1.204,0.53
	C29.938,125.642,29.94,124.611,29.803,123.875z"/>
<path fill-rule="evenodd" clip-rule="evenodd" fill="#F6F6F5" d="M84.307,122.663c0.086-0.341,0.267-0.543,0.663-0.445
	c0.031,0.415,1.103,0.461,0.508,0.981C85.117,123.514,84.563,123.14,84.307,122.663z"/>
<path fill-rule="evenodd" clip-rule="evenodd" fill="#FCECAF" d="M106.662,96.58c0.084-0.746,0.384-1.32,1.223-1.472
	C108.112,96.091,107.444,96.381,106.662,96.58z"/>
<path fill-rule="evenodd" clip-rule="evenodd" fill="#FCECAF" d="M109.769,92.676c-0.15-0.947,0.434-1.267,1.255-1.385
	C110.894,91.998,110.501,92.478,109.769,92.676z"/>
<path fill-rule="evenodd" clip-rule="evenodd" fill="#FCECAF" d="M83.123,125.711c0.056-0.762,0.709-1.041,1.223-1.436
	C84.421,125.138,84.438,125.953,83.123,125.711z"/>
<path fill-rule="evenodd" clip-rule="evenodd" fill="#FCECAF" d="M106.052,98.066c-0.247-0.663,0.063-1.109,0.605-1.467
	C106.84,97.237,106.858,97.808,106.052,98.066z"/>
<path fill-rule="evenodd" clip-rule="evenodd" fill="#FCECAF" d="M14.046,97.458c-0.122,0.393,0.488,1.084-0.494,1.128
	C13.493,98.116,13.556,97.702,14.046,97.458z"/>
<path fill-rule="evenodd" clip-rule="evenodd" fill="#FCECAF" d="M99.842,107.391c-0.002-0.586-0.003-1.175-0.008-1.765
	C100.912,106.211,100.509,106.799,99.842,107.391z"/>
<path fill-rule="evenodd" clip-rule="evenodd" fill="#FEA202" d="M53.282,143.713c0.146,0.568-0.107,0.956-0.602,1.234l0.051,0.033
	c-0.218-0.602,0.158-0.928,0.605-1.217L53.282,143.713z"/>
<path fill-rule="evenodd" clip-rule="evenodd" fill="#FEA202" d="M20.524,119.062c0.411,0.19,0.668,0.623,0.357,0.871
	c-0.394,0.313-0.519-0.315-0.786-0.498C20.23,119.3,20.372,119.175,20.524,119.062z"/>
<path fill-rule="evenodd" clip-rule="evenodd" fill="#FCECAF" d="M108.532,94.468c-0.142-0.55-0.067-0.999,0.596-1.162
	C109.307,93.875,109.166,94.293,108.532,94.468z"/>
<path fill-rule="evenodd" clip-rule="evenodd" fill="#FEA202" d="M28.59,122.806c0,0,0.14,0.095,0.139,0.095
	C28.727,122.899,28.59,122.806,28.59,122.806z"/>
<path fill-rule="evenodd" clip-rule="evenodd" fill="#FEA202" d="M14.884,47.582c-0.013,0.419-0.279,0.594-0.67,0.652
	C14.054,47.649,14.392,47.538,14.884,47.582z"/>
<path fill-rule="evenodd" clip-rule="evenodd" fill="#FCECAF" d="M107.918,95.074c0.025-0.354,0.187-0.58,0.586-0.572
	C108.478,94.856,108.316,95.079,107.918,95.074z"/>
<path fill-rule="evenodd" clip-rule="evenodd" fill="#FCECAF" d="M77.533,129.314c-0.051-0.421,0.18-0.568,0.575-0.556
	C78.139,129.16,77.917,129.316,77.533,129.314z"/>
<path fill-rule="evenodd" clip-rule="evenodd" fill="#FCECAF" d="M109.158,93.269c0.024-0.362,0.194-0.577,0.594-0.573
	C109.722,93.049,109.575,93.292,109.158,93.269z"/>
<path fill-rule="evenodd" clip-rule="evenodd" fill="#FEA202" d="M40.952,135.313c-0.574,0.16-0.7-0.122-0.631-0.596l-0.05,0.046
	c0.421-0.009,0.586,0.234,0.627,0.597L40.952,135.313z"/>
<path fill-rule="evenodd" clip-rule="evenodd" fill="#FEA202" d="M41.567,135.916c-0.595,0.173-0.786-0.04-0.617-0.603
	c0.002,0-0.052,0.047-0.052,0.047c0.401,0.011,0.607,0.21,0.62,0.603L41.567,135.916z"/>
<path fill-rule="evenodd" clip-rule="evenodd" fill="#FEA202" d="M42.205,136.515c-0.536,0.123-0.786-0.04-0.638-0.6l-0.049,0.047
	c0.383,0.027,0.588,0.229,0.619,0.602L42.205,136.515z"/>
<path fill-rule="evenodd" clip-rule="evenodd" fill="#FEA202" d="M42.524,137.352c-0.323-0.203-0.641-0.407-0.319-0.837
	l-0.067,0.049c0.392,0,0.615,0.179,0.655,0.565C42.706,137.204,42.615,137.279,42.524,137.352z"/>
<path fill-rule="evenodd" clip-rule="evenodd" fill="#FEA202" d="M43.433,137.721c-0.448,0.21-0.698-0.032-0.906-0.372
	c0.089-0.07,0.18-0.146,0.267-0.22c0.395,0.039,0.605,0.235,0.583,0.636L43.433,137.721z"/>
<path fill-rule="evenodd" clip-rule="evenodd" fill="#FEA202" d="M43.803,138.532c-0.343-0.175-0.617-0.384-0.371-0.811
	c0.001,0-0.056,0.044-0.056,0.044c0.404-0.026,0.622,0.162,0.679,0.546C43.972,138.387,43.889,138.46,43.803,138.532z"/>
<path fill-rule="evenodd" clip-rule="evenodd" fill="#FEA202" d="M44.669,138.906c-0.435,0.192-0.679-0.023-0.865-0.374
	c0.085-0.071,0.168-0.145,0.251-0.221c0.408,0.036,0.633,0.221,0.562,0.65L44.669,138.906z"/>
<path fill-rule="evenodd" clip-rule="evenodd" fill="#FEA202" d="M55.148,141.912c0.069,0.467-0.131,0.672-0.622,0.602l0.055,0.05
	c0.204-0.199,0.412-0.4,0.619-0.601L55.148,141.912z"/>
<path fill-rule="evenodd" clip-rule="evenodd" fill="#FEA202" d="M54.526,142.513c0.056,0.457-0.148,0.655-0.62,0.6l0.052,0.054
	c0.207-0.202,0.415-0.402,0.623-0.604L54.526,142.513z"/>
<path fill-rule="evenodd" clip-rule="evenodd" fill="#FEA202" d="M53.906,143.113c0.056,0.454-0.154,0.653-0.623,0.601
	c-0.001,0,0.054,0.051,0.054,0.051c0.205-0.199,0.415-0.401,0.621-0.598L53.906,143.113z"/>
<path fill-rule="evenodd" clip-rule="evenodd" fill="#F6F6F5" d="M86.84,45.784c3.057,1.492,6.703,2.419,9.007,4.644
	c2.229,2.154,3.374,5.551,4.436,8.582c0.765,2.183,3.015,4.194,1.975,6.667c-1.661,3.946-2.677,8.165-6.317,11.245
	c-8.868,7.502-17.522,15.241-26.177,22.978c-1.748,1.562-3.949,1.599-5.945,2.281c-3.884,1.327-8.508,1.545-11.626,3.785
	c-2.989,2.146-4.118,6.551-6.673,9.465c-3.644,4.151-4.031,8.124-1.432,12.881c1.697,3.105,2.69,6.569,3.636,10.01
	c-3.383-3.75-4.438-8.492-6.187-12.942c-1.256-3.201-0.939-5.892,1.253-8.72c2.468-3.182,4.507-6.696,6.551-10.165
	c1.102-1.868,2.576-2.937,4.668-3.564c4.128-1.233,8.192-2.659,12.292-3.985c1.562-0.508,2.935-1.208,4.141-2.375
	c7.843-7.556,15.753-15.039,23.621-22.564c3.209-3.071,4.375-10.986,3.092-15.126c-1.79-5.769-5.869-9.433-10.64-12.693
	C86.628,46.053,86.735,45.92,86.84,45.784z"/>
<path fill-rule="evenodd" clip-rule="evenodd" fill="#F6F6F5" d="M44.616,138.961c0.071-0.43-0.153-0.614-0.562-0.65
	c-0.057-0.384-0.274-0.572-0.679-0.546c0.022-0.4-0.188-0.597-0.583-0.636c-0.04-0.387-0.264-0.565-0.655-0.565
	c-0.031-0.373-0.236-0.574-0.619-0.602c-0.013-0.393-0.219-0.592-0.62-0.603c-0.041-0.362-0.206-0.605-0.627-0.597
	c-0.506-2.641-2.672-4.413-3.767-6.748c-0.297-0.631-0.726-1.214-1.164-1.768c-3.419-4.319-4.673-8.678-0.698-13.424
	c1.081-1.292,1.844-2.915,2.439-4.498c3.267-8.687,9.496-14.641,17.85-18.826c3.649-1.829,6.741-4.594,10.536-6.237
	c0.966-0.416,1.611-1.193,2.101-2.122c4.122-7.826,7.217-16.073,10.528-24.233c1.568-3.87-1.285-6.816-2.04-10.2
	c-0.204-0.923-1.141-1.648-0.918-3.251c2.664,2.896,4.592,5.789,6.529,8.669c0.53,0.787-0.109,1.543-0.419,2.259
	c-4.057,9.393-8.143,18.771-12.166,28.176c-0.51,1.187-1.294,1.932-2.416,2.576c-6.919,3.978-13.784,8.041-20.709,12.015
	c-1.116,0.64-1.893,1.397-2.459,2.53c-2.877,5.754-5.785,11.491-8.771,17.193c-0.741,1.408-0.672,2.447,0.221,3.826
	c3.553,5.51,6.932,11.128,10.378,16.701C45.857,138.256,46.856,139.296,44.616,138.961z"/>
<path fill-rule="evenodd" clip-rule="evenodd" fill="#F6F6F5" d="M53.958,143.167c-0.206,0.196-0.416,0.398-0.621,0.598
	c-0.447,0.289-0.823,0.615-0.605,1.217c-0.53-0.21-1.071-0.229-1.338-0.971c-1.305-3.619-2.724-7.198-4.101-10.791
	c0.189-0.076,0.354-0.188,0.495-0.335c2.088,2.657,2.937,5.902,4.318,9.183c9.132-8.316,17.242-17.187,26.545-24.85
	c0.193,0.135,0.387,0.268,0.585,0.401c-6.689,6.735-13.383,13.467-20.061,20.211c-1.348,1.358-2.651,2.755-3.976,4.133
	c-0.207,0.2-0.415,0.401-0.619,0.601C54.373,142.764,54.165,142.964,53.958,143.167z"/>
<path fill-rule="evenodd" clip-rule="evenodd" fill="#F6F6F5" d="M72.53,130.568c0.137,0.711-0.378,1.091-0.813,1.507
	c-0.731,0.291-1.466,0.577-2.197,0.869C70.021,131.554,71.563,131.404,72.53,130.568z"/>
<path fill-rule="evenodd" clip-rule="evenodd" fill="#F6F6F5" d="M74.984,129.245c-0.077,0.342-0.151,0.68-0.228,1.021
	c-0.587,0.076-1.173,0.157-1.76,0.235C73.479,129.815,74.035,129.239,74.984,129.245z"/>
<path fill-rule="evenodd" clip-rule="evenodd" fill="#F6F6F5" d="M84.278,111.861c0.126-0.401,0.52-0.688,0.802-0.447
	c0.613,0.52-0.263,0.597-0.409,0.907C84.56,112.149,84.431,111.998,84.278,111.861z"/>
<path fill-rule="evenodd" clip-rule="evenodd" fill="#F6F6F5" d="M74.428,42.79c-0.37-0.069-0.535-0.281-0.443-0.637
	c0.015-0.062,0.173-0.087,0.264-0.129c0.042,0.274,0.085,0.547,0.128,0.821L74.428,42.79z"/>
<path fill-rule="evenodd" clip-rule="evenodd" fill="#F6F6F5" d="M86.514,46.185c-0.26-0.24-0.519-0.48-0.778-0.722
	c0.51-0.349,0.876-0.243,1.104,0.32C86.735,45.92,86.628,46.053,86.514,46.185z"/>
<path fill-rule="evenodd" clip-rule="evenodd" fill="#FEFEFE" d="M116.774,66.54c-0.195-0.427-0.515-0.875-0.059-1.27
	c0.07-0.062,0.567,0.343,0.865,0.53C117.313,66.045,117.042,66.292,116.774,66.54z"/>
<path fill-rule="evenodd" clip-rule="evenodd" fill="#FCECAF" d="M98.596,107.106c0.09,0.105,0.115,0.226,0.073,0.354
	c-0.157-0.015-0.313-0.033-0.473-0.05C98.331,107.309,98.464,107.208,98.596,107.106z"/>
<path fill-rule="evenodd" clip-rule="evenodd" fill="#F6F6F5" d="M47.293,133.219c-0.02-0.229-0.04-0.459-0.064-0.688
	c0.188,0.119,0.372,0.237,0.56,0.354C47.646,133.032,47.482,133.143,47.293,133.219z"/>
<path fill-rule="evenodd" clip-rule="evenodd" fill="#FEFEFE" d="M16.607,44.491c0.248-0.155,0.501-0.309,0.75-0.463l-0.04-0.064
	c0.396,0.362,0.155,0.661-0.099,0.959C17.018,44.78,16.811,44.636,16.607,44.491z"/>
<path fill-rule="evenodd" clip-rule="evenodd" fill="#F6F6F5" d="M83.658,112.461c0.206-0.199,0.412-0.4,0.62-0.601
	c0.152,0.137,0.281,0.288,0.393,0.46c-0.203,0.2-0.41,0.4-0.619,0.602C83.923,112.768,83.792,112.615,83.658,112.461z"/>
<path fill-rule="evenodd" clip-rule="evenodd" fill="#F6F6F5" d="M84.052,112.922c-0.205,0.206-0.414,0.41-0.623,0.616
	c-0.132-0.161-0.265-0.319-0.393-0.478c0.208-0.199,0.414-0.401,0.622-0.6C83.792,112.615,83.923,112.768,84.052,112.922z"/>
<path fill-rule="evenodd" clip-rule="evenodd" fill="#F6F6F5" d="M47.962,139.098c0.061,0.003,0.144-0.021,0.177,0.008
	c0.045,0.046,0.101,0.143,0.08,0.189c-0.118,0.259-0.251,0.253-0.345-0.017C47.856,139.236,47.93,139.159,47.962,139.098z"/>
<path fill-rule="evenodd" clip-rule="evenodd" fill="#F6F6F5" d="M82.415,113.662c0.209-0.201,0.411-0.403,0.621-0.601
	c0.128,0.158,0.261,0.316,0.393,0.478c-0.208,0.202-0.412,0.401-0.618,0.601C82.677,113.978,82.547,113.82,82.415,113.662z"/>
<path fill-rule="evenodd" clip-rule="evenodd" fill="#F6F6F5" d="M81.795,114.26c0.208-0.199,0.413-0.399,0.62-0.599
	c0.132,0.158,0.262,0.316,0.396,0.478c-0.209,0.204-0.415,0.402-0.622,0.602C82.057,114.582,81.927,114.421,81.795,114.26z"/>
<path fill-rule="evenodd" clip-rule="evenodd" fill="#F6F6F5" d="M82.188,114.741c-0.207,0.205-0.415,0.411-0.623,0.615
	c-0.132-0.164-0.263-0.332-0.393-0.495c0.205-0.201,0.415-0.399,0.622-0.601C81.927,114.421,82.057,114.582,82.188,114.741z"/>
<path fill-rule="evenodd" clip-rule="evenodd" fill="#F6F6F5" d="M80.536,115.445c0.21-0.195,0.424-0.389,0.637-0.584
	c0.13,0.163,0.261,0.331,0.393,0.495c-0.21,0.204-0.418,0.407-0.627,0.608C80.806,115.79,80.669,115.617,80.536,115.445z"/>
<path fill-rule="evenodd" clip-rule="evenodd" fill="#FEFEFE" d="M17.358,44.028c0.125-0.102,0.25-0.202,0.373-0.305
	c0.043,0.368-0.071,0.487-0.412,0.241C17.318,43.963,17.358,44.028,17.358,44.028z"/>
<path fill-rule="evenodd" clip-rule="evenodd" fill="#F6F6F5" d="M79.91,116.042c0.21-0.2,0.416-0.4,0.626-0.598
	c0.133,0.172,0.27,0.345,0.402,0.52c-0.205,0.2-0.412,0.404-0.62,0.605C80.182,116.391,80.047,116.217,79.91,116.042z"/>
<path fill-rule="evenodd" clip-rule="evenodd" fill="#F6F6F5" d="M74.376,42.845c0.182,0.091,0.361,0.181,0.542,0.269
	c-0.048,0.074-0.098,0.148-0.146,0.221c-0.115-0.181-0.229-0.363-0.345-0.545L74.376,42.845z"/>
<path fill-rule="evenodd" clip-rule="evenodd" fill="#F6F6F5" d="M79.271,116.621c0.213-0.193,0.426-0.387,0.64-0.578
	c0.137,0.175,0.271,0.349,0.408,0.527c-0.215,0.206-0.429,0.41-0.64,0.612C79.542,116.995,79.407,116.808,79.271,116.621z"/>
<path fill-rule="evenodd" clip-rule="evenodd" fill="#F6F6F5" d="M78.651,117.217c0.209-0.201,0.41-0.398,0.619-0.597
	c0.137,0.188,0.271,0.374,0.408,0.562c-0.149,0.145-0.299,0.292-0.444,0.437C79.038,117.485,78.845,117.352,78.651,117.217z"/>
<path fill-rule="evenodd" clip-rule="evenodd" fill="#FEA202" d="M28.22,46.682c3.867-6.796,9.846-3.857,15.27-3.828
	C39.243,47.555,33.678,46.544,28.22,46.682z"/>
<path fill-rule="evenodd" clip-rule="evenodd" fill="#FEA202" d="M10.897,74.215c5.757,0.465,11.24,0.907,17.535,1.415
	C22.692,78.581,14.525,77.78,10.897,74.215z"/>
<path fill-rule="evenodd" clip-rule="evenodd" fill="#FEA202" d="M37.208,82.475c0.318-0.297,0.635-0.593,0.951-0.89
	c0.034,0.087,0.109,0.175,0.099,0.256c-0.078,0.562-0.474,0.72-0.995,0.703L37.208,82.475z"/>
<path fill-rule="evenodd" clip-rule="evenodd" fill="#FEFEFE" d="M11.925,101.811c0.329-0.219,0.656-0.443,0.985-0.662
	c0.469,2.033-0.874,3.911-0.547,5.934C11.272,105.397,11.992,103.573,11.925,101.811z"/>
</svg>
