<?xml version="1.0" encoding="utf-8"?>
<!-- Generator: Adobe Illustrator 16.0.0, SVG Export Plug-In . SVG Version: 6.00 Build 0)  -->
<!DOCTYPE svg PUBLIC "-//W3C//DTD SVG 1.1//EN" "http://www.w3.org/Graphics/SVG/1.1/DTD/svg11.dtd">
<svg version="1.1" id="Calque_1" xmlns="http://www.w3.org/2000/svg" xmlns:xlink="http://www.w3.org/1999/xlink" x="0px" y="0px"
	 width="101.89px" height="146.794px" viewBox="0 0 101.89 146.794" enable-background="new 0 0 101.89 146.794"
	 xml:space="preserve">
<path fill-rule="evenodd" clip-rule="evenodd" fill="#244FFC" d="M14.119,28.134c5.744-9.07,11.55-18.103,17.152-27.253
	c0.753-1.228,1.466-0.853,2.207-0.73c14.318,2.378,28.625,4.805,42.937,7.225c1.568,0.265,2.777,0.9,3.688,2.324
	c6.138,9.589,12.306,19.158,18.585,28.659c2.22,3.358,1.689,7.137,2.168,10.74c0.58,4.352,0.686,8.765,0.958,13.157
	c0.056,0.889,0.194,1.897-0.142,2.67c-4.293,9.837-7.642,20.045-12.473,29.668c-0.075,0.149-0.293,0.233-0.607,0.476
	c-0.036-3.073,1.502-5.857,0.7-9.035c-13.104,20.143-26.456,40.126-38.578,60.76c-1.805-3.433-3.978-7.123-5.091-11.281
	c-0.202-0.332-0.405-0.664-0.608-0.996c0,0-0.03-0.23-0.03-0.231c-0.443-2.634-1.164-5.177-2.575-7.496
	c-0.529-1.192-1.06-2.388-1.589-3.58c-0.104-0.343-0.017-0.849-0.661-0.74l0.026,0.048c0.451-0.83,0.238-1.441-0.639-1.836
	l0.064,0.013c0.371-0.946-0.181-1.743-0.473-2.567c-3.675-10.379-7.093-20.854-11.173-31.081c-1.774-4.446-1.714-8.151,0.298-12.421
	c1.595-3.381,3.402-6.127,6.752-8.114c4.217-2.501,8.145-5.456,12.212-8.193c0.765-0.515,1.484-0.94,1.774-1.941
	c2.644-9.013,5.189-18.049,7.156-27.231c0.119-0.549,0.416-1.271-0.301-1.6c-2.279-1.048-0.658-1.99,0.207-2.529
	c3.798-2.371,4.156-5.426,2.359-9.134c-0.516-1.065-0.665-2.295-1.012-3.441c-0.663-2.2-7.029-5.553-9.12-4.534
	c-4.196,2.044-8.461,3.858-12.865,5.459c-7.252,2.635-12.196,8.382-17.909,13.08C16.539,27.251,15.752,28.522,14.119,28.134z"/>
<path fill-rule="evenodd" clip-rule="evenodd" fill="#FBD7FE" d="M14.119,28.134c1.634,0.388,2.42-0.883,3.4-1.688
	c5.713-4.698,10.657-10.445,17.909-13.08c4.403-1.601,8.668-3.415,12.865-5.459c2.091-1.019,8.457,2.334,9.12,4.534
	c0.347,1.146,0.496,2.375,1.012,3.441c1.797,3.708,1.438,6.764-2.359,9.134c-0.865,0.539-2.486,1.481-0.207,2.529
	c0.717,0.33,0.42,1.051,0.301,1.6c-1.967,9.182-4.512,18.218-7.156,27.231c-0.291,1.001-1.009,1.427-1.774,1.941
	c-4.068,2.737-7.995,5.691-12.212,8.193c-3.35,1.986-5.157,4.732-6.752,8.114c-2.013,4.27-2.073,7.975-0.298,12.421
	c4.08,10.227,7.498,20.702,11.173,31.081c0.292,0.824,0.843,1.621,0.473,2.567c-2.395-2.686-3.435-6.071-5.045-9.16
	c-3.807-7.298-6.791-14.989-11.174-22.013l-0.047-0.075c-0.021-0.96-0.417-1.737-1.196-2.333l-0.042-0.064
	c0.082-1.463-0.598-2.745-1.805-3.327c-0.778-0.374-1.426,0.755-1.83,1.535l-0.066,0.056c-0.186,0.18-0.37,0.357-0.555,0.537
	l-0.065,0.063c-0.185,0.182-0.37,0.359-0.555,0.539l-0.064,0.064c-0.185,0.177-0.37,0.357-0.554,0.535l-0.058,0.063
	c-0.438,0.017-0.885,0.667-1.312-0.019c0.066-3.002-0.533-6.046,0.611-8.979c1.125-1.408,0.715-2.926,0.488-4.611
	c-1.55,0.479-2.691,1.686-4.419,1.393c0.312-1.008,0.589-1.917,0.87-2.828l0.062-0.074c1.07-0.449,1.346-1.284,1.193-2.324
	l0.009-0.004c0.708-1.78,4.513-1.651,3.64-3.259c-0.724-1.336-3.434,0.633-5.255,1.114c-1.444,0.377-2.206,0.374-2.767-1.221
	C8.301,62.391,6.95,58.44,5.139,54.711c-1.804-3.713-1.466-6.617,1.433-9.721c2.537-2.72,2.255-2.962-1.375-3.651
	c-1.205-0.229-2.406-0.486-3.606-0.73c0.84-0.933,1.68-1.866,2.519-2.799l0.066-0.053c0.186-0.18,0.371-0.358,0.554-0.537
	l0.067-0.064c0.186-0.178,0.37-0.356,0.554-0.535l0.059-0.069c0.605-0.185,0.628-0.649,0.582-1.145l0.035-0.034
	c1.323,0.073,2.333-0.262,2.436-1.767l0.06-0.041c0.516,0.057,0.951-0.041,1.169-0.563L9.76,32.95
	c0.184-0.179,0.369-0.358,0.553-0.537l0.067-0.064c0.183-0.178,0.371-0.356,0.554-0.534c0,0,0.067-0.067,0.069-0.067
	c0.184-0.18,0.369-0.361,0.555-0.539l0.055-0.054c1.133-0.078,1.738-0.651,1.773-1.767l0.092-0.064c0.167-0.133,0.332-0.267,0.5-0.4
	C14.026,28.66,14.071,28.396,14.119,28.134z M35.995,30.958c-3.885,0.107-7.701-0.368-11.531-0.277
	c-1.101,0.027-2.18,0.531-2.115,1.729c0.077,1.406,1.35,1.813,2.509,1.519C28.561,32.99,32.208,31.844,35.995,30.958z M42.28,18.804
	c-0.118,0.254-0.235,0.511-0.353,0.766c2.271,1.633,4.542,3.269,7.209,5.187c-0.161-2.168-2.444-2.055-2.482-3.583
	c1.224-0.514,2.608,0.287,3.776-0.846C47.413,21.248,45.044,19.063,42.28,18.804z"/>
<path fill-rule="evenodd" clip-rule="evenodd" fill="#2550FC" d="M1.591,40.608c1.2,0.244,2.402,0.501,3.606,0.73
	c3.629,0.689,3.912,0.932,1.375,3.651c-2.899,3.104-3.237,6.008-1.433,9.721c1.811,3.729,3.162,7.68,4.535,11.592
	c0.562,1.595,1.323,1.598,2.767,1.221c1.821-0.481,4.531-2.45,5.255-1.114c0.873,1.608-2.933,1.479-3.64,3.259
	c0.05-2.04-1.531-1.181-2.397-1.107c-1.271,0.107-2.022,0.061-2.518-1.356C6.263,58.95,3.273,50.732,0.291,42.512
	c-0.319-0.884-0.526-1.688,0.208-2.452C0.862,40.244,1.227,40.425,1.591,40.608z"/>
<path fill-rule="evenodd" clip-rule="evenodd" fill="#AEFAFD" d="M23.391,89.521c4.383,7.023,7.367,14.715,11.174,22.013
	c1.61,3.089,2.65,6.475,5.045,9.16l-0.064-0.013c-0.089,0.71-0.148,1.41,0.639,1.836l-0.026-0.048
	c0.101,0.345-0.31,1.121,0.661,0.74c0.53,1.192,1.06,2.388,1.589,3.58c0.211,0.714,0.03,1.288-0.638,1.69
	c-5.606-10.086-10.16-20.659-15.233-30.992C25.29,94.947,23.222,92.619,23.391,89.521z"/>
<path fill-rule="evenodd" clip-rule="evenodd" fill="#AEFAFD" d="M12.792,72.07c-0.281,0.911-0.559,1.82-0.87,2.828
	c1.728,0.293,2.869-0.914,4.419-1.393c0.227,1.686,0.637,3.203-0.488,4.611c-0.983-0.668-0.188-1.908-0.87-2.703
	c-0.343,0.095-0.629,0.194-0.924,0.259c-1.369,0.302-3.141,2.273-3.958,0.606C9.327,74.707,10.976,72.962,12.792,72.07z"/>
<path fill-rule="evenodd" clip-rule="evenodd" fill="#2550FC" d="M41.771,128.48c0.668-0.402,0.849-0.977,0.638-1.69
	c1.412,2.319,2.132,4.862,2.575,7.496C43.467,132.583,42.895,130.388,41.771,128.48z"/>
<path fill-rule="evenodd" clip-rule="evenodd" fill="#AEFAFD" d="M18.471,85.256c0.404-0.78,1.052-1.909,1.83-1.535
	c1.207,0.582,1.887,1.864,1.805,3.327C20.84,86.554,20.638,84.032,18.471,85.256z"/>
<path fill-rule="evenodd" clip-rule="evenodd" fill="#AEFAFD" d="M1.591,40.608c-0.364-0.183-0.729-0.364-1.092-0.548
	c0.902-1.207,1.771-2.461,3.611-2.25C3.271,38.743,2.432,39.676,1.591,40.608z"/>
<path fill-rule="evenodd" clip-rule="evenodd" fill="#AEFAFD" d="M15.242,87.095c0.426,0.686,0.874,0.035,1.312,0.019
	c0.078,1.187-0.734,1.729-1.695,2.108c-0.134,0.053-0.568-0.245-0.63-0.449C13.963,87.908,14.151,87.226,15.242,87.095z"/>
<path fill-rule="evenodd" clip-rule="evenodd" fill="#AEFAFD" d="M8.463,33.606C8.36,35.11,7.35,35.445,6.027,35.373
	C6.564,34.426,7.248,33.67,8.463,33.606z"/>
<path fill-rule="evenodd" clip-rule="evenodd" fill="#AEFAFD" d="M13.387,29.388c-0.035,1.116-0.64,1.688-1.773,1.767
	C11.582,29.979,12.31,29.52,13.387,29.388z"/>
<path fill-rule="evenodd" clip-rule="evenodd" fill="#AEFAFD" d="M14.047,69.672c0.153,1.041-0.123,1.875-1.193,2.324
	C12.641,70.927,12.934,70.103,14.047,69.672z"/>
<path fill-rule="evenodd" clip-rule="evenodd" fill="#AEFAFD" d="M22.147,87.113c0.779,0.596,1.175,1.373,1.196,2.333
	C22.056,89.094,22.135,88.086,22.147,87.113z"/>
<path fill-rule="evenodd" clip-rule="evenodd" fill="#AEFAFD" d="M9.692,33.002c-0.218,0.522-0.653,0.62-1.169,0.563
	C8.728,33.018,9.125,32.845,9.692,33.002z"/>
<path fill-rule="evenodd" clip-rule="evenodd" fill="#AEFAFD" d="M5.992,35.406c0.047,0.496,0.024,0.96-0.582,1.145
	C5.219,35.986,5.485,35.638,5.992,35.406z"/>
<path fill-rule="evenodd" clip-rule="evenodd" fill="#AEFAFD" d="M16.611,87.05c0.184-0.178,0.369-0.358,0.554-0.535
	C17.175,86.882,16.99,87.06,16.611,87.05z"/>
<path fill-rule="evenodd" clip-rule="evenodd" fill="#AEFAFD" d="M17.229,86.451c0.186-0.18,0.37-0.357,0.555-0.539
	C17.789,86.276,17.6,86.449,17.229,86.451z"/>
<path fill-rule="evenodd" clip-rule="evenodd" fill="#AEFAFD" d="M17.85,85.849c0.185-0.18,0.37-0.357,0.555-0.537
	C18.413,85.677,18.231,85.859,17.85,85.849z"/>
<path fill-rule="evenodd" clip-rule="evenodd" fill="#AEFAFD" d="M4.73,37.219c-0.183,0.179-0.368,0.357-0.554,0.537
	C4.144,37.367,4.33,37.188,4.73,37.219z"/>
<path fill-rule="evenodd" clip-rule="evenodd" fill="#AEFAFD" d="M5.352,36.62c-0.184,0.178-0.368,0.356-0.554,0.535
	C4.757,36.756,4.95,36.587,5.352,36.62z"/>
<path fill-rule="evenodd" clip-rule="evenodd" fill="#AEFAFD" d="M10.313,32.413c-0.184,0.179-0.369,0.358-0.553,0.537
	C9.722,32.557,9.906,32.377,10.313,32.413z"/>
<path fill-rule="evenodd" clip-rule="evenodd" fill="#AEFAFD" d="M10.934,31.814c-0.184,0.178-0.372,0.356-0.554,0.534
	C10.332,31.944,10.529,31.78,10.934,31.814z"/>
<path fill-rule="evenodd" clip-rule="evenodd" fill="#AEFAFD" d="M11.559,31.208c-0.187,0.178-0.371,0.359-0.555,0.539
	C10.954,31.34,11.15,31.172,11.559,31.208z"/>
<path fill-rule="evenodd" clip-rule="evenodd" fill="#AEFAFD" d="M13.979,28.923c-0.169,0.133-0.333,0.267-0.5,0.4
	C13.646,29.189,13.81,29.057,13.979,28.923z"/>
<path fill-rule="evenodd" clip-rule="evenodd" fill="#2550FC" d="M45.015,134.517c0.204,0.332,0.407,0.664,0.608,0.996
	C45.421,135.181,45.218,134.849,45.015,134.517z"/>
<path fill-rule="evenodd" clip-rule="evenodd" fill="#FBD7FE" d="M40.186,122.517c-0.788-0.426-0.729-1.126-0.639-1.836
	C40.423,121.076,40.636,121.687,40.186,122.517z"/>
<path fill-rule="evenodd" clip-rule="evenodd" fill="#FBD7FE" d="M40.82,123.209c-0.971,0.381-0.56-0.396-0.661-0.74
	C40.803,122.361,40.716,122.867,40.82,123.209z"/>
<path fill-rule="evenodd" clip-rule="evenodd" fill="#2550FC" d="M35.995,30.958c-3.787,0.886-7.434,2.032-11.136,2.971
	c-1.159,0.295-2.433-0.113-2.509-1.519c-0.065-1.199,1.014-1.702,2.115-1.729C28.294,30.591,32.11,31.066,35.995,30.958z"/>
<path fill-rule="evenodd" clip-rule="evenodd" fill="#2550FC" d="M42.28,18.804c2.764,0.259,5.132,2.444,8.151,1.524
	c-1.167,1.133-2.552,0.333-3.776,0.846c0.038,1.528,2.321,1.414,2.482,3.583c-2.667-1.918-4.939-3.554-7.209-5.187
	C42.045,19.315,42.163,19.059,42.28,18.804z"/>
</svg>
