<?xml version="1.0" encoding="utf-8"?>
<!-- Generator: Adobe Illustrator 16.0.0, SVG Export Plug-In . SVG Version: 6.00 Build 0)  -->
<!DOCTYPE svg PUBLIC "-//W3C//DTD SVG 1.1//EN" "http://www.w3.org/Graphics/SVG/1.1/DTD/svg11.dtd">
<svg version="1.1" id="Calque_1" xmlns="http://www.w3.org/2000/svg" xmlns:xlink="http://www.w3.org/1999/xlink" x="0px" y="0px"
	 width="121.754px" height="146.151px" viewBox="0 0 121.754 146.151" enable-background="new 0 0 121.754 146.151"
	 xml:space="preserve">
<path fill-rule="evenodd" clip-rule="evenodd" fill="#E81C03" d="M114.672,40.817c-1.131-0.372-2.258-0.744-3.966-1.308
	c1.922,4.688,3.567,9.024,5.469,13.253c1.737,3.859,3.17,7.682,2.957,12.023c-0.088,1.81-0.732,1.61-1.91,1.24l-0.035,0.055
	c0.545-0.798-0.102-0.971-0.666-1.188c-0.256-0.255-0.633-0.766-0.74-0.718c-0.911,0.415-0.369,1.255-0.499,1.913
	c-1.035,4.246-2.107,8.481-3.099,12.737c-1.207,5.202-2.146,10.412-5.523,14.944c-3.119,4.181-6.427,8.309-8.376,13.21
	c-0.407,0.48-0.097,0.546,0.335,0.543c0.364-0.048,0.729-0.097,1.098-0.145c-0.453,0.44-0.903,0.885-1.35,1.322
	c-0.589-0.021-1.06,0.191-1.42,0.646c-0.734-1.515,0.651-2.771,0.541-4.205c0.778-0.729,1.017-1.694,1.259-2.666
	c0.14-0.561,0.548-1.196-0.38-1.431c-0.609-0.152-1.326-0.168-1.555,0.559c-0.768,2.42-2.826,4.252-3.279,6.808
	c-0.342,0.363-0.684,0.722-1.024,1.085c-0.757,0.542-1.087,1.338-1.561,2.093c-1.719,2.725-2.72,5.84-4.851,8.325
	c-0.17,0.835-0.406,1.639-1.184,2.162c-0.413-0.126-0.58,0.097-0.659,0.445c-0.712,0.165-0.549,0.769-0.654,1.24
	c-3.266,1.379-6.188,3.293-8.977,5.42l0.06-0.023c-0.454,0.025-0.874,0.104-0.993,0.625l0.054-0.041
	c-0.325,0.215-0.65,0.429-0.98,0.642l0.047-0.024c-0.837,0.034-1.303,0.532-1.604,1.232l0.057-0.044
	c-0.996-0.071-1.575,0.472-1.986,1.265c-0.572,0.396-1.146,0.793-1.719,1.189c-1.43-0.335-2.219,0.769-3.241,1.353
	c-0.188-0.021-0.3,0.056-0.347,0.232c-1.367,0.59-2.341,1.865-3.903,2.115c-0.007-0.262-0.011-0.523-0.017-0.785
	c0.692-0.733,1.365-1.479,2.071-2.197c5.694-5.766,11.392-11.525,17.091-17.287c0.161-0.086,0.284-0.208,0.372-0.363
	c0.219-0.205,0.437-0.412,0.657-0.615c0.208-0.202,0.411-0.404,0.62-0.605c0.206-0.2,0.414-0.402,0.621-0.602
	c0.209-0.205,0.421-0.411,0.631-0.617c0.203-0.198,0.412-0.4,0.619-0.6c0.205-0.2,0.414-0.399,0.619-0.603
	c0.21-0.205,0.419-0.41,0.629-0.618c0.204-0.196,0.413-0.397,0.618-0.598c0.142-0.337,1.071-0.385,0.472-0.944
	c-0.273-0.257-0.714,0.012-0.842,0.451c-0.208,0.201-0.416,0.401-0.62,0.602c-0.208,0.199-0.414,0.398-0.624,0.601
	c-0.205,0.199-0.412,0.401-0.62,0.597c-0.204,0.201-0.412,0.402-0.621,0.603c-0.206,0.199-0.412,0.397-0.622,0.6
	c-0.211,0.195-0.422,0.391-0.634,0.584c-0.207,0.196-0.419,0.397-0.628,0.596c-0.211,0.193-0.425,0.387-0.638,0.582
	c-0.207,0.196-0.418,0.395-0.624,0.593c-9.298,7.678-17.431,16.538-26.439,24.762c-1.831-3.313-2.192-7.111-5.069-9.63
	c-0.386-0.008-0.775-0.016-1.161-0.025c-0.569-0.684-0.863-1.465-0.904-2.341c0.132-0.15,0.261-0.301,0.394-0.449
	c-0.235-0.074-0.471-0.144-0.704-0.217c-3.044-4.894-3.608-9.593,0.948-14.045c0.922-0.9,1.654-2.086,2.152-3.27
	c2.205-5.254,6.417-7.527,11.955-8.716c3.398-0.73,7.199-1.08,9.998-3.519c8.742-7.612,17.324-15.395,26.158-22.897
	c3.594-3.055,4.632-7.238,6.279-11.162c1.08-2.569-1.271-4.607-2.031-6.859c-1.019-3.011-2.226-6.357-4.446-8.482
	c-2.296-2.198-5.904-3.108-8.94-4.579c-0.212-0.616-0.613-0.661-1.13-0.351c0.256,0.254,0.517,0.508,0.775,0.761
	c4.714,3.157,8.711,6.718,10.522,12.38c1.514,4.736,0.37,12.257-3.29,15.766c-4.554,4.364-9.4,8.481-13.603,13.142
	c-6.815,7.556-14.79,13.029-25.029,15.148c-0.793,0.167-1.527,0.619-2.323,0.783c-1.339,0.276-2.098,1.094-2.776,2.172
	c-2.905,4.603-5.857,9.17-8.814,13.741c-0.682,1.05-0.788,1.912-0.387,3.263c1.33,4.52,2.926,8.937,4.71,13.298
	c-0.287,0.017-0.573,0.036-0.859,0.053c-3.338-5.27-6.619-10.581-10.063-15.785c-0.869-1.319-0.356-2.235,0.185-3.301
	c2.92-5.725,5.866-11.438,8.746-17.187c0.566-1.131,1.332-1.879,2.451-2.522c7.008-4.017,13.956-8.134,20.96-12.157
	c1.047-0.602,1.689-1.338,2.153-2.412c4.029-9.386,8.108-18.754,12.148-28.138c0.308-0.712,1.015-1.478,0.484-2.252
	c-1.962-2.873-3.842-5.825-6.556-8.686c-0.23,1.596,0.64,2.221,0.855,3.059c0.88,3.448,3.684,6.519,2.078,10.46
	c-3.32,8.142-6.419,16.374-10.534,24.195c-0.488,0.928-1.167,1.688-2.13,2.092c-3.631,1.517-6.538,4.188-10.009,5.898
	c-8.786,4.316-15.183,10.644-18.641,19.681c-0.71,1.857-1.589,3.771-2.857,5.289c-3.031,3.624-1.929,6.923,0.309,10.29
	c0.613,0.924,1.265,1.831,1.789,2.803c1.37,2.531,3.497,4.65,4.352,7.466c-2.907-1.218-4.661-3.587-6.367-6.001
	c-1.012-1.435-1.473-3.231-2.998-4.333c-1.616-3.53-3.149-7.104-4.879-10.579c-0.819-1.637-1.127-3.385-0.611-4.937
	c1.411-4.243,3.056-8.443,5.473-12.259c5.547-8.75,13.761-15.994,15.813-26.707c0.826-4.305,3.384-8.208,3.45-12.678
	c0.096-6.499,0.036-13.003-0.085-19.503c-0.045-2.471,0.967-2.458,2.78-1.529c2.457,1.26,4.877,2.651,7.455,3.614
	c2.014,0.753,4.278,2.065,6.442,0.751c4.679-2.849,5.645-5.434,4.385-10.519c-0.023-0.098-0.044-0.196-0.07-0.294
	c-2.103-8.377-2.117-8.333-10.556-11.009c-1.81-0.575-3.225-0.501-4.921,0.454c-8.045,4.543-16.065,9.134-24.541,12.916
	c-1.714,0.765-2.993,2.022-4.231,3.404c-3.032,3.382-5.361,7.337-8.92,10.29c-0.405,0-0.808,0-1.216,0
	c0.174-0.302,0.35-0.606,0.523-0.907c0.258-0.344,0.603-0.683,0.003-1.022c0.152,0.058,0.303,0.112,0.456,0.165
	c0.023-0.091,0.051-0.184,0.074-0.276c-0.165,0.062-0.331,0.121-0.499,0.183c-0.234,0.176-0.474,0.355-0.711,0.531
	c-1.83-0.03-0.937-0.947-0.361-1.374c2.249-1.661,3.407-4.169,5.25-6.114c2.763-2.911,2.792-6.66,4.217-10.456
	c-3.278,0.647-5.342,1.882-6.029,4.974c-1.516-1.485-0.325-2.66,0.128-3.742c0.29-0.691,1.059-1.202,1.631-1.775
	c3.187-3.201,3.181-3.244-1.215-4.849c4.336-3.395,9.518-5.276,14.088-9.053c-4.192,0.454-7.803,0.845-11.91,1.292
	c2.19-2.222,4.848-2.202,7.11-2.891c7.92-2.407,15.943-4.484,23.853-6.92c2.666-0.82,5.097,0.727,7.758-0.014
	c-0.414-1.952-2.752-1.705-3.702-3.363c2.235-0.33,4.303,0.7,6.456,1.085c4.196,0.751,8.307,1.792,12.384,3.02
	c2.146,0.647,3.895,1.722,4.229,3.789c0.615,3.797,2.456,4.482,6.164,3.652c4.16-0.93,7.609,1.625,11.9,3.439
	c-2.953,0.842-5.26,0.335-7.504,0.52c-0.561,0.048-1.352-0.302-1.605,0.444c-0.322,0.953,0.597,1.143,1.218,1.402
	c1.591,0.664,3.263,1.168,4.806,1.925c1.866,0.918,3.495,1.75,4.664,3.958c1.624,3.069,4.548,5.503,6.965,8.171
	c2.508,2.764,5.071,5.48,7.609,8.216C114.661,40.063,114.666,40.439,114.672,40.817z M74.376,42.649
	c0.125,0.185,0.253,0.367,0.379,0.546c0.047-0.08,0.144-0.169,0.128-0.242c-0.06-0.327-0.262-0.4-0.56-0.242
	c-0.017-0.239-0.031-0.481-0.048-0.721c-0.122,0.041-0.246,0.081-0.37,0.121C74.062,42.292,74.22,42.472,74.376,42.649z"/>
<path fill-rule="evenodd" clip-rule="evenodd" fill="#FCECAF" d="M17.922,45.676c3.559-2.953,5.888-6.908,8.92-10.29
	c1.238-1.382,2.518-2.639,4.231-3.404c8.476-3.782,16.496-8.373,24.541-12.916c1.696-0.956,3.111-1.029,4.921-0.454
	c8.438,2.676,8.453,2.631,10.556,11.009c0.026,0.098,0.047,0.196,0.07,0.294c1.26,5.085,0.294,7.67-4.385,10.519
	c-2.164,1.314-4.429,0.002-6.442-0.751c-2.578-0.963-4.998-2.354-7.455-3.614c-1.813-0.929-2.825-0.942-2.78,1.529
	c0.121,6.5,0.181,13.004,0.085,19.503c-0.066,4.47-2.624,8.373-3.45,12.678C44.681,80.49,36.467,87.734,30.92,96.484
	c-2.417,3.815-4.062,8.016-5.473,12.259c-0.516,1.552-0.208,3.3,0.611,4.937c1.729,3.476,3.263,7.049,4.879,10.579
	c-0.826,1.227-1.387,0.205-1.851-0.288c-0.603-0.646-1.041-1.439-1.548-2.165c-0.172-0.078-0.268-0.209-0.28-0.385l-0.051-0.06
	c-0.205-0.192-0.407-0.386-0.612-0.578l0.006,0.002c-0.21-0.201-0.417-0.403-0.627-0.604l0.006,0.006
	c-0.211-0.203-0.418-0.403-0.625-0.607l0.004,0.004c-0.21-0.201-0.42-0.402-0.628-0.604l0.01,0.009
	c-0.21-0.202-0.42-0.408-0.626-0.61l0.006,0.007c-0.211-0.199-0.42-0.401-0.63-0.608l0.014,0.01
	c-0.21-0.204-0.416-0.403-0.619-0.604l-0.012-0.009c-0.206-0.198-0.406-0.393-0.611-0.592l-0.009-0.011
	c-0.102-0.696-0.449-1.154-1.232-1.191l-0.007-0.007c-0.212-0.201-0.42-0.397-0.632-0.598l0.005,0.011
	c0.044-1.172-0.836-1.674-1.695-2.195c-3.332-2.612-3.666-5.653-1.968-9.413c1.956-4.336,3.431-8.875,5.116-13.326
	c2.409-0.875,4.917-1.499,7.458-1.547c3.099-0.063,4.816-1.659,6.038-4.123c0.426,0.054,0.657-0.131,0.704-0.545
	c0.428-0.094,0.699-0.276,0.451-0.749c0.149-0.001,0.3-0.005,0.445-0.006c-0.04-0.104-0.077-0.21-0.115-0.313
	c-0.094,0.127-0.189,0.25-0.284,0.376c-0.215,0.189-0.43,0.38-0.642,0.571c-0.21,0.202-0.411,0.401-0.62,0.604
	c-2.629,2.553-5.94,3.543-9.523,4.016c-1.395,0.184-2.749,0.646-4.123,0.983c-3.073-0.127-4.334,2.377-6.196,4.01
	c-2.106-1.408-3.206-3.96-5.813-4.792c-2.552-0.577-0.459-2.264-0.85-3.354c-0.421-0.904-0.469-1.801-0.413-2.82
	c0.293-5.196-0.94-10.019-4.213-14.249c-0.15-1.405,0.395-2.396,1.657-3.187c1.285-0.808,2.404-1.858,3.618-2.774
	c1.592-1.201,1.52-2.122-0.32-3.063c-1.863-0.95-4.023-1.407-5.513-3c2.227-1.458,4.64-2.685,6.278-4.85l-0.054,0.043
	c1.176-0.189,2.103-0.696,2.528-1.849l-0.046,0.039c1.195-0.154,2.103-0.694,2.53-1.841l-0.05,0.044
	c0.923-0.004,1.605-0.351,1.913-1.247l-0.052,0.041C17.175,46.303,17.674,46.241,17.922,45.676z M43.082,42.719
	c-5.112,0.475-11.073-3.107-14.513,3.633C33.674,46.37,38.975,47.271,43.082,42.719z M11.575,74.267
	c4.792,3.875,10.122,2.908,15.441,2.031c0.027-0.263,0.051-0.53,0.074-0.795C21.919,75.093,16.747,74.681,11.575,74.267z
	 M37.97,81.695l0.063,0.204l0.068-0.217L37.97,81.695z"/>
<path fill-rule="evenodd" clip-rule="evenodd" fill="#F6F6F5" d="M40.303,134.593c-0.854-2.815-2.981-4.935-4.352-7.466
	c-0.524-0.972-1.176-1.879-1.789-2.803c-2.237-3.367-3.34-6.666-0.309-10.29c1.269-1.519,2.147-3.432,2.857-5.289
	c3.458-9.037,9.854-15.364,18.641-19.681c3.471-1.71,6.378-4.382,10.009-5.898c0.963-0.403,1.642-1.164,2.13-2.092
	c4.115-7.821,7.214-16.054,10.534-24.195c1.605-3.941-1.198-7.012-2.078-10.46c-0.216-0.838-1.086-1.463-0.855-3.059
	c2.714,2.86,4.594,5.813,6.556,8.686c0.53,0.774-0.177,1.54-0.484,2.252c-4.04,9.384-8.119,18.752-12.148,28.138
	c-0.464,1.074-1.106,1.811-2.153,2.412c-7.004,4.023-13.952,8.141-20.96,12.157c-1.119,0.644-1.885,1.392-2.451,2.522
	c-2.88,5.748-5.826,11.462-8.746,17.187c-0.541,1.065-1.054,1.981-0.185,3.301c3.443,5.204,6.725,10.516,10.063,15.785
	c0.506,0.947,1.146,1.853,1.488,2.851c0.481,1.413-0.874,0.366-1.21,0.735c-0.115-0.049-0.202-0.137-0.252-0.248
	c0.104-0.53-0.006-0.93-0.668-0.967l0.052,0.059c0.036-0.47-0.216-0.661-0.675-0.657l0.059,0.06
	c0.013-0.448-0.211-0.667-0.676-0.658l0.056,0.056c0.018-0.456-0.247-0.64-0.678-0.664l0.065,0.064
	c-0.039-0.407-0.264-0.63-0.685-0.664l0.06,0.063c-0.015-0.429-0.241-0.648-0.679-0.661l0.062,0.06
	c-0.044-0.399-0.22-0.672-0.686-0.661L40.303,134.593z"/>
<path fill-rule="evenodd" clip-rule="evenodd" fill="#E81E05" d="M21.841,89.851c-1.686,4.451-3.16,8.99-5.116,13.326
	c-1.698,3.76-1.364,6.801,1.963,9.413c-1.085,0.535-0.192,1.151-0.073,1.735c0.997,0.94,0.156,2.352,0.947,3.375
	c-5.777-2.764-10.382-13.921-4.157-22.105c0.554-0.817,0.776-1.636,0.029-2.467c1.862-1.633,3.123-4.137,6.196-4.01
	C21.701,89.364,21.772,89.605,21.841,89.851z M13.304,100.237c0.07-0.074,0.13-0.135,0.19-0.194
	c-0.119-0.068-0.231-0.15-0.358-0.187c-0.043-0.011-0.12,0.106-0.184,0.165C13.068,100.093,13.183,100.16,13.304,100.237z"/>
<path fill-rule="evenodd" clip-rule="evenodd" fill="#E81E05" d="M3.587,55.889c1.489,1.593,3.649,2.05,5.513,3
	c1.84,0.94,1.912,1.861,0.32,3.063c-1.214,0.916-2.333,1.967-3.618,2.774c-1.263,0.791-1.808,1.781-1.657,3.187
	c-0.144-0.044-0.283-0.05-0.429-0.025c-1.152-2.483-2.442-4.92-3.417-7.468c-0.752-1.968-0.087-3.646,2.021-4.58
	C2.739,55.856,3.164,55.872,3.587,55.889z"/>
<path fill-rule="evenodd" clip-rule="evenodd" fill="#F6F6F5" d="M98.283,106.98c1.949-4.901,5.257-9.029,8.376-13.21
	c3.378-4.532,4.316-9.742,5.523-14.944c0.991-4.256,2.063-8.491,3.099-12.737c0.814,0.206,0.875,0.904,0.658,1.403
	c-0.921,2.135-0.87,4.443-1.415,6.638c-1.351,5.454-1.205,11.208-3.529,16.469c0,0.171-0.02,0.338-0.062,0.509
	c-0.773,0.172-1.393,0.466-1.206,1.408l-0.043,0.051c-0.398-0.021-0.562,0.186-0.565,0.55l-0.052,0.063
	c-0.947,0.226-1.258,0.861-1.19,1.74l-0.052,0.062c-0.851,0.132-1.128,0.706-1.197,1.444l-0.031,0.049
	c-0.55,0.339-0.855,0.774-0.586,1.433l-0.054,0.073c-1.286,0.004-1.439,0.738-1.187,1.733l-0.059,0.067
	c-0.936-0.144-1.215,0.344-1.167,1.147l-0.061,0.066c-1.062,0.983-2.745,1.675-1.829,3.6c-0.051,0.673-0.34,1.121-1.108,1.128
	c-0.961,0.203-1.253,0.712-0.771,1.577l-0.06,0.079c-0.368,0.048-0.733,0.097-1.098,0.145
	C98.505,107.345,98.396,107.163,98.283,106.98z"/>
<path fill-rule="evenodd" clip-rule="evenodd" fill="#EA2E26" d="M110.995,90.599c2.324-5.261,2.179-11.015,3.529-16.469
	c0.545-2.194,0.494-4.503,1.415-6.638c0.217-0.499,0.156-1.197-0.658-1.403c0.13-0.658-0.412-1.498,0.499-1.913
	c0.107-0.048,0.484,0.463,0.74,0.718c-0.022,0.526-0.383,1.229,0.666,1.188l0.035-0.055c-0.855,0.837,0.328,1.561,0.145,2.401
	c-0.133,0.62,0.212,1.21,0.979,1.229c0.689,0.021,1.133-0.371,1.253-1.056c0.016-0.097,0.03-0.211-0.011-0.292
	c-0.03-0.055-0.157-0.063-0.505-0.178c-0.078,1.05-0.154,2.048-0.268,3.544c-0.036-1.893-1.047-2.839-2.18-2.796
	c-1.112,0.046-0.642,1.448-0.788,2.27c-0.945,5.369-1.961,10.73-2.747,16.121C112.873,88.807,112.219,89.798,110.995,90.599z"/>
<path fill-rule="evenodd" clip-rule="evenodd" fill="#EA2E26" d="M44.859,139.386c0.336-0.369,1.691,0.678,1.21-0.735
	c-0.343-0.998-0.982-1.903-1.488-2.851c0.286-0.017,0.572-0.036,0.859-0.053c0.533,0.251,0.63,1.249,1.312,1.02
	c0.777-0.255,0.313-1.007,0.178-1.513c-0.283-1.038-0.666-2.051-1.003-3.073c0.386,0.01,0.775,0.018,1.161,0.025
	c0.865,4.186,3.099,7.896,4.454,11.913c0.109,0.327,0.748,0.487,1.143,0.725l-0.053-0.034c-0.589,0.785-0.724,2.376-2.168,0.362
	C48.923,143.021,46.756,141.295,44.859,139.386z"/>
<path fill-rule="evenodd" clip-rule="evenodd" fill="#EA2E26" d="M3.716,67.887c0.146-0.024,0.285-0.019,0.429,0.025
	c3.272,4.23,4.506,9.053,4.213,14.249c-0.056,1.02-0.008,1.916,0.413,2.82c-0.097-0.913-1.235-1.331-1.146-2.349
	C8.087,77.281,5.451,72.694,3.716,67.887z"/>
<path fill-rule="evenodd" clip-rule="evenodd" fill="#EA2E26" d="M86.097,119.914c2.131-2.485,3.132-5.601,4.851-8.325
	c0.474-0.755,0.804-1.551,1.561-2.093C91.725,113.752,89.716,117.298,86.097,119.914z"/>
<path fill-rule="evenodd" clip-rule="evenodd" fill="#EA2E26" d="M93.532,108.411c0.453-2.556,2.512-4.388,3.279-6.808
	c0.229-0.727,0.945-0.711,1.555-0.559c0.928,0.234,0.52,0.87,0.38,1.431c-0.242,0.972-0.48,1.938-1.259,2.666
	C95.128,105.052,95.211,107.729,93.532,108.411z"/>
<path fill-rule="evenodd" clip-rule="evenodd" fill="#EA2E26" d="M72.81,130.359l-0.047,0.024c0.244,0.095,0.515,0.305,0.715,0.251
	c0.513-0.128,0.368-0.536,0.266-0.893l-0.054,0.041c0.812,0.508,1.102,0.235,0.993-0.625l-0.06,0.023
	c1.197,1.029,1.858-0.223,2.721-0.604c-0.774,2.248-3.216,2.45-4.845,3.642c-1.528,1.114-3.274,1.959-4.923,2.923
	c-0.007-0.382-0.013-0.764-0.02-1.141c0.572-0.396,1.146-0.793,1.719-1.189c1.036,0.126,1.945,0.075,1.986-1.265l-0.057,0.044
	C72.329,131.896,73.053,131.718,72.81,130.359z"/>
<path fill-rule="evenodd" clip-rule="evenodd" fill="#EA2E26" d="M15.434,93.128c0.747,0.831,0.524,1.649-0.029,2.467
	c-1.149-3.001-4.219-4.567-5.784-7.259C12.228,89.168,13.327,91.72,15.434,93.128z"/>
<path fill-rule="evenodd" clip-rule="evenodd" fill="#F6F6F5" d="M77.344,128.578c-0.862,0.381-1.523,1.633-2.721,0.604
	c2.788-2.127,5.711-4.041,8.977-5.42c0.224,0.206,0.45,0.413,0.678,0.62c-0.427,0.407-0.849,0.815-1.275,1.225l0.067-0.057
	c-1.185,0.412-2.333,0.886-3.166,1.854l0.066-0.051c-0.747,0.415-1.706,0.476-2.239,1.246l-0.204,0.034L77.344,128.578z"/>
<path fill-rule="evenodd" clip-rule="evenodd" fill="#EA2E26" d="M3.587,55.889c-0.423-0.017-0.848-0.032-1.267-0.05
	c2.367-1.822,4.509-3.974,7.545-4.8C8.227,53.204,5.813,54.431,3.587,55.889z"/>
<path fill-rule="evenodd" clip-rule="evenodd" fill="#EA2E26" d="M96.946,109.347c0.36-0.454,0.831-0.667,1.42-0.646
	c-0.816,2.174-2.436,3.84-3.932,5.624C95.522,112.77,94.754,110.405,96.946,109.347z"/>
<path fill-rule="evenodd" clip-rule="evenodd" fill="#EA2E26" d="M60.534,138.846c-1.77,1.054-3.087,2.895-5.445,2.926l0.059,0.054
	c1.251-1.61,2.612-3.112,4.359-4.241C60.177,137.752,59.132,139.233,60.534,138.846z"/>
<path fill-rule="evenodd" clip-rule="evenodd" fill="#EA2E26" d="M114.672,40.817c-0.006-0.378-0.011-0.754-0.017-1.131
	c2.367,1.287,4.731,2.571,7.099,3.856C119.206,43.086,116.837,42.202,114.672,40.817z"/>
<path fill-rule="evenodd" clip-rule="evenodd" fill="#FBD7FE" d="M60.534,138.846c-1.402,0.388-0.357-1.094-1.027-1.262l-0.07,0.02
	c0.208,0.032,0.416,0.065,0.629,0.099c1.563-0.25,2.536-1.525,3.903-2.115c0.164,0.187,0.326,0.372,0.489,0.558
	c-0.227,0.326-0.45,0.65-0.677,0.979C63.082,138.373,62.005,138.959,60.534,138.846z"/>
<path fill-rule="evenodd" clip-rule="evenodd" fill="#FCECAF" d="M101.655,104.595c-0.916-1.925,0.768-2.616,1.829-3.6
	C103.9,102.686,102.516,103.516,101.655,104.595z"/>
<path fill-rule="evenodd" clip-rule="evenodd" fill="#FEA202" d="M18.614,114.325c-0.119-0.584-1.012-1.2,0.073-1.735
	c0.864,0.521,1.744,1.023,1.7,2.195C19.797,114.635,19.207,114.479,18.614,114.325z"/>
<path fill-rule="evenodd" clip-rule="evenodd" fill="#EA2E26" d="M79.903,127.404c0.833-0.969,1.981-1.442,3.166-1.854
	C82.387,126.767,81.306,127.345,79.903,127.404z"/>
<path fill-rule="evenodd" clip-rule="evenodd" fill="#FBD7FE" d="M67.557,134.002c0.007,0.377,0.013,0.759,0.02,1.141l-0.179,0.056
	l-0.183-0.028c-0.627,0.213-1.249,0.424-1.876,0.642c-0.34-0.152-0.684-0.302-1.023-0.457
	C65.338,134.771,66.127,133.667,67.557,134.002z"/>
<path fill-rule="evenodd" clip-rule="evenodd" fill="#EA2E26" d="M14.824,47.432c-0.428,1.146-1.335,1.687-2.53,1.841
	C12.65,48.035,13.662,47.634,14.824,47.432z"/>
<path fill-rule="evenodd" clip-rule="evenodd" fill="#EA2E26" d="M12.34,49.233c-0.426,1.152-1.353,1.659-2.528,1.849
	C10.019,49.646,11.114,49.357,12.34,49.233z"/>
<path fill-rule="evenodd" clip-rule="evenodd" fill="#EA2E26" d="M77.73,128.6c0.533-0.771,1.492-0.831,2.239-1.246
	C79.486,128.212,78.893,128.886,77.73,128.6z"/>
<path fill-rule="evenodd" clip-rule="evenodd" fill="#FCECAF" d="M107.877,94.92c-0.067-0.879,0.243-1.515,1.19-1.74
	C109.285,94.154,109.086,94.86,107.877,94.92z"/>
<path fill-rule="evenodd" clip-rule="evenodd" fill="#EA2E26" d="M16.688,46.229c-0.308,0.896-0.99,1.243-1.913,1.247
	C15.051,46.536,15.667,46.093,16.688,46.229z"/>
<path fill-rule="evenodd" clip-rule="evenodd" fill="#FCECAF" d="M104.771,99.714c-0.253-0.995-0.1-1.729,1.187-1.733
	C106.005,98.843,105.705,99.481,104.771,99.714z"/>
<path fill-rule="evenodd" clip-rule="evenodd" fill="#F6F6F5" d="M84.254,122.521c0.079-0.349,0.246-0.571,0.659-0.445
	c0.035,0.415,1.111,0.455,0.518,0.982C85.069,123.376,84.51,123.004,84.254,122.521z"/>
<path fill-rule="evenodd" clip-rule="evenodd" fill="#FCECAF" d="M103.545,100.929c-0.048-0.804,0.231-1.291,1.167-1.147
	C104.731,100.557,104.577,101.164,103.545,100.929z"/>
<path fill-rule="evenodd" clip-rule="evenodd" fill="#EA2E26" d="M83.002,125.606c0.427-0.409,0.849-0.817,1.275-1.225
	C84.171,125.102,84.172,125.93,83.002,125.606z"/>
<path fill-rule="evenodd" clip-rule="evenodd" fill="#FEA202" d="M21.021,115.379c0.783,0.037,1.131,0.495,1.232,1.191
	C21.841,116.174,21.432,115.777,21.021,115.379z"/>
<path fill-rule="evenodd" clip-rule="evenodd" fill="#FCECAF" d="M106.628,96.426c0.069-0.738,0.347-1.313,1.197-1.444
	C108.075,95.968,107.44,96.264,106.628,96.426z"/>
<path fill-rule="evenodd" clip-rule="evenodd" fill="#FCECAF" d="M109.728,92.516c-0.187-0.942,0.433-1.236,1.206-1.408
	C110.875,91.85,110.49,92.334,109.728,92.516z"/>
<path fill-rule="evenodd" clip-rule="evenodd" fill="#FCECAF" d="M106.011,97.907c-0.27-0.658,0.036-1.094,0.586-1.433
	C106.811,97.107,106.835,97.672,106.011,97.907z"/>
<path fill-rule="evenodd" clip-rule="evenodd" fill="#EA2E26" d="M65.339,135.812c0.627-0.218,1.249-0.429,1.876-0.642
	C66.719,135.737,66.073,135.894,65.339,135.812z"/>
<path fill-rule="evenodd" clip-rule="evenodd" fill="#EA2E26" d="M99.775,107.3c-0.481-0.865-0.189-1.374,0.771-1.577
	C100.291,106.247,100.032,106.773,99.775,107.3z"/>
<path fill-rule="evenodd" clip-rule="evenodd" fill="#EA2E26" d="M53.23,143.567c0.303,0.641-0.099,0.963-0.599,1.242l0.053,0.034
	c-0.51-0.739,0.196-0.911,0.605-1.219L53.23,143.567z"/>
<path fill-rule="evenodd" clip-rule="evenodd" fill="#FEA202" d="M27.259,121.421c0.013,0.176,0.108,0.307,0.28,0.385
	C27.443,121.674,27.349,121.548,27.259,121.421z"/>
<path fill-rule="evenodd" clip-rule="evenodd" fill="#EA2E26" d="M17.922,45.676c-0.248,0.565-0.747,0.627-1.286,0.594
	c-0.042-0.138-0.102-0.274-0.107-0.414c-0.002-0.058,0.115-0.121,0.178-0.18C17.114,45.676,17.517,45.676,17.922,45.676z"/>
<path fill-rule="evenodd" clip-rule="evenodd" fill="#FEA202" d="M25.355,119.579c0.207,0.204,0.414,0.404,0.625,0.607
	C25.77,119.983,25.563,119.783,25.355,119.579z"/>
<path fill-rule="evenodd" clip-rule="evenodd" fill="#FEA202" d="M25.975,120.181c0.21,0.201,0.417,0.403,0.627,0.604
	C26.392,120.584,26.185,120.382,25.975,120.181z"/>
<path fill-rule="evenodd" clip-rule="evenodd" fill="#FEA202" d="M26.596,120.783c0.205,0.192,0.407,0.386,0.612,0.578
	C27.003,121.169,26.801,120.976,26.596,120.783z"/>
<path fill-rule="evenodd" clip-rule="evenodd" fill="#FCECAF" d="M109.119,93.116c0.004-0.364,0.167-0.57,0.565-0.55
	C109.677,92.919,109.541,93.158,109.119,93.116z"/>
<path fill-rule="evenodd" clip-rule="evenodd" fill="#EA2E26" d="M40.215,134.565c0.466-0.011,0.642,0.262,0.686,0.661
	C40.218,135.448,40.115,135.109,40.215,134.565z"/>
<path fill-rule="evenodd" clip-rule="evenodd" fill="#EA2E26" d="M40.839,135.167c0.438,0.013,0.664,0.232,0.679,0.661
	C40.857,136.026,40.632,135.809,40.839,135.167z"/>
<path fill-rule="evenodd" clip-rule="evenodd" fill="#EA2E26" d="M41.458,135.766c0.421,0.034,0.646,0.257,0.685,0.664
	C41.548,136.562,41.243,136.416,41.458,135.766z"/>
<path fill-rule="evenodd" clip-rule="evenodd" fill="#EA2E26" d="M42.077,136.365c0.431,0.024,0.695,0.208,0.678,0.664
	C41.988,137.327,41.959,136.921,42.077,136.365z"/>
<path fill-rule="evenodd" clip-rule="evenodd" fill="#EA2E26" d="M63.781,137.123c0.227-0.328,0.45-0.652,0.677-0.979
	C64.705,136.777,64.25,136.955,63.781,137.123z"/>
<path fill-rule="evenodd" clip-rule="evenodd" fill="#EA2E26" d="M42.699,136.974c0.465-0.009,0.688,0.21,0.676,0.658
	C42.844,137.71,42.364,137.736,42.699,136.974z"/>
<path fill-rule="evenodd" clip-rule="evenodd" fill="#EA2E26" d="M43.316,137.572c0.459-0.004,0.711,0.188,0.675,0.657
	C43.313,138.448,43.192,138.129,43.316,137.572z"/>
<path fill-rule="evenodd" clip-rule="evenodd" fill="#EA2E26" d="M43.939,138.171c0.662,0.037,0.772,0.437,0.668,0.967
	C44.202,138.935,43.663,138.818,43.939,138.171z"/>
<path fill-rule="evenodd" clip-rule="evenodd" fill="#EA2E26" d="M55.089,141.771c0.186,0.574-0.02,0.779-0.615,0.604l0.054,0.049
	c0.21-0.202,0.415-0.402,0.62-0.599L55.089,141.771z"/>
<path fill-rule="evenodd" clip-rule="evenodd" fill="#EA2E26" d="M54.474,142.375c0.162,0.563-0.071,0.732-0.624,0.596l0.06,0.056
	c0.205-0.202,0.414-0.404,0.618-0.603L54.474,142.375z"/>
<path fill-rule="evenodd" clip-rule="evenodd" fill="#EA2E26" d="M53.85,142.971c0.141,0.54-0.062,0.741-0.619,0.597l0.06,0.058
	c0.208-0.2,0.412-0.399,0.619-0.599L53.85,142.971z"/>
<path fill-rule="evenodd" clip-rule="evenodd" fill="#FEA202" d="M20.383,114.774c0.212,0.2,0.42,0.396,0.632,0.598
	C20.803,115.171,20.595,114.975,20.383,114.774z"/>
<path fill-rule="evenodd" clip-rule="evenodd" fill="#FEA202" d="M22.263,116.581c0.205,0.199,0.405,0.394,0.611,0.592
	C22.668,116.975,22.468,116.78,22.263,116.581z"/>
<path fill-rule="evenodd" clip-rule="evenodd" fill="#FEA202" d="M22.886,117.182c0.203,0.2,0.409,0.399,0.619,0.604
	C23.295,117.581,23.089,117.382,22.886,117.182z"/>
<path fill-rule="evenodd" clip-rule="evenodd" fill="#FEA202" d="M23.491,117.775c0.21,0.207,0.419,0.409,0.63,0.608
	C23.91,118.185,23.701,117.982,23.491,117.775z"/>
<path fill-rule="evenodd" clip-rule="evenodd" fill="#FEA202" d="M24.115,118.377c0.206,0.202,0.416,0.408,0.626,0.61
	C24.531,118.785,24.321,118.579,24.115,118.377z"/>
<path fill-rule="evenodd" clip-rule="evenodd" fill="#FEA202" d="M24.731,118.979c0.208,0.202,0.418,0.403,0.628,0.604
	C25.149,119.382,24.939,119.181,24.731,118.979z"/>
<path fill-rule="evenodd" clip-rule="evenodd" fill="#F6F6F5" d="M45.927,132.181c0.337,1.022,0.72,2.035,1.003,3.073
	c0.136,0.506,0.6,1.258-0.178,1.513c-0.682,0.229-0.778-0.769-1.312-1.02c-1.784-4.361-3.38-8.778-4.71-13.298
	c-0.401-1.351-0.295-2.213,0.387-3.263c2.957-4.571,5.909-9.139,8.814-13.741c0.679-1.078,1.438-1.896,2.776-2.172
	c0.796-0.164,1.53-0.616,2.323-0.783c10.239-2.119,18.214-7.593,25.029-15.148c4.202-4.66,9.049-8.777,13.603-13.142
	c3.66-3.509,4.804-11.029,3.29-15.766c-1.812-5.662-5.809-9.223-10.522-12.38c0.124-0.134,0.245-0.27,0.354-0.41
	c3.036,1.471,6.645,2.381,8.94,4.579c2.221,2.125,3.428,5.472,4.446,8.482c0.76,2.252,3.111,4.29,2.031,6.859
	c-1.647,3.924-2.686,8.107-6.279,11.162C87.09,84.23,78.508,92.013,69.766,99.625c-2.799,2.438-6.6,2.788-9.998,3.519
	c-5.538,1.188-9.75,3.462-11.955,8.716c-0.498,1.184-1.23,2.369-2.152,3.27c-4.557,4.452-3.992,9.151-0.948,14.045
	c0.105,0.221,0.209,0.443,0.311,0.666C45.063,130.716,45.357,131.497,45.927,132.181z"/>
<path fill-rule="evenodd" clip-rule="evenodd" fill="#F6F6F5" d="M53.909,143.026c-0.207,0.199-0.411,0.398-0.619,0.599
	c-0.409,0.308-1.115,0.479-0.605,1.219c-0.395-0.237-1.033-0.397-1.143-0.725c-1.355-4.018-3.589-7.728-4.454-11.913
	c2.877,2.519,3.238,6.316,5.069,9.63c9.009-8.224,17.142-17.084,26.439-24.762c0.205,0.119,0.41,0.24,0.614,0.358
	c-5.699,5.762-11.396,11.521-17.091,17.287c-0.706,0.718-1.379,1.464-2.071,2.197c-0.205,0.228-0.408,0.458-0.612,0.687l0.07-0.02
	c-1.747,1.129-3.108,2.631-4.359,4.241c-0.205,0.196-0.41,0.396-0.62,0.599C54.323,142.622,54.114,142.824,53.909,143.026z"/>
<path fill-rule="evenodd" clip-rule="evenodd" fill="#F6F6F5" d="M71.262,131.548c-0.041,1.34-0.95,1.391-1.986,1.265
	C69.687,132.02,70.266,131.477,71.262,131.548z"/>
<path fill-rule="evenodd" clip-rule="evenodd" fill="#F6F6F5" d="M72.81,130.359c0.243,1.358-0.48,1.537-1.604,1.232
	C71.507,130.892,71.973,130.394,72.81,130.359z"/>
<path fill-rule="evenodd" clip-rule="evenodd" fill="#F6F6F5" d="M84.228,111.719c0.128-0.439,0.568-0.708,0.842-0.451
	c0.6,0.56-0.33,0.607-0.472,0.944C84.474,112.047,84.35,111.883,84.228,111.719z"/>
<path fill-rule="evenodd" clip-rule="evenodd" fill="#F6F6F5" d="M74.376,42.651c-0.156-0.18-0.314-0.359-0.471-0.54
	c0.124-0.04,0.248-0.08,0.37-0.121c0.017,0.239,0.031,0.481,0.048,0.721L74.376,42.651z"/>
<path fill-rule="evenodd" clip-rule="evenodd" fill="#F6F6F5" d="M86.431,46.055c-0.259-0.253-0.52-0.507-0.775-0.761
	c0.517-0.311,0.918-0.266,1.13,0.351C86.676,45.785,86.555,45.921,86.431,46.055z"/>
<path fill-rule="evenodd" clip-rule="evenodd" fill="#EA2E26" d="M45.022,129.84c-0.102-0.223-0.205-0.445-0.311-0.666
	c0.233,0.073,0.469,0.143,0.704,0.217C45.283,129.539,45.154,129.689,45.022,129.84z"/>
<path fill-rule="evenodd" clip-rule="evenodd" fill="#FEFEFE" d="M117.187,66.081c-1.049,0.041-0.688-0.661-0.666-1.188
	C117.085,65.11,117.731,65.283,117.187,66.081z"/>
<path fill-rule="evenodd" clip-rule="evenodd" fill="#EA2E26" d="M98.283,106.98c0.112,0.183,0.222,0.364,0.335,0.543
	C98.187,107.526,97.876,107.461,98.283,106.98z"/>
<path fill-rule="evenodd" clip-rule="evenodd" fill="#F6F6F5" d="M74.683,129.158c0.108,0.86-0.182,1.133-0.993,0.625
	C73.809,129.263,74.229,129.184,74.683,129.158z"/>
<path fill-rule="evenodd" clip-rule="evenodd" fill="#F6F6F5" d="M73.743,129.742c0.103,0.356,0.247,0.765-0.266,0.893
	c-0.2,0.054-0.471-0.156-0.715-0.251C73.093,130.171,73.418,129.957,73.743,129.742z"/>
<path fill-rule="evenodd" clip-rule="evenodd" fill="#FEFEFE" d="M17.229,43.743c0.603,0.343,0.258,0.682,0,1.025
	c-0.226-0.14-0.452-0.278-0.677-0.42c0.237-0.176,0.477-0.355,0.711-0.531L17.229,43.743z"/>
<path fill-rule="evenodd" clip-rule="evenodd" fill="#FEFEFE" d="M17.264,43.817c0.168-0.062,0.334-0.121,0.499-0.183
	c-0.023,0.093-0.051,0.186-0.074,0.276c-0.153-0.053-0.304-0.107-0.456-0.165C17.229,43.743,17.264,43.817,17.264,43.817z"/>
<path fill-rule="evenodd" clip-rule="evenodd" fill="#EA2E26" d="M59.437,137.604c0.204-0.229,0.407-0.459,0.612-0.687
	c0.006,0.262,0.01,0.523,0.017,0.785C59.853,137.669,59.645,137.636,59.437,137.604z"/>
<path fill-rule="evenodd" clip-rule="evenodd" fill="#F6F6F5" d="M83.607,112.32c0.204-0.2,0.412-0.4,0.62-0.602
	c0.122,0.164,0.246,0.328,0.37,0.493c-0.205,0.2-0.414,0.401-0.618,0.598C83.857,112.648,83.732,112.484,83.607,112.32z"/>
<path fill-rule="evenodd" clip-rule="evenodd" fill="#F6F6F5" d="M74.323,42.711c0.298-0.158,0.5-0.085,0.56,0.242
	c0.016,0.073-0.081,0.162-0.128,0.242c-0.126-0.179-0.254-0.361-0.379-0.544L74.323,42.711z"/>
<path fill-rule="evenodd" clip-rule="evenodd" fill="#F6F6F5" d="M83.979,112.81c-0.21,0.208-0.419,0.413-0.629,0.618
	c-0.124-0.169-0.244-0.34-0.367-0.507c0.21-0.202,0.416-0.401,0.624-0.601C83.732,112.484,83.857,112.648,83.979,112.81z"/>
<path fill-rule="evenodd" clip-rule="evenodd" fill="#F6F6F5" d="M83.351,113.428c-0.205,0.203-0.414,0.402-0.619,0.603
	c-0.124-0.17-0.245-0.341-0.368-0.513c0.208-0.195,0.415-0.397,0.62-0.597C83.106,113.088,83.227,113.259,83.351,113.428z"/>
<path fill-rule="evenodd" clip-rule="evenodd" fill="#F6F6F5" d="M81.742,114.12c0.209-0.2,0.417-0.401,0.621-0.603
	c0.123,0.172,0.244,0.343,0.368,0.513c-0.207,0.199-0.416,0.401-0.619,0.6C81.99,114.46,81.868,114.291,81.742,114.12z"/>
<path fill-rule="evenodd" clip-rule="evenodd" fill="#F6F6F5" d="M81.12,114.72c0.21-0.202,0.416-0.4,0.622-0.6
	c0.126,0.171,0.248,0.34,0.37,0.51c-0.21,0.206-0.422,0.412-0.631,0.617C81.364,115.071,81.24,114.895,81.12,114.72z"/>
<path fill-rule="evenodd" clip-rule="evenodd" fill="#F6F6F5" d="M80.486,115.304c0.212-0.193,0.423-0.389,0.634-0.584
	c0.12,0.175,0.244,0.352,0.361,0.527c-0.207,0.199-0.415,0.401-0.621,0.602C80.735,115.667,80.61,115.486,80.486,115.304z"/>
<path fill-rule="evenodd" clip-rule="evenodd" fill="#F6F6F5" d="M80.86,115.849c-0.209,0.201-0.412,0.403-0.62,0.605
	c-0.127-0.187-0.257-0.371-0.382-0.555c0.209-0.198,0.421-0.399,0.628-0.596C80.61,115.486,80.735,115.667,80.86,115.849z"/>
<path fill-rule="evenodd" clip-rule="evenodd" fill="#F6F6F5" d="M80.24,116.454c-0.221,0.203-0.438,0.41-0.657,0.615
	c-0.12-0.197-0.242-0.393-0.362-0.588c0.213-0.195,0.427-0.389,0.638-0.582C79.983,116.083,80.113,116.268,80.24,116.454z"/>
<path fill-rule="evenodd" clip-rule="evenodd" fill="#F6F6F5" d="M78.597,117.074c0.206-0.198,0.417-0.396,0.624-0.593
	c0.12,0.195,0.242,0.391,0.362,0.588c-0.088,0.155-0.211,0.277-0.372,0.363C79.007,117.314,78.802,117.193,78.597,117.074z"/>
<path fill-rule="evenodd" clip-rule="evenodd" fill="#E81E05" d="M43.082,42.719c-4.107,4.552-9.408,3.651-14.513,3.633
	C32.009,39.612,37.97,43.193,43.082,42.719z"/>
<path fill-rule="evenodd" clip-rule="evenodd" fill="#EA2E26" d="M11.575,74.267c5.172,0.414,10.344,0.826,15.516,1.236
	c-0.023,0.265-0.047,0.532-0.074,0.795C21.697,77.175,16.367,78.142,11.575,74.267z"/>
<path fill-rule="evenodd" clip-rule="evenodd" fill="#EA2E26" d="M21.841,89.851c-0.068-0.245-0.14-0.486-0.211-0.732
	c1.374-0.337,2.729-0.8,4.123-0.983c3.583-0.473,6.895-1.463,9.523-4.016l0.061,0.063c-1.222,2.462-2.939,4.058-6.038,4.121
	C26.758,88.352,24.25,88.976,21.841,89.851z"/>
<polygon fill-rule="evenodd" clip-rule="evenodd" fill="#EA2E26" points="37.97,81.695 38.102,81.683 38.033,81.899 "/>
<path fill-rule="evenodd" clip-rule="evenodd" fill="#EA2E26" d="M35.892,83.515c0.217-0.191,0.432-0.382,0.646-0.571l-0.046-0.057
	c0.248,0.473-0.023,0.655-0.451,0.749L35.892,83.515z"/>
<path fill-rule="evenodd" clip-rule="evenodd" fill="#EA2E26" d="M36.538,82.943c0.095-0.126,0.19-0.249,0.284-0.376
	c0.038,0.104,0.075,0.21,0.115,0.313c-0.146,0.001-0.296,0.005-0.445,0.006L36.538,82.943z"/>
<path fill-rule="evenodd" clip-rule="evenodd" fill="#FEFEFE" d="M13.304,100.237c-0.121-0.077-0.235-0.145-0.352-0.216
	c0.063-0.059,0.141-0.176,0.184-0.165c0.127,0.036,0.239,0.118,0.358,0.187C13.434,100.103,13.374,100.163,13.304,100.237z"/>
</svg>
