<?xml version="1.0" encoding="utf-8"?>
<!-- Generator: Adobe Illustrator 16.0.0, SVG Export Plug-In . SVG Version: 6.00 Build 0)  -->
<!DOCTYPE svg PUBLIC "-//W3C//DTD SVG 1.1//EN" "http://www.w3.org/Graphics/SVG/1.1/DTD/svg11.dtd">
<svg version="1.1" id="Calque_1" xmlns="http://www.w3.org/2000/svg" xmlns:xlink="http://www.w3.org/1999/xlink" x="0px" y="0px"
	 width="121.77px" height="146.24px" viewBox="0 0 121.77 146.24" enable-background="new 0 0 121.77 146.24" xml:space="preserve">
<path fill-rule="evenodd" clip-rule="evenodd" fill="#02CF2B" d="M93.516,108.476c-0.299,0.311-0.594,0.624-0.891,0.935
	c-0.73,0.408-1.201,0.992-1.591,1.741c-1.571,2.993-2.925,6.105-4.938,8.871c-0.364,0.694-0.359,1.591-1.191,2.028
	c-0.414-0.126-0.586,0.094-0.661,0.441c-0.712,0.171-0.554,0.772-0.659,1.241c-3.266,1.379-6.182,3.293-8.968,5.415l-0.074-0.04
	c-0.419,0.049-0.767,0.183-0.865,0.637l0.041-0.029c-0.323,0.212-0.645,0.428-0.967,0.64l-0.091-0.045
	c-0.757,0.12-1.192,0.597-1.467,1.248l0.049-0.038c-0.981-0.056-1.578,0.437-1.939,1.262c-0.599,0.407-1.196,0.813-1.795,1.218
	c-1.441-0.363-2.198,0.805-3.234,1.354c-0.156-0.011-0.259,0.057-0.302,0.204c-1.489,0.685-2.605,2.009-4.277,2.356
	c0.101-0.339,0.194-0.68,0.287-1.02c0.699-0.729,1.395-1.461,2.103-2.182c5.7-5.767,11.402-11.533,17.107-17.3
	c0.162-0.093,0.287-0.219,0.383-0.375c0.218-0.206,0.437-0.411,0.652-0.618c0.208-0.201,0.415-0.402,0.62-0.604
	c0.21-0.199,0.416-0.399,0.625-0.601c0.211-0.204,0.417-0.412,0.629-0.617c0.204-0.199,0.41-0.397,0.618-0.601
	c0.206-0.198,0.411-0.401,0.618-0.601c0.209-0.206,0.418-0.411,0.629-0.616c0.205-0.202,0.413-0.401,0.62-0.6
	c0.138-0.337,1.063-0.389,0.462-0.942c-0.275-0.255-0.714,0.02-0.837,0.453c-0.205,0.199-0.414,0.399-0.62,0.6
	c-0.205,0.201-0.414,0.4-0.619,0.6c-0.208,0.199-0.416,0.4-0.621,0.603c-0.206,0.198-0.414,0.4-0.622,0.601
	c-0.206,0.198-0.413,0.397-0.62,0.596c-0.213,0.196-0.425,0.392-0.636,0.588c-0.21,0.196-0.42,0.395-0.629,0.593
	c-0.212,0.195-0.424,0.39-0.636,0.582c-0.209,0.198-0.415,0.396-0.625,0.595c-9.3,7.673-17.427,16.538-26.392,24.715
	c-1.979-3.192-2.161-7.075-5.105-9.555c-0.4-0.012-0.801-0.029-1.199-0.041c-0.331-0.791-0.662-1.585-0.993-2.379
	c0.165-0.127,0.332-0.254,0.5-0.378c-0.24-0.084-0.484-0.168-0.726-0.252c-0.281-0.797-0.567-1.595-0.851-2.392
	c0.135-0.109,0.271-0.221,0.406-0.329c-0.255-0.096-0.517-0.192-0.769-0.29c-2.196-3.215-1.833-6.122,0.807-9.021
	c1.412-1.556,2.661-3.375,3.498-5.272c2.295-5.197,6.406-7.548,11.962-8.729c3.396-0.724,7.206-1.074,10.002-3.508
	c8.742-7.604,17.305-15.404,26.158-22.884c3.625-3.065,4.608-7.259,6.305-11.17c1.067-2.467-1.17-4.435-1.942-6.576
	c-1.119-3.093-2.27-6.553-4.527-8.779c-2.258-2.221-5.904-3.114-8.945-4.592c-0.215-0.605-0.615-0.662-1.131-0.344
	c0.258,0.251,0.519,0.506,0.78,0.757c4.871,3.17,8.811,6.938,10.652,12.656c1.383,4.301,0.154,12.065-3.223,15.297
	c-7.797,7.454-15.63,14.874-23.392,22.359c-1.277,1.239-2.739,1.952-4.395,2.491c-4.384,1.424-8.729,2.963-13.133,4.325
	c-1.376,0.43-2.308,1.112-3.053,2.297c-2.89,4.611-5.844,9.183-8.813,13.749c-0.701,1.08-0.711,1.963-0.334,3.275
	c1.315,4.534,2.872,8.967,4.809,13.282c-0.329,0.02-0.661,0.039-0.987,0.056c-3.337-5.28-6.608-10.601-10.044-15.819
	c-0.868-1.314-0.369-2.231,0.176-3.303c2.923-5.73,5.869-11.445,8.749-17.197c0.565-1.127,1.331-1.879,2.453-2.519
	c7.015-4.017,13.964-8.134,20.965-12.171c0.933-0.537,1.61-1.144,2.034-2.129c4.104-9.582,8.236-19.152,12.382-28.717
	c0.322-0.748,0.803-1.481,0.23-2.251c-2.036-2.718-3.777-5.659-6.29-8.208c-0.575,1.36,0.546,2.023,0.752,2.935
	c0.749,3.38,3.627,6.313,2.1,10.178c-3.27,8.275-6.483,16.567-10.611,24.493c-0.434,0.826-1.052,1.5-1.903,1.912
	c-5.823,2.832-10.863,6.889-16.5,9.992c-4.08,2.249-7.02,5.193-8.953,9.406c-2.173,4.733-4.775,9.301-7.46,13.79
	c-1.016,1.699-0.993,3.032-0.253,4.697c1.965,4.401,5.171,8.109,7.34,12.39c-0.237,0.24-0.476,0.483-0.716,0.723
	c-3.798-2.415-5.331-6.59-8.108-9.797c-1.614-3.507-3.145-7.054-4.878-10.51c-0.866-1.735-1.138-3.621-0.558-5.223
	c1.454-4.006,2.774-8.236,5.187-11.702c3.849-5.517,7.494-11.218,12.03-16.278c0.462-0.517,0.848-1.159,1.064-1.807
	c3.697-10.967,7.911-21.829,6.473-33.742c-0.292-2.466-0.004-4.994-0.115-7.486c-0.096-2.115,0.732-2.496,2.562-1.574
	c2.549,1.285,5.039,2.739,7.707,3.733c1.998,0.745,4.268,2.047,6.406,0.7c4.87-3.061,5.654-5.321,4.24-10.802
	c-0.049-0.195-0.179-0.377-0.194-0.568c-0.435-5.772-3.327-9.164-9.47-10.213c-2.468-0.423-4.419-0.574-6.611,0.735
	c-7.391,4.41-14.986,8.479-22.823,12.099c-2.209,1.018-3.882,2.487-5.441,4.257c-2.874,3.257-5.164,6.985-8.505,9.859
	c-0.455-0.003-0.907-0.007-1.362-0.008c0.202-0.316,0.404-0.633,0.604-0.949c0.257-0.334,0.595-0.669,0.014-1.009
	c0.154,0.05,0.303,0.097,0.454,0.146c0.02-0.091,0.044-0.184,0.063-0.277c-0.161,0.069-0.321,0.134-0.478,0.201
	c-0.244,0.173-0.485,0.348-0.726,0.519c-1.826-0.009-0.96-0.929-0.375-1.366c2.231-1.67,3.4-4.176,5.251-6.11
	c2.783-2.91,2.748-6.677,4.255-10.462c-3.31,0.651-5.357,1.902-6.054,4.978c-1.52-1.487-0.345-2.67,0.122-3.756
	c0.295-0.693,1.061-1.203,1.632-1.778c3.183-3.198,3.182-3.22-1.203-4.852c4.34-3.395,9.528-5.284,14.057-9.037
	c-4.177,0.454-7.806,0.847-11.824,1.284c1.843-2.226,4.379-2.119,6.443-2.754c8.202-2.53,16.505-4.735,24.742-7.158
	c2.519-0.741,4.881,0.741,7.489,0.107c-0.501-1.904-2.646-1.872-4.047-3.332c2.672-0.4,4.854,0.688,7.103,1.088
	c4.095,0.725,8.106,1.751,12.084,2.958c2.274,0.689,3.906,1.883,4.339,4.079c0.62,3.149,1.819,4.262,5.455,3.41
	c3.811-0.892,8.242,0.876,11.984,3.547c-2.442,0.724-4.755,0.191-7.001,0.386c-0.558,0.046-1.359-0.312-1.604,0.449
	c-0.301,0.953,0.628,1.113,1.242,1.387c1.021,0.458,2.073,0.849,3.113,1.279c2.586,1.07,5.263,1.734,6.467,4.876
	c1.184,3.082,4.452,4.802,6.483,7.433c2.384,3.096,5.319,5.8,8.014,8.674c-0.242,0.576-0.784,0.597-1.3,0.662
	c-0.742-0.204-1.484-0.408-2.736-0.75c2.525,6.015,4.758,11.663,7.275,17.188c1.323,2.903,0.994,5.868,1.07,8.828
	c0.056,2.244-1.347-0.499-1.769,0.396l-0.058,0.069c0.533-0.809-0.152-0.934-0.686-1.143c-0.283-0.234-0.753-0.717-0.824-0.668
	c-0.663,0.477-0.338,1.206-0.384,1.848c-1.565,4.112-2.079,8.469-3.111,12.707c-1.262,5.179-2.172,10.376-5.526,14.92
	c-3.08,4.179-6.496,8.234-8.303,13.199c-0.381,0.014-0.762,0.025-1.145,0.038c0.08-0.62,0.158-1.241,0.238-1.862
	c0.791-0.696,1.031-1.64,1.232-2.604c0.111-0.528,0.648-1.159-0.286-1.423c-0.573-0.161-1.353-0.222-1.557,0.484
	C96.122,104.037,93.995,105.883,93.516,108.476z M74.366,42.624c0.124,0.182,0.245,0.363,0.369,0.547
	c0.045-0.081,0.144-0.171,0.132-0.24c-0.058-0.324-0.257-0.399-0.556-0.246c-0.018-0.241-0.035-0.481-0.054-0.725
	c-0.123,0.045-0.243,0.086-0.364,0.129C74.05,42.268,74.208,42.445,74.366,42.624z"/>
<path fill-rule="evenodd" clip-rule="evenodd" fill="#AEFAFD" d="M17.969,45.7c3.341-2.874,5.631-6.603,8.505-9.859
	c1.56-1.77,3.232-3.239,5.441-4.257c7.837-3.619,15.433-7.689,22.823-12.099c2.192-1.309,4.144-1.158,6.611-0.735
	c6.143,1.049,9.035,4.441,9.47,10.213c0.016,0.191,0.146,0.373,0.194,0.568c1.414,5.48,0.63,7.741-4.24,10.802
	c-2.139,1.347-4.408,0.045-6.406-0.7c-2.668-0.994-5.158-2.448-7.707-3.733c-1.829-0.922-2.657-0.541-2.562,1.574
	c0.111,2.493-0.177,5.021,0.115,7.486c1.438,11.913-2.775,22.775-6.473,33.742c-0.217,0.647-0.603,1.29-1.064,1.807
	c-4.536,5.061-8.182,10.762-12.03,16.278c-2.412,3.466-3.732,7.696-5.187,11.702c-0.58,1.602-0.309,3.487,0.558,5.223
	c1.733,3.456,3.264,7.003,4.878,10.51c-0.55,1.135-1.169,0.43-1.581-0.037c-1.21-1.369-2.34-2.809-3.501-4.222
	c-2.124-3.032-4.552-5.775-7.83-7.711c-2.617-2.745-2.794-5.691-1.256-9.093c1.835-4.062,3.282-8.286,4.903-12.439
	c1.807-2.22,4.661-2.215,6.974-2.223c5.286-0.014,6.688-4.208,9.5-6.913c-1.033,0.488-1.942,1.151-2.69,1.956
	c-2.283,2.453-5.046,3.805-8.461,4.218c-2.476,0.305-4.886,1.087-7.327,1.656c-1.208,1.004-2.417,2.012-3.629,3.02
	c-3.186-1.091-5.896-3.271-6.548-6.213c-1.387-6.253-1.125-12.87-4.918-18.54c-0.479-0.711-0.238-1.547,0.295-2.239
	c1.21-0.903,2.439-1.784,3.63-2.709c3.041-2.355,2.99-2.717-0.612-4.435c-1.365-0.65-2.756-1.249-4.136-1.872
	c1.546-2.33,4.826-2.817,6.128-5.41l-0.025,0.021c1.282-0.025,2.098-0.658,2.499-1.825l-0.019,0.016
	c0.996,0.127,1.634-0.264,1.886-1.216l-0.028,0.025c0.461,0.028,0.71-0.146,0.644-0.624l-0.021,0.016
	c1.015,0.153,1.646-0.248,1.882-1.22l-0.028,0.02C17.195,46.335,17.703,46.301,17.969,45.7z M28.367,46.495
	c5.265-0.346,10.758,0.85,14.917-3.896C38.059,43.182,32.012,39.501,28.367,46.495z M27.554,75.402
	c-5.51-0.429-11.024-0.857-16.706-1.295C14.231,77.512,22.57,78.364,27.554,75.402z"/>
<path fill-rule="evenodd" clip-rule="evenodd" fill="#F6F6F5" d="M39.72,133.297c-2.169-4.28-5.375-7.988-7.34-12.39
	c-0.74-1.665-0.763-2.998,0.253-4.697c2.685-4.489,5.287-9.057,7.46-13.79c1.934-4.213,4.873-7.157,8.953-9.406
	c5.637-3.104,10.677-7.16,16.5-9.992c0.852-0.412,1.47-1.086,1.903-1.912c4.128-7.926,7.342-16.218,10.611-24.493
	c1.527-3.865-1.351-6.798-2.1-10.178c-0.206-0.912-1.327-1.575-0.752-2.935c2.513,2.549,4.254,5.491,6.29,8.208
	c0.572,0.77,0.092,1.503-0.23,2.251c-4.146,9.564-8.277,19.135-12.382,28.717c-0.424,0.985-1.102,1.592-2.034,2.129
	c-7.001,4.037-13.95,8.154-20.965,12.171c-1.122,0.64-1.888,1.392-2.453,2.519c-2.88,5.752-5.826,11.467-8.749,17.197
	c-0.545,1.071-1.044,1.988-0.176,3.303c3.436,5.219,6.707,10.539,10.044,15.819c0.463,0.882,0.955,1.756,1.387,2.647
	c0.739,1.532-0.889,0.412-1.093,0.9c-0.119-0.054-0.203-0.139-0.257-0.253c0.144-0.555,0.035-0.941-0.662-0.944l0.027,0.03
	c0.08-0.496-0.167-0.676-0.645-0.638l0.038,0.038c-0.047-0.778-0.523-1.147-1.278-1.246l0.045,0.046
	c0-0.432-0.224-0.646-0.665-0.644l0.039,0.043c0.021-0.449-0.2-0.664-0.662-0.641l0.043,0.037c-0.006-0.419-0.171-0.691-0.663-0.64
	l0.034,0.039C40.372,134.05,40.316,133.569,39.72,133.297z"/>
<path fill-rule="evenodd" clip-rule="evenodd" fill="#02CF2B" d="M15.998,92.435c1.212-1.008,2.421-2.016,3.629-3.02
	c0.944,0.034,1.949-0.013,2.005,1.306c-1.621,4.153-3.068,8.378-4.903,12.439c-1.538,3.401-1.361,6.348,1.256,9.093
	c-0.164,0.892,0.272,1.612,0.716,2.328c0.945,0.843,0.012,2.161,0.895,3.094c-6.921-4.123-9.624-13.438-4.236-22.111
	C16.037,94.61,16.098,93.537,15.998,92.435z"/>
<path fill-rule="evenodd" clip-rule="evenodd" fill="#02CF2B" d="M3.708,56.427c1.38,0.623,2.771,1.222,4.136,1.872
	c3.603,1.718,3.653,2.079,0.612,4.435c-1.19,0.925-2.42,1.806-3.63,2.709c-0.945-0.086-1.094,0.894-1.729,1.223
	c-0.871-1.899-1.738-3.801-2.616-5.699c-1.056-2.291-0.35-3.991,1.841-5.199C2.786,55.985,3.247,56.207,3.708,56.427z"/>
<path fill-rule="evenodd" clip-rule="evenodd" fill="#F6F6F5" d="M98.356,106.91c1.807-4.965,5.223-9.021,8.303-13.199
	c3.354-4.544,4.265-9.741,5.526-14.92c1.032-4.238,1.546-8.595,3.111-12.706c0.743,2.418-0.279,4.683-0.74,6.966
	c-1.191,5.918-1.315,12.038-3.64,17.735c-0.018,0.206-0.035,0.416-0.048,0.624c-0.946-0.162-1.105,0.457-1.197,1.14l0.051-0.063
	c-0.225,0.219-0.449,0.434-0.683,0.65l0.051-0.055c-0.803,0.379-0.967,1.166-1.285,1.861l0.049-0.055
	c-0.426,0.423-0.85,0.848-1.275,1.271l0.027,0.223c-0.486,0.417-0.894,0.867-0.647,1.571l0.046-0.056
	c-0.933,0.293-1.528,0.805-1.286,1.858l0.045-0.052c-0.895-0.036-1.072,0.625-1.301,1.239l0.044-0.053
	c-0.665,1.084-2.078,1.769-1.896,3.314c0.032,0.736-0.081,1.38-1.021,1.492c-1.035,0.154-1.357,0.65-0.822,1.575
	c-0.065,0.104-0.153,0.188-0.265,0.248c-0.324-0.023-0.645-0.048-0.969-0.068C98.505,107.263,98.445,107.083,98.356,106.91z"/>
<path fill-rule="evenodd" clip-rule="evenodd" fill="#2ADD71" d="M3.098,66.665c0.635-0.329,0.783-1.309,1.729-1.223
	c-0.533,0.692-0.773,1.528-0.295,2.239c3.793,5.67,3.531,12.287,4.918,18.54c0.652,2.942,3.362,5.122,6.548,6.213
	c0.101,1.103,0.039,2.176-0.64,3.129c-0.995-2.437-3.144-4.009-4.958-5.739c-1.833-1.744-2.99-3.771-2.858-6.012
	C7.905,77.593,5.223,72.218,3.098,66.665z"/>
<path fill-rule="evenodd" clip-rule="evenodd" fill="#2ADD71" d="M110.917,90.786c2.324-5.697,2.448-11.817,3.64-17.735
	c0.461-2.283,1.483-4.548,0.74-6.966c0.046-0.643-0.279-1.372,0.384-1.849c0.071-0.049,0.541,0.434,0.824,0.668
	c0.127,0.439-0.381,1.23,0.686,1.143l0.058-0.069c-0.743,0.999,0.006,1.986,0.372,2.707c0.865,1.702,1.428,0.493,1.799-0.354
	c-0.88,0.777,0.42,2.08-1.203,3.396c0.579-0.404,0.498-0.347,0.419-0.295c0.328-1.729-1.466-1.625-2.352-3.146
	c-1.065,6.56-2.022,12.422-2.961,18.288C113.05,88.276,112.609,89.859,110.917,90.786z"/>
<path fill-rule="evenodd" clip-rule="evenodd" fill="#2ADD71" d="M44.848,139.365c0.204-0.488,1.832,0.632,1.093-0.9
	c-0.432-0.892-0.924-1.766-1.387-2.647c0.326-0.017,0.658-0.036,0.987-0.056c0.361,0.342,0.75,0.99,1.08,0.968
	c0.728-0.054,0.457-0.747,0.341-1.172c-0.317-1.141-0.71-2.261-1.074-3.391c0.398,0.012,0.799,0.029,1.199,0.041
	c0.83,3.763,2.778,7.127,4.032,10.739c0.283,0.817,0.579,1.596,1.548,1.867l-0.041-0.032c-0.569,0.767-0.628,2.591-2.174,0.456
	C48.892,143.074,46.744,141.308,44.848,139.365z"/>
<path fill-rule="evenodd" clip-rule="evenodd" fill="#2ADD71" d="M86.097,120.022c2.013-2.766,3.366-5.878,4.938-8.871
	c0.39-0.749,0.86-1.333,1.591-1.741C91.881,113.777,89.604,117.255,86.097,120.022z"/>
<path fill-rule="evenodd" clip-rule="evenodd" fill="#2ADD71" d="M93.516,108.476c0.479-2.593,2.605-4.438,3.323-6.933
	c0.204-0.706,0.983-0.646,1.557-0.484c0.935,0.264,0.397,0.895,0.286,1.423c-0.201,0.965-0.441,1.908-1.232,2.604
	C95.296,105.298,95.099,107.641,93.516,108.476z"/>
<path fill-rule="evenodd" clip-rule="evenodd" fill="#2ADD71" d="M98.356,106.91c0.089,0.173,0.149,0.353,0.179,0.543
	c-0.009,0.38-0.023,0.766-0.031,1.146c-0.889,2.228-2.542,3.971-4.368,5.708c0.725-1.656,1.45-3.315,2.179-4.975
	c0.531-0.253,1.366-0.394,0.472-1.18c0.141-0.403,0.284-0.805,0.426-1.205C97.594,106.936,97.975,106.924,98.356,106.91z"/>
<path fill-rule="evenodd" clip-rule="evenodd" fill="#2ADD71" d="M72.662,130.311l0.091,0.045c0.813,0.482,1.133,0.265,0.967-0.64
	l-0.041,0.029c0.831,0.477,1.057,0.187,0.865-0.637l0.074,0.04c0.945,1.162,1.89-0.62,2.835-0.002
	c-3.137,2.38-6.694,4.093-10.087,6.063c0.051-0.404,0.096-0.807,0.144-1.209c0.599-0.405,1.196-0.811,1.795-1.218
	c0.971,0.051,1.838-0.054,1.939-1.262l-0.049,0.038C72.102,131.6,73.177,131.834,72.662,130.311z"/>
<path fill-rule="evenodd" clip-rule="evenodd" fill="#F6F6F5" d="M77.453,129.146c-0.945-0.618-1.89,1.164-2.835,0.002
	c2.786-2.122,5.702-4.036,8.968-5.415c0.23,0.184,0.466,0.366,0.699,0.549c-0.526,0.343-1.13,0.616-1.287,1.297l0.055-0.048
	c-1.261,0.283-2.332,0.866-3.159,1.848l0.063-0.046c-0.679,0.358-1.719,0.204-1.919,1.253l0.057-0.049
	c-0.331,0.115-0.86,0.044-0.66,0.658L77.453,129.146z"/>
<path fill-rule="evenodd" clip-rule="evenodd" fill="#2ADD71" d="M3.708,56.427c-0.462-0.22-0.923-0.441-1.386-0.66
	c2.335-1.837,4.454-3.992,7.514-4.748C8.535,53.609,5.254,54.097,3.708,56.427z"/>
<path fill-rule="evenodd" clip-rule="evenodd" fill="#2ADD71" d="M18.7,114.581c-0.443-0.716-0.88-1.437-0.716-2.328
	c3.278,1.936,5.706,4.679,7.83,7.711c-1.85-0.78-2.705-2.589-4.171-3.763C20.773,115.504,20.226,114.184,18.7,114.581z"/>
<path fill-rule="evenodd" clip-rule="evenodd" fill="#2ADD71" d="M60.643,138.799c-1.688,1.259-3.236,2.762-5.521,2.981l0.006,0.008
	c1.214-1.651,2.594-3.144,4.366-4.256C60.145,137.728,59.375,139.131,60.643,138.799z"/>
<path fill-rule="evenodd" clip-rule="evenodd" fill="#2ADD71" d="M113.407,40.315c0.516-0.065,1.058-0.086,1.3-0.662
	c2.354,1.269,4.711,2.539,7.063,3.807C118.83,42.784,115.915,42.052,113.407,40.315z"/>
<path fill-rule="evenodd" clip-rule="evenodd" fill="#F6F6F5" d="M60.643,138.799c-1.268,0.332-0.498-1.071-1.149-1.264l-0.053,0.04
	c-0.01,0.177,0.072,0.291,0.244,0.342c1.683-0.351,2.799-1.675,4.288-2.359c0.155,0.168,0.31,0.333,0.47,0.502
	c-0.226,0.381-0.449,0.762-0.674,1.147C63.011,138.264,62.066,138.969,60.643,138.799z"/>
<path fill-rule="evenodd" clip-rule="evenodd" fill="#2ADD71" d="M101.611,104.206c-0.183-1.546,1.23-2.23,1.896-3.314
	C103.593,102.379,102.491,103.233,101.611,104.206z"/>
<path fill-rule="evenodd" clip-rule="evenodd" fill="#2ADD71" d="M79.893,127.379c0.827-0.981,1.898-1.564,3.159-1.848
	C82.43,126.835,81.344,127.403,79.893,127.379z"/>
<path fill-rule="evenodd" clip-rule="evenodd" fill="#F6F6F5" d="M67.509,134c-0.048,0.402-0.093,0.805-0.144,1.209
	c-0.006,0-0.12-0.052-0.123-0.052c-0.77-0.154-1.391,0.116-1.93,0.627c-0.346-0.142-0.692-0.287-1.038-0.431
	C65.311,134.805,66.068,133.637,67.509,134z"/>
<path fill-rule="evenodd" clip-rule="evenodd" fill="#2ADD71" d="M12.31,49.213c-0.401,1.167-1.217,1.8-2.499,1.825
	C9.988,49.59,11.024,49.238,12.31,49.213z"/>
<path fill-rule="evenodd" clip-rule="evenodd" fill="#2ADD71" d="M104.718,99.757c-0.242-1.054,0.354-1.565,1.286-1.858
	C105.664,98.576,105.504,99.374,104.718,99.757z"/>
<path fill-rule="evenodd" clip-rule="evenodd" fill="#2ADD71" d="M16.654,46.21c-0.235,0.972-0.867,1.373-1.882,1.22
	C15.007,46.453,15.574,45.959,16.654,46.21z"/>
<path fill-rule="evenodd" clip-rule="evenodd" fill="#2ADD71" d="M14.177,48.013c-0.252,0.952-0.89,1.343-1.886,1.216
	C12.402,48.066,13.119,47.786,14.177,48.013z"/>
<path fill-rule="evenodd" clip-rule="evenodd" fill="#2ADD71" d="M78.037,128.586c0.2-1.049,1.24-0.895,1.919-1.253
	C79.643,128.223,79.09,128.761,78.037,128.586z"/>
<path fill-rule="evenodd" clip-rule="evenodd" fill="#2ADD71" d="M107.805,94.944c0.318-0.695,0.482-1.482,1.285-1.861
	C109.189,94.048,108.58,94.549,107.805,94.944z"/>
<path fill-rule="evenodd" clip-rule="evenodd" fill="#2ADD71" d="M103.462,100.944c0.229-0.614,0.406-1.275,1.301-1.239
	C104.477,100.267,104.551,101.181,103.462,100.944z"/>
<path fill-rule="evenodd" clip-rule="evenodd" fill="#F6F6F5" d="M84.245,122.492c0.075-0.348,0.247-0.567,0.661-0.441
	c0.029,0.413,1.106,0.455,0.51,0.982C85.057,123.352,84.499,122.979,84.245,122.492z"/>
<path fill-rule="evenodd" clip-rule="evenodd" fill="#2ADD71" d="M82.998,125.579c0.157-0.681,0.761-0.954,1.287-1.297
	C84.206,125.044,84.285,125.948,82.998,125.579z"/>
<path fill-rule="evenodd" clip-rule="evenodd" fill="#2ADD71" d="M106.579,96.16c0.426-0.423,0.85-0.848,1.275-1.271
	C107.92,95.775,107.54,96.24,106.579,96.16z"/>
<path fill-rule="evenodd" clip-rule="evenodd" fill="#2ADD71" d="M42.072,136.353c0.755,0.099,1.231,0.468,1.278,1.246
	C42.324,137.764,41.886,137.357,42.072,136.353z"/>
<path fill-rule="evenodd" clip-rule="evenodd" fill="#2ADD71" d="M109.671,92.55c0.092-0.683,0.251-1.302,1.197-1.14
	C110.469,91.789,110.069,92.171,109.671,92.55z"/>
<path fill-rule="evenodd" clip-rule="evenodd" fill="#2ADD71" d="M39.72,133.297c0.596,0.272,0.651,0.753,0.522,1.297
	c-0.693,0.372-0.98-0.074-1.238-0.574C39.245,133.78,39.483,133.537,39.72,133.297z"/>
<path fill-rule="evenodd" clip-rule="evenodd" fill="#2ADD71" d="M65.313,135.784c0.539-0.511,1.16-0.781,1.93-0.627
	C66.727,135.732,66.101,135.989,65.313,135.784z"/>
<path fill-rule="evenodd" clip-rule="evenodd" fill="#2ADD71" d="M105.958,97.954c-0.246-0.704,0.161-1.154,0.647-1.571
	C106.74,97.044,106.734,97.648,105.958,97.954z"/>
<path fill-rule="evenodd" clip-rule="evenodd" fill="#2ADD71" d="M99.768,107.273c-0.535-0.925-0.213-1.421,0.822-1.575
	C100.313,106.225,100.042,106.749,99.768,107.273z"/>
<path fill-rule="evenodd" clip-rule="evenodd" fill="#02CF2B" d="M98.503,108.6c0.008-0.381,0.022-0.767,0.031-1.146
	c0.324,0.021,0.645,0.045,0.969,0.068C99.167,107.878,98.836,108.239,98.503,108.6z"/>
<path fill-rule="evenodd" clip-rule="evenodd" fill="#02CF2B" d="M96.786,108.153c0.895,0.786,0.06,0.927-0.472,1.18
	C96.47,108.939,96.628,108.548,96.786,108.153z"/>
<path fill-rule="evenodd" clip-rule="evenodd" fill="#2ADD71" d="M53.229,143.547c0.4,0.688-0.089,0.968-0.603,1.235l0.041,0.032
	c-0.568-0.766,0.162-0.927,0.607-1.221L53.229,143.547z"/>
<path fill-rule="evenodd" clip-rule="evenodd" fill="#2ADD71" d="M17.969,45.7c-0.267,0.601-0.774,0.635-1.344,0.529
	c-0.053-0.116-0.121-0.23-0.146-0.354c-0.01-0.053,0.083-0.122,0.128-0.183C17.062,45.693,17.514,45.697,17.969,45.7z"/>
<path fill-rule="evenodd" clip-rule="evenodd" fill="#2ADD71" d="M77.433,129.195c-0.2-0.614,0.329-0.543,0.66-0.658
	C78.105,128.975,77.767,129.084,77.433,129.195z"/>
<path fill-rule="evenodd" clip-rule="evenodd" fill="#2ADD71" d="M14.792,47.414c0.066,0.478-0.183,0.652-0.644,0.624
	C13.871,47.353,14.25,47.305,14.792,47.414z"/>
<path fill-rule="evenodd" clip-rule="evenodd" fill="#2ADD71" d="M109.04,93.138c0.233-0.217,0.458-0.432,0.683-0.65
	C109.498,92.706,109.273,92.921,109.04,93.138z"/>
<path fill-rule="evenodd" clip-rule="evenodd" fill="#2ADD71" d="M40.208,134.555c0.492-0.052,0.657,0.221,0.663,0.64
	C40.171,135.446,40.067,135.117,40.208,134.555z"/>
<path fill-rule="evenodd" clip-rule="evenodd" fill="#2ADD71" d="M40.829,135.157c0.462-0.023,0.684,0.191,0.662,0.641
	C40.812,136.025,40.594,135.81,40.829,135.157z"/>
<path fill-rule="evenodd" clip-rule="evenodd" fill="#2ADD71" d="M41.452,135.755c0.441-0.003,0.665,0.212,0.665,0.644
	C41.511,136.556,41.201,136.427,41.452,135.755z"/>
<path fill-rule="evenodd" clip-rule="evenodd" fill="#2ADD71" d="M63.769,137.207c0.225-0.386,0.448-0.767,0.674-1.147
	C64.817,136.768,64.238,136.958,63.769,137.207z"/>
<path fill-rule="evenodd" clip-rule="evenodd" fill="#2ADD71" d="M43.312,137.561c0.478-0.038,0.725,0.142,0.645,0.638
	C43.267,138.436,43.153,138.129,43.312,137.561z"/>
<path fill-rule="evenodd" clip-rule="evenodd" fill="#2ADD71" d="M43.929,138.168c0.697,0.003,0.806,0.39,0.662,0.944
	C44.163,138.933,43.633,138.824,43.929,138.168z"/>
<path fill-rule="evenodd" clip-rule="evenodd" fill="#2ADD71" d="M55.122,141.78c0.25,0.582-0.045,0.706-0.567,0.642l-0.048-0.034
	c0.205-0.202,0.412-0.402,0.621-0.6L55.122,141.78z"/>
<path fill-rule="evenodd" clip-rule="evenodd" fill="#2ADD71" d="M54.554,142.422c0.046,0.525-0.134,0.769-0.701,0.537l0.043,0.036
	c0.201-0.203,0.404-0.406,0.61-0.607L54.554,142.422z"/>
<path fill-rule="evenodd" clip-rule="evenodd" fill="#2ADD71" d="M53.853,142.959c0.167,0.567-0.03,0.771-0.624,0.588l0.046,0.047
	c0.207-0.199,0.413-0.397,0.621-0.599L53.853,142.959z"/>
<path fill-rule="evenodd" clip-rule="evenodd" fill="#F6F6F5" d="M45.888,132.167c0.364,1.13,0.757,2.25,1.074,3.391
	c0.116,0.425,0.387,1.118-0.341,1.172c-0.33,0.022-0.719-0.626-1.08-0.968c-1.937-4.315-3.493-8.748-4.809-13.282
	c-0.377-1.313-0.367-2.195,0.334-3.275c2.97-4.566,5.924-9.138,8.813-13.749c0.745-1.185,1.677-1.867,3.053-2.297
	c4.404-1.362,8.749-2.901,13.133-4.325c1.655-0.539,3.117-1.252,4.395-2.491c7.762-7.485,15.595-14.905,23.392-22.359
	c3.377-3.231,4.605-10.996,3.223-15.297c-1.842-5.719-5.781-9.486-10.652-12.656c0.123-0.135,0.239-0.271,0.351-0.413
	c3.041,1.478,6.688,2.371,8.945,4.592c2.258,2.227,3.408,5.687,4.527,8.779c0.772,2.142,3.01,4.109,1.942,6.576
	c-1.696,3.911-2.68,8.104-6.305,11.17c-8.854,7.479-17.416,15.28-26.158,22.884c-2.796,2.434-6.605,2.784-10.002,3.508
	c-5.556,1.181-9.667,3.531-11.962,8.729c-0.837,1.897-2.086,3.717-3.498,5.272c-2.64,2.899-3.003,5.807-0.807,9.021
	c-0.087,0.319-0.019,0.554,0.362,0.619c0.283,0.797,0.569,1.595,0.851,2.392c0.076,0.21,0.148,0.419,0.226,0.63
	C45.226,130.582,45.557,131.376,45.888,132.167z"/>
<path fill-rule="evenodd" clip-rule="evenodd" fill="#F6F6F5" d="M53.896,142.995c-0.208,0.201-0.414,0.399-0.621,0.599
	c-0.445,0.294-1.176,0.455-0.607,1.221c-0.969-0.271-1.265-1.05-1.548-1.867c-1.254-3.612-3.202-6.977-4.032-10.739
	c2.944,2.479,3.127,6.362,5.105,9.555c8.965-8.177,17.092-17.042,26.392-24.715c0.201,0.123,0.405,0.244,0.608,0.365
	c-5.705,5.767-11.407,11.533-17.107,17.3c-0.708,0.721-1.403,1.453-2.103,2.182c-0.18,0.228-0.36,0.454-0.542,0.681l0.053-0.04
	c-1.772,1.109-3.152,2.602-4.366,4.253c-0.209,0.197-0.416,0.397-0.621,0.6C54.3,142.589,54.097,142.792,53.896,142.995z"/>
<path fill-rule="evenodd" clip-rule="evenodd" fill="#F6F6F5" d="M71.244,131.521c-0.102,1.208-0.969,1.313-1.939,1.262
	C69.666,131.957,70.262,131.465,71.244,131.521z"/>
<path fill-rule="evenodd" clip-rule="evenodd" fill="#F6F6F5" d="M72.662,130.311c0.516,1.523-0.56,1.289-1.467,1.248
	C71.469,130.907,71.905,130.431,72.662,130.311z"/>
<path fill-rule="evenodd" clip-rule="evenodd" fill="#2ADD71" d="M44.895,129.788c-0.077-0.211-0.149-0.42-0.226-0.63
	c0.241,0.084,0.485,0.168,0.726,0.252C45.227,129.534,45.06,129.661,44.895,129.788z"/>
<path fill-rule="evenodd" clip-rule="evenodd" fill="#F6F6F5" d="M84.212,111.692c0.123-0.434,0.562-0.708,0.837-0.453
	c0.602,0.554-0.324,0.605-0.462,0.942C84.464,112.02,84.335,111.854,84.212,111.692z"/>
<path fill-rule="evenodd" clip-rule="evenodd" fill="#2ADD71" d="M43.819,126.767c-0.381-0.065-0.449-0.3-0.362-0.619
	c0.252,0.098,0.514,0.194,0.769,0.29C44.089,126.546,43.954,126.657,43.819,126.767z"/>
<path fill-rule="evenodd" clip-rule="evenodd" fill="#F6F6F5" d="M74.366,42.624c-0.158-0.179-0.315-0.356-0.473-0.535
	c0.121-0.043,0.241-0.084,0.364-0.129c0.019,0.243,0.036,0.484,0.054,0.725L74.366,42.624z"/>
<path fill-rule="evenodd" clip-rule="evenodd" fill="#F6F6F5" d="M86.422,46.029c-0.262-0.251-0.522-0.506-0.78-0.757
	c0.516-0.318,0.916-0.262,1.131,0.344C86.662,45.759,86.545,45.895,86.422,46.029z"/>
<path fill-rule="evenodd" clip-rule="evenodd" fill="#F6F6F5" d="M74.543,129.108c0.191,0.823-0.034,1.113-0.865,0.637
	C73.777,129.291,74.125,129.157,74.543,129.108z"/>
<path fill-rule="evenodd" clip-rule="evenodd" fill="#F6F6F5" d="M73.719,129.716c0.166,0.904-0.154,1.122-0.967,0.64
	C73.075,130.144,73.396,129.928,73.719,129.716z"/>
<path fill-rule="evenodd" clip-rule="evenodd" fill="#F6F6F5" d="M84.587,112.182c-0.207,0.198-0.415,0.397-0.62,0.6
	c-0.125-0.163-0.249-0.325-0.375-0.489c0.206-0.2,0.415-0.4,0.62-0.6C84.335,111.854,84.464,112.02,84.587,112.182z"/>
<path fill-rule="evenodd" clip-rule="evenodd" fill="#F6F6F5" d="M82.973,112.892c0.205-0.199,0.414-0.398,0.619-0.6
	c0.126,0.164,0.25,0.326,0.375,0.489c-0.211,0.205-0.42,0.41-0.629,0.616C83.216,113.229,83.093,113.061,82.973,112.892z"/>
<path fill-rule="evenodd" clip-rule="evenodd" fill="#F6F6F5" d="M82.352,113.494c0.205-0.202,0.413-0.403,0.621-0.603
	c0.12,0.169,0.243,0.337,0.365,0.506c-0.207,0.199-0.412,0.402-0.618,0.601C82.595,113.83,82.47,113.66,82.352,113.494z"/>
<path fill-rule="evenodd" clip-rule="evenodd" fill="#2ADD71" d="M59.441,137.575c0.182-0.227,0.362-0.453,0.542-0.681
	c-0.093,0.34-0.187,0.681-0.287,1.02C59.513,137.866,59.431,137.752,59.441,137.575z"/>
<path fill-rule="evenodd" clip-rule="evenodd" fill="#F6F6F5" d="M81.73,114.095c0.208-0.2,0.416-0.402,0.622-0.601
	c0.118,0.166,0.243,0.336,0.368,0.504c-0.208,0.203-0.414,0.401-0.618,0.601C81.976,114.429,81.854,114.263,81.73,114.095z"/>
<path fill-rule="evenodd" clip-rule="evenodd" fill="#F6F6F5" d="M82.102,114.599c-0.212,0.205-0.418,0.413-0.629,0.617
	c-0.121-0.176-0.243-0.35-0.363-0.525c0.207-0.198,0.414-0.397,0.62-0.596C81.854,114.263,81.976,114.429,82.102,114.599z"/>
<path fill-rule="evenodd" clip-rule="evenodd" fill="#F6F6F5" d="M81.473,115.216c-0.209,0.201-0.415,0.401-0.625,0.601
	c-0.125-0.181-0.251-0.357-0.374-0.538c0.211-0.196,0.423-0.392,0.636-0.588C81.23,114.866,81.352,115.04,81.473,115.216z"/>
<path fill-rule="evenodd" clip-rule="evenodd" fill="#F6F6F5" d="M79.845,115.871c0.209-0.198,0.419-0.396,0.629-0.593
	c0.123,0.181,0.249,0.357,0.374,0.538c-0.205,0.201-0.412,0.402-0.62,0.604C80.098,116.237,79.974,116.056,79.845,115.871z"/>
<path fill-rule="evenodd" clip-rule="evenodd" fill="#F6F6F5" d="M79.209,116.453c0.212-0.192,0.424-0.387,0.636-0.582
	c0.129,0.185,0.253,0.366,0.383,0.549c-0.216,0.207-0.435,0.412-0.652,0.618C79.452,116.842,79.331,116.648,79.209,116.453z"/>
<path fill-rule="evenodd" clip-rule="evenodd" fill="#F6F6F5" d="M79.576,117.038c-0.096,0.156-0.221,0.282-0.383,0.375
	c-0.203-0.121-0.407-0.242-0.608-0.365c0.21-0.198,0.416-0.396,0.625-0.595C79.331,116.648,79.452,116.842,79.576,117.038z"/>
<path fill-rule="evenodd" clip-rule="evenodd" fill="#FEFEFE" d="M17.225,43.731c0.581,0.343,0.243,0.678-0.014,1.012
	c-0.223-0.139-0.447-0.28-0.673-0.421c0.24-0.171,0.481-0.346,0.726-0.519L17.225,43.731z"/>
<path fill-rule="evenodd" clip-rule="evenodd" fill="#FEFEFE" d="M17.264,43.804c0.156-0.067,0.316-0.132,0.478-0.201
	c-0.019,0.094-0.043,0.187-0.063,0.277c-0.151-0.049-0.3-0.096-0.454-0.146C17.225,43.731,17.264,43.804,17.264,43.804z"/>
<path fill-rule="evenodd" clip-rule="evenodd" fill="#F6F6F5" d="M74.311,42.685c0.299-0.153,0.498-0.078,0.556,0.246
	c0.012,0.069-0.087,0.16-0.132,0.24c-0.124-0.184-0.245-0.365-0.369-0.547L74.311,42.685z"/>
<path fill-rule="evenodd" clip-rule="evenodd" fill="#EA2E26" d="M91.208,74.688c-0.031,0.283-0.19,0.409-0.481,0.372
	c0,0.002-0.042-0.042-0.042-0.042c0.143-0.139,0.281-0.275,0.425-0.413C91.106,74.604,91.208,74.688,91.208,74.688z"/>
<path fill-rule="evenodd" clip-rule="evenodd" fill="#02CF2B" d="M28.367,46.495c3.646-6.994,9.692-3.313,14.917-3.896
	C39.125,47.345,33.631,46.149,28.367,46.495z"/>
<path fill-rule="evenodd" clip-rule="evenodd" fill="#2ADD71" d="M27.554,75.402c-4.984,2.962-13.323,2.109-16.706-1.295
	C16.53,74.545,22.044,74.974,27.554,75.402z"/>
<path fill-rule="evenodd" clip-rule="evenodd" fill="#2ADD71" d="M21.631,90.721c-0.056-1.318-1.061-1.271-2.005-1.306
	c2.441-0.569,4.852-1.352,7.327-1.656c3.415-0.413,6.178-1.765,8.461-4.218c0.748-0.805,1.657-1.468,2.69-1.956
	c-2.812,2.705-4.214,6.899-9.5,6.913C26.292,88.506,23.438,88.501,21.631,90.721z"/>
</svg>
