<?xml version="1.0" encoding="utf-8"?>
<!-- Generator: Adobe Illustrator 16.0.0, SVG Export Plug-In . SVG Version: 6.00 Build 0)  -->
<!DOCTYPE svg PUBLIC "-//W3C//DTD SVG 1.1//EN" "http://www.w3.org/Graphics/SVG/1.1/DTD/svg11.dtd">
<svg version="1.1" id="Calque_1" xmlns="http://www.w3.org/2000/svg" xmlns:xlink="http://www.w3.org/1999/xlink" x="0px" y="0px"
	 width="101.92px" height="147.212px" viewBox="0 0 101.92 147.212" enable-background="new 0 0 101.92 147.212"
	 xml:space="preserve">
<path fill-rule="evenodd" clip-rule="evenodd" fill="#FEA202" d="M20.84,84.737c-1.841-0.324-2.346,1.365-3.441,2.16
	c-0.953,0.694-1.465,1.943-3.187,2.223c0.428-4.693,0.842-9.262,1.26-13.855c-1.596-0.129-2.578,0.746-3.733,1.105
	c-0.588,0.182-1.168,0.613-1.688,0.059c-0.537-0.567-0.049-1.091,0.277-1.596c1.254-1.93,2.498-3.867,3.708-5.744
	c-0.236-0.291-0.396-0.567-0.454-0.549c-3.953,1.265-4.692-1.458-5.624-4.129c-2.474-7.074-4.965-14.144-7.602-21.163
	c-0.721-1.92-0.368-3.119,1.246-4.348c2.594-1.977,4.972-4.218,7.563-6.197c6.637-5.065,9.427-12.72,13.909-19.228
	c2.795-4.059,5.123-8.401,7.98-12.438c0.822-1.163,1.445-1.112,2.398-0.954c14.289,2.387,28.572,4.794,42.861,7.19
	c1.693,0.285,2.922,1.077,3.871,2.558c6.144,9.582,12.324,19.142,18.591,28.651c1.602,2.427,1.667,5.122,1.917,7.76
	c0.533,5.572,0.743,11.173,1.213,16.751c0.146,1.749-0.803,3.053-1.384,4.515c-2.999,7.527-6.009,15.052-9.07,22.558
	c-0.706,1.734-1.628,3.385-2.824,5.842c-0.392-3.883,1.524-6.696,0.745-10.748c-13.157,21.135-26.601,41.132-38.853,62.052
	c-9.739-20.405-19.573-41.015-29.41-61.622c1.548,0.617,1.632,2.188,2.225,3.375c5.102,10.244,10.135,20.522,15.19,30.79
	c0.228,0.247,0.458,0.495,0.687,0.742c0.385-0.423,0.229-0.839-0.015-1.253c-3.732-10.675-7.179-21.453-11.324-31.973
	c-1.793-4.55-2.038-8.438,0.328-12.707c1.387-2.509,2.005-5.274,4.874-6.983c4.652-2.769,8.994-6.021,13.528-8.98
	c1.369-0.894,2.243-1.985,2.66-3.5c1.846-6.73,4.067-13.391,5.381-20.218c0.491-2.548,3.317-5.616-0.12-8.353
	c-0.391-0.313,0.462-1.052,0.973-1.328c4.234-2.293,4.662-5.529,2.672-9.484c-0.44-0.88-0.513-1.929-0.806-2.884
	c-1.004-3.287-7.143-5.818-10.29-4.288c-2.758,1.342-5.415,3.132-8.344,3.838c-5.071,1.222-9.395,3.753-13.051,6.975
	c-6.798,5.994-13.837,11.722-20.573,17.777c-1.149,1.034-2.684,1.807-3.284,3.443c8.695,1.597,7.552,0.436,3.065,6.991
	c-0.057,0.083-0.126,0.161-0.203,0.226c-1.293,1.08-1.162,2.255-0.574,3.709c1.914,4.721,3.78,9.468,5.439,14.276
	c0.606,1.754,1.275,2.248,3.058,1.522c1.408-0.573,2.924-0.911,4.416-1.268c0.447-0.108,1.14-0.088,1.125,0.616
	c-0.008,0.317-0.35,0.832-0.639,0.911c-3.884,1.061-4.021,4.768-6.182,7.354c2.245,0.41,3.387-1.069,5.207-1.469
	c-0.412,4.781-0.801,9.297-1.189,13.811c1.686-0.78,2.769-1.955,3.892-3.096C20.174,83.216,20.823,83.183,20.84,84.737z"/>
<path fill-rule="evenodd" clip-rule="evenodd" fill="#FEFEBD" d="M20.84,84.737c-0.017-1.554-0.666-1.521-1.604-0.572
	c-1.123,1.141-2.206,2.315-3.892,3.096c0.388-4.514,0.777-9.029,1.189-13.811c-1.82,0.4-2.962,1.879-5.207,1.469
	c2.16-2.586,2.297-6.293,6.182-7.354c0.289-0.079,0.631-0.594,0.639-0.911c0.015-0.705-0.679-0.724-1.125-0.616
	c-1.491,0.356-3.007,0.694-4.416,1.268c-1.782,0.726-2.452,0.232-3.058-1.522c-1.66-4.809-3.526-9.555-5.439-14.276
	c-0.588-1.454-0.719-2.629,0.574-3.709c0.077-0.065,0.146-0.143,0.203-0.226c4.487-6.556,5.629-5.394-3.065-6.991
	c0.6-1.636,2.135-2.409,3.284-3.443c6.736-6.055,13.774-11.783,20.573-17.777c3.656-3.222,7.979-5.753,13.051-6.975
	c2.929-0.706,5.586-2.496,8.344-3.838c3.147-1.53,9.286,1.001,10.29,4.288c0.293,0.955,0.365,2.004,0.806,2.884
	c1.99,3.955,1.563,7.191-2.672,9.484c-0.511,0.276-1.363,1.015-0.973,1.328c3.438,2.737,0.611,5.804,0.12,8.353
	c-1.313,6.827-3.535,13.487-5.381,20.218c-0.417,1.515-1.291,2.606-2.66,3.5c-4.534,2.959-8.876,6.211-13.528,8.98
	c-2.869,1.709-3.487,4.475-4.874,6.983c-2.366,4.268-2.121,8.157-0.328,12.707c4.146,10.52,7.592,21.298,11.324,31.973
	c-0.225,0.171-0.451,0.342-0.675,0.512c-5.053-10.269-10.086-20.547-15.188-30.791c-0.593-1.188-0.677-2.758-2.225-3.375
	C21.019,85.306,20.929,85.02,20.84,84.737z M36.154,31.4c-0.03-0.265-0.063-0.529-0.092-0.795c-4.025,0-8.054-0.05-12.08,0.032
	c-1.12,0.024-2.005,0.75-1.805,1.966c0.193,1.176,1.272,1.71,2.318,1.474C28.382,33.195,32.164,31.93,36.154,31.4z M42.013,18.913
	c1.716,2.656,4.419,3.955,7.085,5.849c0.205-2.256-2.235-2.054-2.369-3.529c1.156-0.641,2.593,0.273,3.72-0.958
	C47.392,21.079,44.947,19.032,42.013,18.913z"/>
<path fill-rule="evenodd" clip-rule="evenodd" fill="#FEFEBD" d="M39.196,119.245c0.243,0.414,0.399,0.83,0.015,1.253
	c-0.229-0.247-0.459-0.495-0.687-0.742C38.745,119.586,38.972,119.416,39.196,119.245z"/>
<path fill-rule="evenodd" clip-rule="evenodd" fill="#FEA202" d="M36.154,31.4c-3.99,0.53-7.772,1.795-11.658,2.677
	c-1.046,0.236-2.125-0.298-2.318-1.474c-0.2-1.217,0.685-1.942,1.805-1.966c4.026-0.082,8.055-0.032,12.08-0.032
	C36.092,30.871,36.124,31.135,36.154,31.4z"/>
<path fill-rule="evenodd" clip-rule="evenodd" fill="#FEA202" d="M42.013,18.913c2.935,0.119,5.379,2.167,8.436,1.361
	c-1.127,1.231-2.563,0.317-3.72,0.958c0.134,1.476,2.574,1.273,2.369,3.529C46.432,22.868,43.729,21.569,42.013,18.913z"/>
</svg>
