<?xml version="1.0" encoding="utf-8"?>
<!-- Generator: Adobe Illustrator 16.0.0, SVG Export Plug-In . SVG Version: 6.00 Build 0)  -->
<!DOCTYPE svg PUBLIC "-//W3C//DTD SVG 1.1//EN" "http://www.w3.org/Graphics/SVG/1.1/DTD/svg11.dtd">
<svg version="1.1" id="Calque_1" xmlns="http://www.w3.org/2000/svg" xmlns:xlink="http://www.w3.org/1999/xlink" x="0px" y="0px"
	 width="158.807px" height="65.75px" viewBox="0 0 158.807 65.75" enable-background="new 0 0 158.807 65.75" xml:space="preserve">
<path fill-rule="evenodd" clip-rule="evenodd" fill="#302E26" d="M154.538,52.507c0-6.029-0.031-11.42,0.033-16.806
	c0.011-0.903-0.75-2.318,1.257-2.442c1.72-0.106,2.475,0.704,2.712,2.187c0.109,0.689,0.196,1.389,0.197,2.082
	c0.012,8.41,0.021,16.817-0.022,25.227c-0.005,0.934,0.626,2.549-1.329,2.326c-1.465-0.168-3.436,1.148-4.148-1.675
	c-1.709-6.778-3.779-13.47-6.463-20.176c0,2.091,0,4.182,0,6.271c-0.006,4.504-0.089,9.011,0.025,13.513
	c0.043,1.698-0.465,2.164-2.228,2.188c-1.905,0.025-2.155-0.721-2.144-2.294c0.055-8.987-0.016-17.976,0.057-26.96
	c0.009-0.928-0.957-2.823,1.275-2.605c1.947,0.188,4.654-1.454,5.518,2.019c1.34,5.372,2.902,10.692,4.381,16.031
	C153.702,51.548,153.87,51.67,154.538,52.507z"/>
<path fill-rule="evenodd" clip-rule="evenodd" fill="#302E26" d="M138.7,49.399c0,2.894,0.081,5.789-0.02,8.681
	c-0.157,4.463-3.077,7.431-7.377,7.655c-4.578,0.242-7.896-2.334-8.14-7.056c-0.318-6.169-0.34-12.377-0.036-18.547
	c0.242-4.944,3.373-7.321,8.342-7.113c4.406,0.186,7.172,3.213,7.239,7.997c0.043,2.794,0.008,5.587,0.008,8.383
	C138.711,49.399,138.705,49.399,138.7,49.399z M133.819,49.205c-0.008,0-0.014,0-0.022,0c0-2.892,0.095-5.787-0.034-8.673
	c-0.079-1.819-0.847-3.402-3.119-3.286c-2.15,0.109-2.543,1.668-2.545,3.393c-0.008,5.782-0.026,11.564-0.004,17.348
	c0.007,1.793,0.217,3.328,2.821,3.291c2.587-0.037,2.771-1.75,2.859-3.4C133.928,54.991,133.819,52.095,133.819,49.205z"/>
<path fill-rule="evenodd" clip-rule="evenodd" fill="#0C0C0C" d="M25.025,57.871c1.712-1.574,1.242-3.535,1.526-5.145
	c1.051-5.965,1.862-11.973,2.605-17.983c0.337-2.711,2.327-1.301,3.55-1.46c1.779-0.232,1.14,0.94,0.968,1.963
	c-1.573,9.314-3.194,18.627-4.498,27.979c-0.29,2.074-1.176,2.031-2.704,2.035c-5.434,0.009-5.272,0.017-6.006-5.26
	c-1.149-8.267-2.551-16.5-3.82-24.748c-0.119-0.777-1.271-2.187,0.815-1.989c1.49,0.14,3.713-1.139,4.114,1.713
	c1.009,7.186,2.076,14.365,3.128,21.549C24.758,56.887,24.874,57.24,25.025,57.871z"/>
<path fill-rule="evenodd" clip-rule="evenodd" fill="#0C0C0C" d="M0.044,49.134c0-4.497,0.056-8.996-0.028-13.491
	c-0.032-1.554,0.217-2.364,2.127-2.279c3.293,0.148,6.604,0.145,9.898,0c1.877-0.082,2.166,0.667,2.172,2.253
	c0.004,1.529-0.373,2.269-2.043,1.988c-0.1-0.019-0.206-0.004-0.31-0.004c-7.574,0.144-7.523,0.14-6.96,7.716
	C5,46.703,5.515,47.002,6.751,46.919c1.028-0.066,2.072,0.076,3.093-0.029c1.754-0.182,2.55,0.198,2.537,2.205
	c-0.012,1.955-0.704,2.27-2.504,2.254c-4.931-0.044-4.932,0.039-4.932,4.816c0,4.927,0,4.927,5.147,4.927
	c0.825,0,1.657,0.065,2.473-0.013c1.845-0.18,1.584,1.029,1.601,2.125c0.017,1.123,0.192,2.141-1.634,2.071
	c-3.398-0.127-6.813-0.17-10.208,0.016c-2.027,0.11-2.366-0.612-2.319-2.366C0.125,58.332,0.044,53.731,0.044,49.134z"/>
<path fill-rule="evenodd" clip-rule="evenodd" fill="#0C0C0C" d="M36.634,57.695c0.513-7.044,0.697-14.096,0.626-21.154
	c-0.021-2.074,0.612-3.287,3.236-2.968c2.43,0.297,4.935,0.084,7.403,0.025c1.398-0.035,2.285,0.092,2.288,1.876
	c0,1.781-0.963,1.58-2.147,1.548c-1.543-0.042-3.102,0.171-4.627,0.022c-2.455-0.24-2.843,1.001-2.496,2.9
	c0.071,0.385,0.46,0.762,0.42,1.109c-0.526,4.376,0.145,7.525,6.01,6.385c1.51-0.294,0.75,1.279,0.893,2.014
	c0.164,0.839,0.048,1.553-1.192,1.563c-1.858,0.016-4.367-1.221-5.394,0.476c-0.835,1.381-0.102,3.653-0.068,5.53
	c0.007,0.401,0.065,0.811-0.008,1.199c-0.484,2.517,0.804,3.133,3.104,2.865c1.119-0.129,2.272,0.046,3.4-0.037
	c1.755-0.129,2.767,0.037,2.763,2.293c-0.005,2.411-1.449,1.887-2.792,1.895c-3.095,0.015-6.194-0.102-9.281,0.043
	c-1.822,0.089-2.295-0.546-2.17-2.191C36.738,61.299,36.634,59.493,36.634,57.695z"/>
<path fill-rule="evenodd" clip-rule="evenodd" fill="#302E26" d="M105.416,34.287c1.42-0.554,2.136,0.192,2.868,1.743
	c1.443,3.065,1.506,6.61,3.611,9.422c0.318,0.425,0.026,1.325,0.941,1.269c0.884-0.053,0.617-0.834,0.812-1.354
	c1.202-3.222,1.483-6.714,3.542-9.709c0.92-1.341,1.918-1.944,3.181-1.519c1.354,0.456,0.333,1.637,0.096,2.422
	c-1.521,5.023-3.046,10.045-4.71,15.023c-1.24,3.719-0.874,7.518-0.814,11.287c0.031,1.879-0.543,2.369-2.434,2.336
	c-1.765-0.029-2.561-0.254-2.511-2.253c0.085-3.282-0.663-6.787-0.075-9.824C111.309,45.954,105.892,40.808,105.416,34.287z"/>
<path fill-rule="evenodd" clip-rule="evenodd" fill="#0C0C0C" d="M61.434,44.875c-0.2-0.35-0.364-0.727-0.61-1.041
	c-0.591-0.752-0.951-2.096-2.125-1.798c-1.105,0.278-0.468,1.542-0.593,2.354c-0.891,5.766-0.47,11.533,0.043,17.294
	c0.153,1.717-0.158,2.996-2.314,2.943c-2.326-0.06-1.144-1.815-1.154-2.677c-0.103-9.389-0.064-18.776-0.064-28.041
	c4.11-0.656,5.65,0.988,5.792,4.791c0.08,2.091,1.33,4.139,2.052,6.203C62.119,44.895,61.777,44.884,61.434,44.875z"/>
<path fill-rule="evenodd" clip-rule="evenodd" fill="#302E26" d="M61.434,44.875c0.344,0.01,0.685,0.021,1.027,0.029
	c1.292,2.895,1.548,6.203,3.757,8.73c0.386,0.445,0.613,1.068,1.298,0.943c0-6.236-0.036-12.451,0.044-18.662
	c0.009-0.759-1.014-2.173,0.87-2.285c1.774-0.108,1.204,1.411,1.291,2.179c0.346,3.071-0.027,6.142-0.159,9.221
	c-0.24,5.656,0.144,11.336,0.214,17.007c0.009,0.849,0.903,2.307-0.654,2.391c-1.141,0.063-3.01,0.733-3.491-1.376
	C64.254,56.988,62.837,50.932,61.434,44.875z"/>
<path fill-rule="evenodd" clip-rule="evenodd" fill="#302E26" d="M79.655,55.197c0.2-5.551,0.975-11.086,0.417-16.657
	c-0.056-0.558,0.135-1.173,0.344-1.712c0.807-2.063-0.775-2.33-1.942-1.9c-0.795,0.294-2.09-0.059-2.565,1.213
	c-0.222,0.592-1.162,0.549-1.649,0.209c-0.665-0.464-0.386-1.286-0.339-1.956c0.066-0.867,0.841-0.822,1.396-0.717
	c3.682,0.695,7.393,0.296,11.088,0.327c1.42,0.011,2.063,0.286,1.971,1.812c-0.098,1.648-1.251,1.017-2.14,1.293
	c-1.425,0.441-2.093-2.196-3.413-0.734c-1.097,1.21-0.442,2.879-0.583,4.338c-0.694,7.157,0.614,14.311,0.091,21.477
	c-0.098,1.354-0.16,2.42-1.897,2.348c-2.071-0.087-1.049-1.622-1.062-2.479C79.34,59.772,79.543,57.484,79.655,55.197z"/>
<path fill-rule="evenodd" clip-rule="evenodd" fill="#302E26" d="M93.829,33.625c1.279,0.562,1.555,1.357,1.443,2.315
	c-0.874,7.56,0.078,15.152-0.447,22.71c-0.205,2.93,0.84,3.97,3.818,3.688c1.471-0.138,2.797-0.584,4.179-0.951
	c0.749-0.199,1.775-0.74,2.302-0.069c0.696,0.89,0.416,2.138,0.178,3.176c-0.255,1.101-1.363,0.617-2.1,0.642
	c-10.041,0.331-11.012-0.396-10.292-9.979C93.442,48.033,92.263,40.857,93.829,33.625z"/>
<path fill-rule="evenodd" clip-rule="evenodd" fill="#FCECAF" d="M105.209,26.915c0.083,0.442,0.168,0.885,0.252,1.326
	C104.84,27.896,104.807,27.445,105.209,26.915z"/>
<path fill-rule="evenodd" clip-rule="evenodd" fill="#F6F6F5" d="M133.819,49.205c0,2.891,0.109,5.786-0.044,8.672
	c-0.088,1.65-0.272,3.363-2.859,3.4c-2.604,0.037-2.814-1.498-2.821-3.291c-0.022-5.783-0.004-11.565,0.004-17.348
	c0.002-1.725,0.395-3.283,2.545-3.393c2.272-0.116,3.04,1.467,3.119,3.286c0.129,2.886,0.034,5.781,0.034,8.673
	C133.805,49.205,133.811,49.205,133.819,49.205z"/>
<path fill-rule="evenodd" clip-rule="evenodd" fill="#E81C03" d="M111.629,31.72c-0.449-0.415-0.597-0.984-0.818-1.514
	c0.102-0.476-0.179-0.86-0.322-1.278c-0.047-0.1-0.104-0.196-0.141-0.299c-1.058-2.959-2.07-5.935-3.194-8.869
	c-0.37-0.961-0.37-1.758,0.057-2.698c0.382-0.847,0.85-1.506,1.671-1.991c0.921-0.543,1.775-1.191,2.664-1.785
	c0.196-0.132,0.359-0.25,0.433-0.501c0.597-2.029,1.165-4.063,1.607-6.129c0.03-0.139,0.128-0.313-0.103-0.406
	c-0.394-0.163-0.191-0.373,0.008-0.49c0.999-0.591,1.018-1.382,0.557-2.302c-0.091-0.179-0.107-0.393-0.164-0.588
	c-0.146-0.503-1.589-1.333-2.038-1.076c-1.33,0.757-2.864,1.067-4.177,1.864c-1.205,0.733-2.068,1.846-3.221,2.628
	c-0.121-0.058-0.142-0.167-0.151-0.28c1.173-1.93,2.31-3.88,3.592-5.746c0.169-0.247,0.278-0.285,0.519-0.245
	c3.268,0.55,6.536,1.099,9.803,1.649c0.385,0.064,0.657,0.25,0.873,0.586c1.393,2.177,2.803,4.343,4.215,6.508
	c0.3,0.462,0.43,0.948,0.324,1.488c-0.115,0.064-0.256,0.133-0.223,0.284c0.038,0.169,0.21,0.115,0.334,0.133
	c0.092,1.224,0.172,2.449,0.281,3.671c0.037,0.396-0.174,0.696-0.307,1.03c-0.684,1.708-1.368,3.417-2.064,5.122
	c-0.167,0.411-0.383,0.803-0.625,1.184c-0.096-0.71,0.318-1.358,0.184-2.108c-0.377,0.187-0.479,0.531-0.656,0.808
	c-2.224,3.501-4.441,7.007-6.662,10.509c-0.035,0.056-0.094,0.101-0.141,0.15c-0.639-0.214,0.293-0.6-0.106-0.846
	c-0.269,0.192-0.292,0.505-0.388,0.774c-0.377,1.046-0.369,1.049-1.48,0.779C111.723,31.724,111.675,31.725,111.629,31.72z
	 M121.1,12.441c0.135-0.023,0.281-0.03,0.318-0.193c0.003-0.018-0.055-0.069-0.085-0.071c-0.181-0.016-0.229,0.104-0.249,0.247
	c-0.154,0.008-0.316-0.013-0.418,0.14c-0.416,0.17-0.831,0.338-1.13,0.686c-0.165,0.022-0.322,0.057-0.362,0.244
	c-0.018,0.079,0.039,0.129,0.119,0.115c0.193-0.037,0.24-0.184,0.256-0.348c0.496-0.04,0.887-0.248,1.132-0.68
	C120.834,12.573,120.999,12.593,121.1,12.441z M117.565,15.715c0-0.18-0.1-0.267-0.281-0.273c-0.209-0.42-0.572-0.46-0.965-0.327
	c-0.163,0.056-0.321,0.217-0.271,0.421c0.059,0.245,0.293,0.199,0.458,0.162c0.265-0.058,0.519-0.167,0.777-0.255
	C117.286,15.624,117.385,15.709,117.565,15.715c0.184,0.175,0.373,0.313,0.719,0.177c-0.115-0.099-0.145-0.146-0.18-0.149
	C117.926,15.728,117.746,15.724,117.565,15.715z M118.456,14.148c-0.32,0.141-0.646,0.283-0.693,0.775
	C118.139,14.705,118.395,14.513,118.456,14.148z M122.18,11.567c0.221,0.079,0.337-0.019,0.412-0.165
	c0.016-0.029-0.053-0.142-0.078-0.142C122.314,11.269,122.211,11.379,122.18,11.567z M121.973,11.89
	c0.047-0.093-0.024-0.129-0.086-0.123c-0.084,0.011-0.172,0.046-0.237,0.094c-0.058,0.043-0.044,0.123,0.032,0.143
	C121.803,12.038,121.9,11.985,121.973,11.89z"/>
<path fill-rule="evenodd" clip-rule="evenodd" fill="#FCECAF" d="M104.448,6.285c1.152-0.782,2.016-1.895,3.221-2.628
	c1.313-0.797,2.847-1.107,4.177-1.864c0.449-0.257,1.892,0.573,2.038,1.076c0.057,0.196,0.073,0.409,0.164,0.588
	c0.461,0.92,0.442,1.71-0.557,2.302c-0.199,0.117-0.401,0.328-0.008,0.49c0.23,0.093,0.133,0.267,0.103,0.406
	c-0.442,2.066-1.011,4.101-1.607,6.129c-0.073,0.251-0.236,0.37-0.433,0.501c-0.889,0.594-1.743,1.242-2.664,1.785
	c-0.821,0.484-1.289,1.144-1.671,1.991c-0.427,0.94-0.427,1.737-0.057,2.698c1.124,2.934,2.137,5.91,3.194,8.869
	c0.037,0.103,0.094,0.2,0.141,0.299c-0.186-0.211-0.37-0.422-0.555-0.633l0.009,0.013c0.001-0.121,0.048-0.264-0.151-0.287
	l0.01,0.013c0.059-0.196-0.059-0.353-0.137-0.514c-1.127-2.319-2.258-4.637-3.395-6.952c-0.064-0.13-0.076-0.32-0.287-0.342
	c0,0,0.011,0.013,0.011,0.013c-0.05-0.252-0.111-0.5-0.291-0.701l0.014,0.013c-0.046-0.043-0.091-0.087-0.138-0.131
	c-0.025-0.021-0.029-0.045-0.008-0.07c-0.033-0.113,0.064-0.305-0.15-0.308c-0.124-0.002-0.197,0.102-0.135,0.239l0.01-0.01
	c-0.387,0.09-0.596,0.349-0.719,0.695l0.012-0.01c-0.102-0.014-0.203-0.028-0.305-0.042c0.002-0.258,0.005-0.518,0.008-0.777
	c0.259-0.765,0.111-1.561,0.312-2.399c-0.456,0.148-0.743,0.415-1.192,0.371c0.399-0.792,0.736-1.556,1.742-1.991
	c-0.637-0.167-0.988,0.056-1.34,0.194c-0.459,0.179-0.704,0.122-0.867-0.387c-0.313-0.973-0.703-1.921-1.06-2.881
	c-0.115-0.312-0.349-0.597-0.243-0.961c0.359-0.239,0.499-0.646,0.775-0.949c0.393-0.432,0.374-0.642-0.293-0.734
	c-0.307-0.042-0.818,0.15-0.934-0.393l-0.013,0.011c0.112,0.01,0.162-0.039,0.157-0.146l-0.014,0.012
	c0.225-0.064,0.445-0.131,0.434-0.421l-0.01,0.008c0.244,0.048,0.344-0.112,0.437-0.283l-0.015,0.012
	c0.1-0.003,0.15-0.054,0.154-0.148l-0.012,0.014c0.23-0.15,0.521-0.242,0.576-0.561l-0.011,0.009
	c0.24,0.042,0.334-0.127,0.437-0.283l-0.014,0.014c0.168-0.038,0.154-0.166,0.154-0.287l-0.014,0.012
	C103.886,6.893,104.168,6.59,104.448,6.285z M109.02,7.052c-0.867-0.006-1.719-0.087-2.574-0.083
	c-0.301,0.001-0.6,0.104-0.557,0.452c0.035,0.293,0.33,0.385,0.599,0.313C107.327,7.514,108.154,7.25,109.02,7.052z M112.294,4.771
	c-0.563-0.067-1.062-0.251-1.556-0.45c-0.108-0.043-0.223-0.105-0.316-0.001c-0.068,0.078-0.035,0.171,0.051,0.232
	c0.48,0.349,0.964,0.695,1.588,1.143c-0.119-0.537-0.555-0.54-0.631-0.888C111.729,4.795,112.012,4.783,112.294,4.771z"/>
<path fill-rule="evenodd" clip-rule="evenodd" fill="#EA2E26" d="M101.643,11.08c-0.105,0.365,0.128,0.65,0.243,0.961
	c0.356,0.96,0.746,1.908,1.06,2.881c0.163,0.508,0.408,0.566,0.867,0.387c0.352-0.138,0.703-0.361,1.34-0.194
	c-1.006,0.436-1.343,1.199-1.742,1.991c0.449,0.044,0.736-0.223,1.192-0.371c-0.2,0.839-0.053,1.635-0.312,2.399
	c-0.313-0.525,0.061-1.04,0.039-1.566c-0.016-0.402-0.043-0.571-0.473-0.333c-0.121,0.068-0.259,0.105-0.383,0.168
	c-0.133,0.068-0.271,0.118-0.38-0.007c-0.11-0.129-0.005-0.247,0.072-0.364c0.293-0.452,0.582-0.907,0.99-1.544
	c-1.271,0.484-1.345-0.299-1.569-0.988c-0.377-1.156-0.814-2.294-1.227-3.439C101.456,11.069,101.551,11.075,101.643,11.08z"/>
<path fill-rule="evenodd" clip-rule="evenodd" fill="#E81E05" d="M101.643,11.08c-0.092-0.005-0.188-0.011-0.281-0.017
	c-0.176-0.485-0.351-0.969-0.527-1.454c-0.125-0.337-0.025-0.548,0.357-0.605c0.115,0.543,0.627,0.351,0.934,0.393
	c0.667,0.092,0.686,0.302,0.293,0.734C102.142,10.434,102.002,10.841,101.643,11.08z"/>
<path fill-rule="evenodd" clip-rule="evenodd" fill="#EA2E26" d="M111.629,31.72c0.046,0.005,0.094,0.004,0.139,0.016
	c1.111,0.27,1.104,0.267,1.48-0.779c0.096-0.269,0.119-0.583,0.388-0.774c0.399,0.247-0.532,0.632,0.106,0.846
	c-0.424,0.843-1.057,1.585-1.264,2.682C112.09,32.962,111.68,32.415,111.629,31.72z"/>
<path fill-rule="evenodd" clip-rule="evenodd" fill="#EA2E26" d="M105.983,20.226c0.211,0.022,0.223,0.212,0.287,0.342
	c1.137,2.315,2.268,4.633,3.395,6.952c0.078,0.161,0.195,0.318,0.137,0.514c-0.727-1.003-1.113-2.171-1.664-3.26
	C107.379,23.277,106.697,21.744,105.983,20.226z"/>
<path fill-rule="evenodd" clip-rule="evenodd" fill="#EA2E26" d="M109.934,28.294c0.185,0.21,0.369,0.421,0.555,0.633
	c0.144,0.418,0.424,0.803,0.322,1.278C110.447,29.6,110.073,28.998,109.934,28.294z"/>
<path fill-rule="evenodd" clip-rule="evenodd" fill="#EA2E26" d="M104.448,6.285c-0.279,0.306-0.562,0.608-1.008,0.682
	c0.391-0.233,0.573-0.64,0.856-0.962C104.306,6.118,104.327,6.227,104.448,6.285z"/>
<path fill-rule="evenodd" clip-rule="evenodd" fill="#EA2E26" d="M102.887,7.501c-0.056,0.319-0.346,0.411-0.576,0.561
	C102.367,7.744,102.68,7.674,102.887,7.501z"/>
<path fill-rule="evenodd" clip-rule="evenodd" fill="#EA2E26" d="M104.577,19.965c0.123-0.346,0.332-0.605,0.719-0.695
	C105.056,19.502,104.815,19.733,104.577,19.965z"/>
<path fill-rule="evenodd" clip-rule="evenodd" fill="#EA2E26" d="M104.284,19.912c0.102,0.014,0.203,0.029,0.305,0.042
	c-0.102,0.167-0.248,0.255-0.453,0.246l-0.009,0.013C104.292,20.168,103.987,19.894,104.284,19.912z"/>
<path fill-rule="evenodd" clip-rule="evenodd" fill="#EA2E26" d="M123.733,10.662c-0.124-0.018-0.296,0.036-0.334-0.133
	c-0.033-0.151,0.107-0.22,0.223-0.284C123.66,10.384,123.696,10.522,123.733,10.662z"/>
<path fill-rule="evenodd" clip-rule="evenodd" fill="#EA2E26" d="M101.756,8.459c0.012,0.291-0.209,0.357-0.434,0.421
	C101.388,8.663,101.574,8.563,101.756,8.459z"/>
<path fill-rule="evenodd" clip-rule="evenodd" fill="#EA2E26" d="M105.703,19.538c0.18,0.201,0.241,0.449,0.291,0.701
	C105.862,20.018,105.727,19.8,105.703,19.538z"/>
<path fill-rule="evenodd" clip-rule="evenodd" fill="#EA2E26" d="M102.183,8.185c-0.093,0.171-0.192,0.331-0.437,0.283
	C101.866,8.333,101.937,8.131,102.183,8.185z"/>
<path fill-rule="evenodd" clip-rule="evenodd" fill="#EA2E26" d="M103.313,7.228c-0.103,0.155-0.196,0.325-0.437,0.283
	C102.996,7.378,103.064,7.171,103.313,7.228z"/>
<path fill-rule="evenodd" clip-rule="evenodd" fill="#EA2E26" d="M105.286,19.28c-0.063-0.137,0.011-0.241,0.135-0.239
	c0.215,0.003,0.117,0.195,0.15,0.308C105.477,19.326,105.38,19.303,105.286,19.28z"/>
<path fill-rule="evenodd" clip-rule="evenodd" fill="#EA2E26" d="M103.454,6.955c0,0.121,0.014,0.25-0.154,0.287
	C103.208,7.073,103.386,7.042,103.454,6.955z"/>
<path fill-rule="evenodd" clip-rule="evenodd" fill="#EA2E26" d="M109.792,28.021c0.199,0.022,0.152,0.166,0.151,0.287
	C109.776,28.27,109.782,28.147,109.792,28.021z"/>
<path fill-rule="evenodd" clip-rule="evenodd" fill="#EA2E26" d="M105.579,19.419c0.047,0.044,0.092,0.088,0.138,0.131
	C105.67,19.507,105.625,19.463,105.579,19.419z"/>
<path fill-rule="evenodd" clip-rule="evenodd" fill="#E81E05" d="M101.336,8.868c0.005,0.107-0.045,0.157-0.157,0.146
	C101.125,8.858,101.233,8.865,101.336,8.868z"/>
<path fill-rule="evenodd" clip-rule="evenodd" fill="#EA2E26" d="M102.323,8.048c-0.004,0.094-0.055,0.145-0.154,0.148
	C102.129,8.056,102.186,8.013,102.323,8.048z"/>
<polygon fill-rule="evenodd" clip-rule="evenodd" fill="#EA2E26" points="104.135,20.2 104.139,20.233 104.126,20.212 "/>
<path fill-rule="evenodd" clip-rule="evenodd" fill="#EA2E26" d="M117.283,15.443c-0.259,0.087-0.513,0.197-0.777,0.255
	c-0.165,0.037-0.399,0.083-0.458-0.162c-0.05-0.204,0.108-0.365,0.271-0.421c0.393-0.134,0.756-0.093,0.965,0.327L117.283,15.443z"
	/>
<path fill-rule="evenodd" clip-rule="evenodd" fill="#EA2E26" d="M118.456,14.148c-0.061,0.365-0.316,0.557-0.693,0.775
	C117.81,14.431,118.135,14.289,118.456,14.148z"/>
<path fill-rule="evenodd" clip-rule="evenodd" fill="#EA2E26" d="M120.681,12.582c-0.245,0.432-0.636,0.64-1.132,0.679l-0.013-0.011
	c0.299-0.348,0.714-0.516,1.13-0.686L120.681,12.582z"/>
<path fill-rule="evenodd" clip-rule="evenodd" fill="#EA2E26" d="M122.18,11.567c0.031-0.188,0.134-0.298,0.334-0.306
	c0.025,0,0.094,0.113,0.078,0.142C122.517,11.549,122.401,11.646,122.18,11.567z"/>
<path fill-rule="evenodd" clip-rule="evenodd" fill="#EA2E26" d="M117.565,15.715c0.181,0.009,0.361,0.012,0.539,0.028
	c0.035,0.002,0.064,0.05,0.18,0.149C117.938,16.028,117.749,15.89,117.565,15.715L117.565,15.715z"/>
<path fill-rule="evenodd" clip-rule="evenodd" fill="#EA2E26" d="M119.549,13.261c-0.016,0.164-0.063,0.311-0.256,0.348
	c-0.08,0.015-0.137-0.036-0.119-0.115c0.04-0.187,0.197-0.222,0.362-0.244L119.549,13.261z"/>
<path fill-rule="evenodd" clip-rule="evenodd" fill="#EA2E26" d="M121.973,11.89c-0.073,0.095-0.17,0.148-0.291,0.115
	c-0.076-0.021-0.09-0.1-0.032-0.143c0.065-0.048,0.153-0.083,0.237-0.094C121.949,11.76,122.02,11.797,121.973,11.89z"/>
<path fill-rule="evenodd" clip-rule="evenodd" fill="#EA2E26" d="M121.084,12.422c0.02-0.142,0.068-0.262,0.249-0.246
	c0.03,0.002,0.088,0.054,0.085,0.071c-0.037,0.163-0.184,0.17-0.318,0.193L121.084,12.422z"/>
<path fill-rule="evenodd" clip-rule="evenodd" fill="#EA2E26" d="M117.565,15.716c-0.18-0.007-0.279-0.093-0.282-0.273l0.001-0.001
	C117.465,15.449,117.565,15.535,117.565,15.716L117.565,15.716z"/>
<path fill-rule="evenodd" clip-rule="evenodd" fill="#EA2E26" d="M120.667,12.563c0.102-0.153,0.264-0.132,0.418-0.14
	c0-0.001,0.016,0.018,0.016,0.018c-0.102,0.152-0.266,0.132-0.419,0.141L120.667,12.563z"/>
<path fill-rule="evenodd" clip-rule="evenodd" fill="#EA2E26" d="M109.02,7.052c-0.866,0.197-1.693,0.461-2.532,0.682
	c-0.269,0.071-0.563-0.02-0.599-0.313c-0.043-0.347,0.256-0.45,0.557-0.452C107.301,6.965,108.153,7.046,109.02,7.052z"/>
<path fill-rule="evenodd" clip-rule="evenodd" fill="#EA2E26" d="M112.294,4.771c-0.282,0.012-0.565,0.024-0.864,0.037
	c0.076,0.348,0.512,0.351,0.631,0.888c-0.624-0.448-1.107-0.794-1.588-1.143c-0.086-0.062-0.119-0.154-0.051-0.232
	c0.094-0.104,0.208-0.042,0.316,0.001C111.233,4.52,111.731,4.704,112.294,4.771z"/>
</svg>
