<?xml version="1.0" encoding="utf-8"?>
<!-- Generator: Adobe Illustrator 16.0.0, SVG Export Plug-In . SVG Version: 6.00 Build 0)  -->
<!DOCTYPE svg PUBLIC "-//W3C//DTD SVG 1.1//EN" "http://www.w3.org/Graphics/SVG/1.1/DTD/svg11.dtd">
<svg version="1.1" id="Calque_1" xmlns="http://www.w3.org/2000/svg" xmlns:xlink="http://www.w3.org/1999/xlink" x="0px" y="0px"
	 width="102.079px" height="148.095px" viewBox="0 0 102.079 148.095" enable-background="new 0 0 102.079 148.095"
	 xml:space="preserve">
<path fill-rule="evenodd" clip-rule="evenodd" fill="#E81C03" d="M47.647,139.354c-1.972-1.824-2.619-4.323-3.591-6.655
	c0.439-2.086-0.788-3.775-1.415-5.61c-0.21-0.438-0.458-0.862-0.622-1.315c-4.645-13-9.089-26.072-14.033-38.965
	c-1.622-4.224-1.622-7.723,0.247-11.852c1.683-3.721,3.734-6.62,7.348-8.749c4.041-2.386,7.795-5.23,11.7-7.841
	c0.862-0.578,1.575-1.101,1.898-2.2c2.621-8.911,5.122-17.853,7.063-26.934c0.128-0.607,0.561-1.367-0.448-1.783
	c-1.732-0.714-0.843-1.635,0.028-2.15c4.394-2.598,4.478-6.07,2.45-10.11c-0.397-0.789-0.47-1.726-0.72-2.588
	c-0.645-2.208-6.979-5.855-8.956-4.729c-5.846,3.329-12.582,4.687-18.346,8.189c-5.297,3.22-9.088,8.111-14.157,11.55
	c-0.529-0.256-0.62-0.733-0.661-1.232c5.15-8.479,10.144-17.047,15.779-25.247c0.744-1.083,1.226-1.249,2.28-1.073
	c14.353,2.418,28.714,4.831,43.067,7.243c1.691,0.284,2.888,1.098,3.835,2.578c6.117,9.563,12.311,19.077,18.513,28.591
	c1.318,2.025,1.894,4.164,1.431,6.537c-0.513,0.281-1.13,0.583-0.979,1.247c0.166,0.74,0.921,0.502,1.465,0.582
	c0.405,5.377,0.751,10.759,1.237,16.13c0.157,1.737-0.767,3.058-1.351,4.519c-3.003,7.509-6.007,15.019-9.065,22.508
	c-0.738,1.804-1.685,3.524-2.751,5.199c-0.421-3.12,1.402-5.964,0.809-9.26c-1.652,0.821-2.106,2.33-2.88,3.548
	c-9.769,15.385-19.514,30.784-29.27,46.176c-0.156,0.247-0.413,0.44-0.621,0.658c-2.805-0.941,1.286-2.637-0.468-3.72
	c-1.177,0.842-1.276,2.222-1.703,3.403c-1.652,4.598-1.621,4.606-6.5,3.422C48.065,139.373,47.853,139.375,47.647,139.354z
	 M89.258,54.658c0.588-0.103,1.232-0.135,1.395-0.853c0.019-0.078-0.233-0.298-0.372-0.311c-0.795-0.068-1.006,0.455-1.092,1.082
	c-0.677,0.037-1.39-0.051-1.837,0.617c-1.821,0.75-3.647,1.486-4.964,3.013c-0.719,0.097-1.415,0.25-1.595,1.072
	c-0.076,0.351,0.177,0.568,0.529,0.503c0.847-0.162,1.053-0.805,1.121-1.524c2.186-0.171,3.896-1.087,4.975-2.989
	C88.094,55.238,88.81,55.325,89.258,54.658z M73.729,69.042c-0.005-0.792-0.44-1.172-1.237-1.204
	c-0.917-1.843-2.518-2.021-4.237-1.435c-0.721,0.244-1.417,0.953-1.2,1.852c0.264,1.072,1.292,0.871,2.015,0.713
	c1.165-0.254,2.278-0.737,3.417-1.122c0.012,0.792,0.448,1.168,1.243,1.199c0.807,0.765,1.638,1.367,3.158,0.775
	c-0.51-0.434-0.642-0.643-0.79-0.655C75.312,69.097,74.52,69.078,73.729,69.042z M77.643,62.155
	c-1.413,0.623-2.838,1.246-3.05,3.403C76.253,64.6,77.374,63.757,77.643,62.155z M94,50.817c0.971,0.348,1.481-0.08,1.815-0.724
	c0.067-0.129-0.23-0.623-0.346-0.618C94.591,49.505,94.139,49.992,94,50.817z M93.091,52.233c0.212-0.405-0.104-0.57-0.379-0.537
	c-0.363,0.045-0.753,0.198-1.041,0.414c-0.254,0.188-0.191,0.537,0.146,0.629C92.347,52.887,92.771,52.65,93.091,52.233z"/>
<path fill-rule="evenodd" clip-rule="evenodd" fill="#FCECAF" d="M16.095,27.612c5.069-3.439,8.86-8.33,14.157-11.55
	c5.764-3.502,12.5-4.86,18.346-8.189c1.978-1.126,8.312,2.521,8.956,4.729c0.25,0.862,0.322,1.799,0.72,2.588
	c2.027,4.041,1.943,7.513-2.45,10.11c-0.871,0.515-1.761,1.436-0.028,2.15c1.009,0.416,0.576,1.176,0.448,1.783
	c-1.941,9.081-4.442,18.022-7.063,26.934c-0.323,1.1-1.036,1.623-1.898,2.2c-3.905,2.611-7.659,5.456-11.7,7.841
	c-3.613,2.129-5.665,5.028-7.348,8.749c-1.869,4.129-1.869,7.628-0.247,11.852c4.944,12.893,9.389,25.965,14.033,38.965
	c0.164,0.453,0.412,0.878,0.62,1.313c-0.814-0.928-1.628-1.854-2.44-2.779l0.041,0.058c0.006-0.532,0.21-1.161-0.662-1.259
	l0.042,0.058c0.257-0.866-0.257-1.556-0.602-2.263c-4.956-10.188-9.922-20.371-14.912-30.543c-0.282-0.568-0.335-1.404-1.263-1.5
	c0,0,0.048,0.054,0.048,0.057c-0.216-1.109-0.494-2.195-1.278-3.08l0.057,0.059c-0.2-0.191-0.399-0.385-0.603-0.578
	c-0.113-0.093-0.125-0.196-0.034-0.311c-0.145-0.494,0.285-1.34-0.659-1.354c-0.546-0.008-0.865,0.449-0.595,1.051l0.046-0.043
	c-1.697,0.395-2.624,1.533-3.16,3.052l0.054-0.044c-0.448-0.062-0.896-0.123-1.344-0.186c0.014-1.137,0.027-2.277,0.04-3.415
	c1.137-3.356,0.486-6.854,1.365-10.542c-2.002,0.652-3.261,1.826-5.234,1.632c1.75-3.481,3.232-6.835,7.65-8.748
	c-2.799-0.732-4.339,0.248-5.888,0.853c-2.014,0.786-3.091,0.532-3.811-1.704c-1.374-4.271-3.088-8.44-4.652-12.656
	c-0.509-1.37-1.532-2.62-1.065-4.222c1.575-1.053,2.188-2.842,3.4-4.172c1.723-1.896,1.646-2.82-1.283-3.226
	c-1.345-0.186-3.598,0.664-4.105-1.729l-0.051,0.048c0.49,0.049,0.711-0.174,0.688-0.641l-0.063,0.052
	c0.989-0.278,1.96-0.572,1.906-1.852l-0.044,0.038c1.074,0.211,1.514-0.49,1.92-1.243l-0.06,0.049
	c0.432-0.013,0.658-0.231,0.677-0.649l-0.052,0.063c1.008-0.659,2.284-1.064,2.525-2.464l-0.045,0.041
	c1.053,0.188,1.469-0.558,1.921-1.242l-0.062,0.058c0.734-0.164,0.675-0.728,0.676-1.26L11.67,30.61
	C13.631,30.281,14.868,28.957,16.095,27.612z M36.184,30.983c-3.805-0.027-7.551-0.388-11.305-0.37
	c-1.327,0.008-2.637,0.461-2.447,1.986c0.155,1.288,1.452,1.689,2.628,1.378C28.749,33.008,32.38,31.848,36.184,30.983z
	 M50.575,20.957c-2.479-0.293-4.667-1.103-6.836-1.974c-0.479-0.192-0.98-0.466-1.393-0.003c-0.3,0.34-0.154,0.747,0.219,1.017
	c2.117,1.53,4.239,3.054,6.979,5.025c-0.521-2.361-2.432-2.372-2.775-3.9C48.091,21.064,49.333,21.01,50.575,20.957z"/>
<path fill-rule="evenodd" clip-rule="evenodd" fill="#EA2E26" d="M3.78,48.679c-0.467,1.602,0.557,2.853,1.065,4.222
	c1.564,4.215,3.278,8.384,4.652,12.656c0.72,2.235,1.797,2.489,3.811,1.704c1.549-0.605,3.089-1.585,5.888-0.853
	c-4.418,1.913-5.9,5.267-7.65,8.748c1.974,0.193,3.232-0.98,5.234-1.632c-0.879,3.687-0.229,7.185-1.365,10.542
	c-1.38-2.31,0.265-4.569,0.173-6.878c-0.071-1.768-0.192-2.51-2.081-1.46c-0.529,0.294-1.137,0.458-1.681,0.736
	c-0.581,0.3-1.197,0.519-1.668-0.027c-0.487-0.567-0.021-1.088,0.314-1.599c1.289-1.987,2.56-3.987,4.351-6.786
	c-5.584,2.131-5.906-1.315-6.892-4.343c-1.659-5.076-3.577-10.074-5.389-15.105C2.954,48.63,3.368,48.655,3.78,48.679z"/>
<path fill-rule="evenodd" clip-rule="evenodd" fill="#E81E05" d="M3.78,48.679c-0.412-0.024-0.826-0.049-1.237-0.075
	c-0.775-2.129-1.541-4.261-2.321-6.386c-0.545-1.486-0.11-2.415,1.57-2.665c0.508,2.393,2.761,1.543,4.105,1.729
	c2.93,0.406,3.006,1.33,1.283,3.226C5.969,45.837,5.355,47.626,3.78,48.679z"/>
<path fill-rule="evenodd" clip-rule="evenodd" fill="#EA2E26" d="M47.647,139.354c0.205,0.021,0.418,0.019,0.614,0.067
	c4.879,1.185,4.848,1.176,6.5-3.422c0.427-1.182,0.526-2.562,1.703-3.403c1.754,1.083-2.337,2.778,0.468,3.72
	c-1.864,3.701-4.639,6.961-5.552,11.779C49.675,144.811,47.871,142.41,47.647,139.354z"/>
<path fill-rule="evenodd" clip-rule="evenodd" fill="#EA2E26" d="M22.844,88.857c0.928,0.096,0.98,0.932,1.263,1.5
	c4.99,10.172,9.956,20.355,14.912,30.543c0.345,0.707,0.858,1.396,0.602,2.263c-3.196-4.409-4.896-9.542-7.315-14.323
	C28.979,102.261,25.98,95.526,22.844,88.857z"/>
<path fill-rule="evenodd" clip-rule="evenodd" fill="#EA2E26" d="M40.199,124.306c0.813,0.925,1.626,1.852,2.44,2.779
	c0.629,1.838,1.856,3.527,1.417,5.613C42.455,130.037,40.809,127.394,40.199,124.306z"/>
<path fill-rule="evenodd" clip-rule="evenodd" fill="#EA2E26" d="M16.095,27.612c-1.227,1.345-2.464,2.669-4.425,2.998
	c1.712-1.029,2.519-2.814,3.764-4.23C15.475,26.879,15.565,27.355,16.095,27.612z"/>
<path fill-rule="evenodd" clip-rule="evenodd" fill="#EA2E26" d="M9.24,32.955c-0.241,1.4-1.518,1.806-2.525,2.464
	C6.955,34.017,8.334,33.713,9.24,32.955z"/>
<path fill-rule="evenodd" clip-rule="evenodd" fill="#EA2E26" d="M16.665,87.709c0.536-1.519,1.463-2.657,3.16-3.052
	C18.77,85.675,17.716,86.693,16.665,87.709z"/>
<path fill-rule="evenodd" clip-rule="evenodd" fill="#EA2E26" d="M15.375,87.48c0.448,0.063,0.896,0.124,1.344,0.186
	c-0.447,0.736-1.095,1.119-1.991,1.079l-0.039,0.059C15.415,88.605,14.073,87.399,15.375,87.48z"/>
<path fill-rule="evenodd" clip-rule="evenodd" fill="#EA2E26" d="M100.824,46.837c-0.544-0.079-1.299,0.159-1.465-0.582
	c-0.15-0.664,0.467-0.966,0.979-1.247C100.503,45.619,100.663,46.228,100.824,46.837z"/>
<path fill-rule="evenodd" clip-rule="evenodd" fill="#EA2E26" d="M4.273,37.16c0.054,1.279-0.917,1.574-1.906,1.852
	C2.656,38.058,3.475,37.619,4.273,37.16z"/>
<path fill-rule="evenodd" clip-rule="evenodd" fill="#EA2E26" d="M21.613,85.833c0.784,0.885,1.063,1.971,1.278,3.08
	C22.307,87.947,21.716,86.988,21.613,85.833z"/>
<path fill-rule="evenodd" clip-rule="evenodd" fill="#EA2E26" d="M6.149,35.955c-0.406,0.753-0.846,1.454-1.92,1.243
	C4.751,36.61,5.067,35.725,6.149,35.955z"/>
<path fill-rule="evenodd" clip-rule="evenodd" fill="#EA2E26" d="M11.116,31.754c-0.452,0.684-0.868,1.429-1.921,1.242
	C9.719,32.411,10.02,31.504,11.116,31.754z"/>
<path fill-rule="evenodd" clip-rule="evenodd" fill="#EA2E26" d="M19.779,84.701c-0.271-0.602,0.049-1.059,0.595-1.051
	c0.944,0.014,0.515,0.859,0.659,1.354C20.615,84.905,20.194,84.802,19.779,84.701z"/>
<path fill-rule="evenodd" clip-rule="evenodd" fill="#EA2E26" d="M11.73,30.552c-0.001,0.532,0.059,1.096-0.676,1.26
	C10.65,31.073,11.437,30.935,11.73,30.552z"/>
<path fill-rule="evenodd" clip-rule="evenodd" fill="#EA2E26" d="M39.578,123.105c0.872,0.098,0.668,0.727,0.662,1.259
	C39.513,124.195,39.533,123.657,39.578,123.105z"/>
<path fill-rule="evenodd" clip-rule="evenodd" fill="#EA2E26" d="M21.067,85.314c0.203,0.193,0.402,0.387,0.603,0.578
	C21.47,85.7,21.271,85.506,21.067,85.314z"/>
<path fill-rule="evenodd" clip-rule="evenodd" fill="#E81E05" d="M2.43,38.96c0.022,0.467-0.198,0.69-0.688,0.641
	C1.498,38.914,1.977,38.948,2.43,38.96z"/>
<path fill-rule="evenodd" clip-rule="evenodd" fill="#EA2E26" d="M6.767,35.355c-0.019,0.417-0.245,0.636-0.677,0.649
	C5.914,35.396,6.161,35.201,6.767,35.355z"/>
<polygon fill-rule="evenodd" clip-rule="evenodd" fill="#EA2E26" points="14.728,88.745 14.743,88.886 14.69,88.8 "/>
<path fill-rule="evenodd" clip-rule="evenodd" fill="#EA2E26" d="M72.486,67.846c-1.139,0.385-2.252,0.868-3.417,1.122
	c-0.723,0.158-1.751,0.359-2.015-0.713c-0.217-0.899,0.479-1.608,1.2-1.852c1.72-0.586,3.32-0.408,4.237,1.435L72.486,67.846z"/>
<path fill-rule="evenodd" clip-rule="evenodd" fill="#EA2E26" d="M77.643,62.155c-0.269,1.602-1.39,2.444-3.05,3.403
	C74.805,63.401,76.229,62.778,77.643,62.155z"/>
<path fill-rule="evenodd" clip-rule="evenodd" fill="#EA2E26" d="M87.418,55.271c-1.079,1.9-2.789,2.816-4.975,2.987l-0.057-0.052
	c1.317-1.527,3.144-2.263,4.965-3.013L87.418,55.271z"/>
<path fill-rule="evenodd" clip-rule="evenodd" fill="#EA2E26" d="M94,50.817c0.139-0.826,0.591-1.313,1.47-1.342
	c0.115-0.004,0.413,0.489,0.346,0.618C95.481,50.738,94.971,51.166,94,50.817z"/>
<path fill-rule="evenodd" clip-rule="evenodd" fill="#EA2E26" d="M73.729,69.042c0.79,0.036,1.582,0.054,2.368,0.123
	c0.148,0.012,0.28,0.221,0.79,0.655c-1.521,0.592-2.352-0.011-3.158-0.775V69.042z"/>
<path fill-rule="evenodd" clip-rule="evenodd" fill="#EA2E26" d="M82.443,58.258c-0.068,0.719-0.274,1.362-1.121,1.524
	c-0.353,0.065-0.605-0.153-0.529-0.503c0.18-0.822,0.876-0.975,1.594-1.072L82.443,58.258z"/>
<path fill-rule="evenodd" clip-rule="evenodd" fill="#EA2E26" d="M93.091,52.235c-0.319,0.415-0.744,0.652-1.273,0.503
	c-0.338-0.092-0.4-0.441-0.146-0.629c0.288-0.215,0.678-0.368,1.041-0.414C92.986,51.664,93.303,51.828,93.091,52.235z"/>
<path fill-rule="evenodd" clip-rule="evenodd" fill="#EA2E26" d="M89.188,54.575c0.086-0.625,0.297-1.148,1.092-1.08
	c0.139,0.013,0.391,0.233,0.372,0.311c-0.162,0.718-0.807,0.75-1.395,0.853C89.258,54.656,89.188,54.575,89.188,54.575z"/>
<path fill-rule="evenodd" clip-rule="evenodd" fill="#EA2E26" d="M73.729,69.045c-0.795-0.031-1.231-0.407-1.243-1.199l0.006-0.007
	c0.797,0.032,1.232,0.411,1.237,1.204V69.045z"/>
<path fill-rule="evenodd" clip-rule="evenodd" fill="#EA2E26" d="M87.352,55.193c0.447-0.668,1.16-0.581,1.837-0.617
	c0-0.001,0.069,0.08,0.069,0.082c-0.448,0.667-1.164,0.58-1.84,0.613L87.352,55.193z"/>
<path fill-rule="evenodd" clip-rule="evenodd" fill="#EA2E26" d="M36.184,30.983c-3.804,0.865-7.435,2.025-11.124,2.994
	c-1.176,0.311-2.473-0.09-2.628-1.378c-0.189-1.524,1.12-1.978,2.447-1.986C28.633,30.595,32.379,30.956,36.184,30.983z"/>
<path fill-rule="evenodd" clip-rule="evenodd" fill="#EA2E26" d="M50.575,20.957c-1.242,0.053-2.484,0.107-3.807,0.165
	c0.344,1.528,2.254,1.539,2.775,3.9c-2.739-1.971-4.861-3.495-6.979-5.025c-0.373-0.271-0.519-0.677-0.219-1.017
	c0.412-0.463,0.914-0.189,1.393,0.003C45.908,19.854,48.097,20.664,50.575,20.957z"/>
</svg>
